<svg width="62" height="62" viewBox="0 0 62 62" fill="none" xmlns="http://www.w3.org/2000/svg">
<path fill-rule="evenodd" clip-rule="evenodd" d="M32.3185 22.723V27.1069C33.2362 25.7081 34.5015 24.5718 35.9905 23.8091C37.4796 23.0465 39.1411 22.6838 40.8125 22.7566C49.7379 22.7566 51.6677 28.3366 51.6677 35.5958V50.375H43.401V37.2723C43.401 34.1465 42.7707 30.1268 37.9037 30.1268C33.1839 30.1268 32.3779 33.5291 32.3779 37.0398V50.375H24.1371V22.723H32.3185ZM18.601 15.7738C18.6 16.5928 18.3572 17.3932 17.9032 18.0747C17.4492 18.7562 16.804 19.2885 16.0487 19.6049C15.2936 19.9187 14.4623 20.0008 13.6605 19.8407C12.8586 19.6807 12.1226 19.2856 11.5459 18.7059C10.9682 18.1259 10.5749 17.3879 10.4154 16.5849C10.256 15.7819 10.3375 14.9497 10.6498 14.1929C10.9621 13.4361 11.4911 12.7886 12.1704 12.3316C12.8498 11.8747 13.649 11.6289 14.4677 11.625C15.0117 11.6253 15.5503 11.733 16.0526 11.9418C16.555 12.1506 17.0112 12.4565 17.3951 12.8419C17.7791 13.2272 18.0832 13.6846 18.2901 14.1877C18.4971 14.6908 18.6027 15.2298 18.601 15.7738Z" fill="black"/>
<path d="M18.6007 22.7559H10.334V50.3743H18.6007V22.7559Z" fill="black"/>
</svg>
