<svg width="72" height="72" viewBox="0 0 72 72" fill="none" xmlns="http://www.w3.org/2000/svg">
<g clip-path="url(#clip0_1512_328)">
<g clip-path="url(#clip1_1512_328)">
<path d="M55.125 0H16.875C7.55519 0 0 7.55519 0 16.875V55.125C0 64.4448 7.55519 72 16.875 72H55.125C64.4448 72 72 64.4448 72 55.125V16.875C72 7.55519 64.4448 0 55.125 0Z" fill="#001E36"/>
<path d="M16.1992 50.0733V19.2033C16.1992 18.9932 16.2892 18.8734 16.4993 18.8734C17.0092 18.8734 17.4893 18.8734 18.1792 18.8433C18.8992 18.8132 19.6493 18.8132 20.4593 18.7834C21.2693 18.7533 22.1392 18.7533 23.0693 18.7232C23.9991 18.6934 24.8991 18.6934 25.7991 18.6934C28.2592 18.6934 30.2991 18.9932 31.9793 19.6232C33.4853 20.1346 34.8585 20.975 35.9992 22.0833C36.9659 23.0532 37.7128 24.2195 38.1893 25.5033C38.6393 26.7633 38.8792 28.0534 38.8792 29.4034C38.8792 31.9833 38.2793 34.1132 37.0792 35.7934C35.8791 37.4733 34.1992 38.7333 32.2493 39.4533C30.2091 40.2034 27.9591 40.4734 25.4993 40.4734C24.7793 40.4734 24.2992 40.4734 23.9991 40.4433C23.6993 40.4132 23.2791 40.4132 22.7093 40.4132V50.0432C22.7391 50.2533 22.5892 50.4333 22.3791 50.4634H16.5592C16.3193 50.4634 16.1992 50.3433 16.1992 50.0733ZM22.7391 24.6632V34.7432C23.1593 34.7733 23.5491 34.8034 23.9091 34.8034H25.4993C26.6693 34.8034 27.8393 34.6234 28.9491 34.2634C29.9093 33.9934 30.7491 33.4233 31.4092 32.6732C32.0392 31.9234 32.3393 30.9033 32.3393 29.5834C32.3675 28.6458 32.1281 27.7196 31.6491 26.9132C31.1392 26.1333 30.4192 25.5334 29.5493 25.2032C28.4392 24.7532 27.2391 24.5732 26.0092 24.6033C25.2293 24.6033 24.5391 24.6033 23.9693 24.6334C23.3691 24.6033 22.9492 24.6334 22.7391 24.6632ZM57.5992 32.9134C56.6992 32.4333 55.7393 32.1034 54.7192 31.8933C53.6091 31.6534 52.4993 31.5032 51.3591 31.5032C50.7592 31.4734 50.1292 31.5634 49.5591 31.7133C49.1693 31.8033 48.8391 32.0134 48.6293 32.3132C48.4791 32.5534 48.3891 32.8532 48.3891 33.1232C48.3891 33.3932 48.5092 33.6632 48.6892 33.9034C48.9592 34.2333 49.3192 34.5033 49.7093 34.7134C50.4048 35.0736 51.1155 35.4039 51.8392 35.7034C53.4592 36.2434 55.0193 36.9932 56.4593 37.8932C57.4493 38.5232 58.2593 39.3633 58.8291 40.3834C59.3092 41.3433 59.5491 42.3932 59.5193 43.4732C59.5491 44.8834 59.1292 46.2933 58.3493 47.4633C57.5125 48.6608 56.3449 49.5886 54.9892 50.1332C53.5191 50.7632 51.7191 51.0934 49.5591 51.0934C48.1793 51.0934 46.8293 50.9733 45.4793 50.7033C44.4212 50.5205 43.3922 50.1977 42.4193 49.7434C42.2092 49.6233 42.0593 49.4132 42.0891 49.1733V43.9533C42.0891 43.8633 42.1192 43.7432 42.2092 43.6833C42.2992 43.6234 42.3892 43.6532 42.4792 43.7134C43.6492 44.4033 44.8791 44.8834 46.1993 45.1832C47.3392 45.4833 48.5393 45.6332 49.7391 45.6332C50.8793 45.6332 51.6893 45.4833 52.2293 45.2133C52.7091 45.0032 53.0393 44.4933 53.0393 43.9533C53.0393 43.5334 52.7991 43.1433 52.3193 42.7532C51.8392 42.3634 50.8492 41.9134 49.3791 41.3433C47.8712 40.8119 46.4391 40.0858 45.1193 39.1833C44.1792 38.5132 43.4003 37.6421 42.8392 36.6332C42.3591 35.6733 42.1192 34.6234 42.1493 33.5732C42.1493 32.2834 42.5093 31.0532 43.1691 29.9434C43.9192 28.7433 45.0293 27.7834 46.3191 27.1832C47.7293 26.4632 49.4992 26.1333 51.6291 26.1333C52.8593 26.1333 54.1193 26.2233 55.3492 26.4033C56.2492 26.5234 57.1191 26.7633 57.9291 27.0932C58.0492 27.1233 58.1693 27.2434 58.2292 27.3632C58.2593 27.4833 58.2891 27.6034 58.2891 27.7232V32.6133C58.2891 32.7334 58.2292 32.8532 58.1392 32.9134C57.8692 32.9733 57.7193 32.9733 57.5992 32.9134Z" fill="#31A8FF"/>
</g>
</g>
<defs>
<clipPath id="clip0_1512_328">
<rect width="72" height="72" rx="8" fill="white"/>
</clipPath>
<clipPath id="clip1_1512_328">
<rect width="72" height="72" fill="white"/>
</clipPath>
</defs>
</svg>
