<svg width="72" height="72" viewBox="0 0 72 72" fill="none" xmlns="http://www.w3.org/2000/svg">
<g clip-path="url(#clip0_1512_313)">
<g clip-path="url(#clip1_1512_313)">
<path d="M60.5488 -1H10.4512C3.57458 -1 -2 4.55615 -2 11.41V59.4732C-2 66.3271 3.57458 71.8832 10.4512 71.8832H60.5488C67.4254 71.8832 73 66.3271 73 59.4732V11.41C73 4.55615 67.4254 -1 60.5488 -1Z" fill="#00005B"/>
<path d="M28.1302 42.6053H16.5078L14.143 49.9406C14.1127 50.0663 14.0417 50.1787 13.9411 50.2603C13.8405 50.3419 13.7157 50.3883 13.586 50.3923L7.65283 50.392C7.31709 50.392 7.19961 50.2081 7.30069 49.8402L17.3633 21.0755L17.4638 20.7733L17.4972 20.6699L17.5646 20.4539C17.598 20.3423 17.6314 20.2241 17.665 20.0959C17.7969 19.4269 17.8643 18.7468 17.8663 18.065C17.8595 18.0173 17.8639 17.9687 17.8792 17.9231C17.8945 17.8774 17.9203 17.8359 17.9544 17.8019C17.9886 17.7678 18.0302 17.7421 18.0761 17.7269C18.1219 17.7117 18.1706 17.7073 18.2185 17.714H26.2183C26.4526 17.714 26.5865 17.7975 26.6208 17.9649L38.0416 49.8907C38.1421 50.225 38.0416 50.3923 37.7398 50.392H31.199C31.0867 50.4045 30.9737 50.3757 30.8811 50.3111C30.7885 50.2465 30.7227 50.1505 30.696 50.0411L28.1302 42.6053ZM18.3192 36.4204H26.2687L26.1553 36.0475L25.9733 35.4571L25.707 34.6115L25.1958 33.0151L24.7089 31.481L23.803 28.6226C23.5527 27.8335 23.3125 27.0414 23.0823 26.2463L22.8251 25.3422L22.5474 24.3515L22.2937 23.4326H22.2433C21.9916 24.6362 21.6851 25.8279 21.3245 27.0037L20.9847 28.0908L20.1673 30.7188L19.753 32.0576C19.678 32.2994 19.6036 32.5386 19.5289 32.7748L19.3063 33.475L19.0848 34.1589L18.8645 34.8258L18.6453 35.4761C18.5363 35.7973 18.4273 36.1118 18.3192 36.4204ZM56.5569 39.7504H46.6455C46.7669 40.7277 47.0926 41.6688 47.6015 42.513C48.1641 43.349 48.9597 44.0026 49.8904 44.3935C51.1519 44.9375 52.5162 45.204 53.8903 45.1749C54.9806 45.154 56.0667 45.0352 57.1356 44.8198C58.0915 44.6912 59.0282 44.4479 59.9255 44.0951C60.0931 43.9619 60.1774 44.0448 60.1774 44.3456V49.1096C60.1856 49.2395 60.1596 49.3692 60.1016 49.4857C60.0441 49.5768 59.9668 49.6539 59.8754 49.7114C58.8801 50.1508 57.8325 50.4619 56.7582 50.637C55.2987 50.9102 53.8154 51.0361 52.3306 51.0128C50.0232 51.0128 48.0781 50.6677 46.4955 49.9777L46.3432 49.9097C44.8218 49.2416 43.4781 48.2285 42.4191 46.9511C41.4299 45.7475 40.6941 44.3575 40.2556 42.8643C39.8216 41.3904 39.6015 39.8621 39.602 38.326C39.5974 36.6487 39.8606 34.9814 40.3818 33.3865C40.8838 31.8309 41.6776 30.3845 42.7212 29.1242C43.7505 27.8785 45.0377 26.8692 46.4946 26.1654C47.9703 25.4471 49.7146 25.1892 51.7271 25.1892C53.3961 25.1472 55.0539 25.4725 56.5824 26.142C57.8676 26.6883 58.9989 27.54 59.8777 28.6226C60.702 29.6827 61.3321 30.8795 61.7393 32.1578C62.1357 33.3898 62.3393 34.6752 62.3431 35.969C62.3431 36.7048 62.3179 37.3735 62.2678 37.975L62.223 38.4901L62.1761 38.9789L62.1482 39.2265C62.1461 39.244 62.144 39.2614 62.1418 39.2788C62.1287 39.3893 62.0754 39.4912 61.992 39.5652C61.9086 39.6391 61.8008 39.68 61.6892 39.68L61.5512 39.6829L61.3792 39.6917L61.2453 39.7013L60.9324 39.7279L60.6576 39.7551C60.5829 39.7629 60.5053 39.7702 60.4247 39.777L60.1754 39.7965L59.9091 39.814L59.6264 39.8286L59.327 39.8412L59.1708 39.8465L58.8465 39.8552C58.5257 39.8631 58.197 39.8432 57.8598 39.8187L57.3482 39.7813C57.085 39.7621 56.8209 39.7518 56.5569 39.7504ZM46.6458 35.1821H53.4972L54.0808 35.1783L54.4774 35.1727L54.7344 35.1669L55.0227 35.1569C55.2807 35.1312 55.5298 35.049 55.7522 34.916V34.6153C55.7421 34.2231 55.6744 33.8345 55.5512 33.4619C55.2798 32.6063 54.734 31.8633 53.9978 31.3468C53.2616 30.8304 52.3756 30.5691 51.476 30.6032C50.6292 30.5522 49.7858 30.7478 49.0487 31.1664C48.3116 31.5849 47.7127 32.2082 47.3249 32.9602C46.9802 33.6598 46.7509 34.4098 46.6458 35.1821Z" fill="#9999FF"/>
</g>
</g>
<defs>
<clipPath id="clip0_1512_313">
<rect width="72" height="72" rx="15" fill="white"/>
</clipPath>
<clipPath id="clip1_1512_313">
<rect width="75" height="73" fill="white" transform="translate(-2 -1)"/>
</clipPath>
</defs>
</svg>
