<svg width="72" height="72" viewBox="0 0 72 72" fill="none" xmlns="http://www.w3.org/2000/svg">
<g clip-path="url(#clip0_1512_318)">
<g clip-path="url(#clip1_1512_318)">
<path d="M60.7148 0H11.2852C4.50025 0 -1 5.48004 -1 12.24V59.6448C-1 66.4048 4.50025 71.8848 11.2852 71.8848H60.7148C67.4997 71.8848 73 66.4048 73 59.6448V12.24C73 5.48004 67.4997 0 60.7148 0Z" fill="#330000"/>
<path d="M34.8596 43.1392H23.3925L21.0592 50.3602C21.0275 50.4919 20.9506 50.6084 20.8418 50.6897C20.7331 50.771 20.5993 50.8119 20.4635 50.8054H14.6553C14.3244 50.8054 14.2084 50.624 14.3079 50.2611L24.2363 21.7727C24.3355 21.4761 24.4349 21.1383 24.534 20.759C24.6641 20.0989 24.7306 19.4284 24.7326 18.7559C24.7259 18.7089 24.7302 18.6609 24.7453 18.6158C24.7603 18.5708 24.7857 18.5298 24.8194 18.4962C24.8531 18.4626 24.8942 18.4372 24.9395 18.4222C24.9847 18.4071 25.0329 18.4028 25.0801 18.4095H32.9732C33.2045 18.4095 33.3369 18.4921 33.3704 18.6571L44.6389 50.3106C44.7384 50.6407 44.6389 50.8057 44.3412 50.8054H37.8876C37.7768 50.8177 37.6652 50.7893 37.5739 50.7256C37.4825 50.6619 37.4176 50.5672 37.3913 50.4593L34.8596 43.1392ZM25.1795 36.9074H33.0229L32.9111 36.5396L32.7316 35.9573L32.6035 35.5483L32.3991 34.9044L31.9647 33.5488L31.5825 32.3469L30.5902 29.2164C30.3432 28.4382 30.1061 27.6569 29.8791 26.8726L29.6976 26.2362L29.4854 25.4836L29.1616 24.3172L29.1009 24.0975H29.0515C28.8031 25.2846 28.5007 26.4599 28.145 27.6197L27.4085 29.9802L27.0032 31.2842L26.5942 32.6044C26.5202 32.8429 26.4468 33.0787 26.3731 33.3117L26.1534 34.0024L25.9348 34.6769L25.7175 35.3347L25.5012 35.976C25.4296 36.1871 25.3579 36.3954 25.2865 36.601L25.1795 36.9074ZM51.34 23.6522C50.8337 23.6725 50.3288 23.586 49.8583 23.3985C49.3878 23.211 48.9624 22.9267 48.6098 22.5642C48.2581 22.1859 47.985 21.742 47.806 21.2582C47.6271 20.7744 47.5459 20.2601 47.5671 19.7449C47.5491 19.2349 47.6393 18.7268 47.8318 18.2539C48.0242 17.781 48.3146 17.3538 48.6841 17.0003C49.3966 16.3188 50.3456 15.9374 51.3333 15.9355L51.4391 15.9367C52.6306 15.9367 53.5657 16.2909 54.2442 17C54.5866 17.3684 54.8527 17.8005 55.0273 18.2715C55.2019 18.7425 55.2816 19.2432 55.2617 19.7449C55.2825 20.2622 55.1987 20.7783 55.0154 21.2626C54.8321 21.747 54.5529 22.1897 54.1945 22.5644C53.8326 22.9198 53.403 23.1995 52.931 23.3869C52.459 23.5744 51.9541 23.6659 51.4461 23.656L51.34 23.6522ZM47.9146 50.3106V26.6693C47.9146 26.3727 48.0464 26.2241 48.3117 26.2241H54.4179C54.6824 26.2241 54.8148 26.3724 54.8151 26.6693V50.3106C54.8151 50.6407 54.6827 50.8057 54.4179 50.8054H48.3615C48.0793 50.8054 47.9308 50.6574 47.916 50.3613L47.9146 50.3106Z" fill="#FF9A00"/>
</g>
</g>
<defs>
<clipPath id="clip0_1512_318">
<rect width="72" height="72" rx="15" fill="white"/>
</clipPath>
<clipPath id="clip1_1512_318">
<rect width="74" height="72" fill="white" transform="translate(-1)"/>
</clipPath>
</defs>
</svg>
