<svg width="451" height="57" viewBox="0 0 451 57" fill="none" xmlns="http://www.w3.org/2000/svg">
<path d="M17.5487 43.8673L32.9038 50.4637L21.7008 42.5633C25.5429 31.1022 27.6789 24.7184 30.1618 16.4076L25.6179 19.7059C21.7829 28.8562 20.3352 34.2795 17.5487 43.8673Z" fill="#F4BC41"/>
<path d="M61.4204 43.9103L46.0653 50.4637C50.0398 47.1349 52.4788 45.407 57.2683 42.6149C53.4262 31.2285 55.7014 38.0427 52.9594 29.8891L56.0932 24.0977C58.2083 34.2326 58.6339 34.3852 61.4204 43.9103Z" fill="#F4BC41"/>
<path d="M8.77434 48.0622C18.5884 48.6042 23.5897 49.6749 31.807 52.6609C25.3281 48.8346 21.3385 47.1233 12.9552 45.6095C17.2881 32.6429 19.9141 24.8885 21.0888 19.7034C15.0896 21.4224 12.8811 31.4663 8.77434 48.0622Z" fill="#2F08F1"/>
<path d="M69.098 48.0622C59.2839 48.6042 54.2826 49.6749 46.0653 52.6609C52.5442 48.8346 56.5338 47.1233 64.9171 45.6095C60.5842 32.6429 57.9582 24.8885 56.7835 19.7034C62.7827 21.4224 64.9912 31.4663 69.098 48.0622Z" fill="#2F08F1"/>
<path d="M0 55.1674C1.92555 47.7534 3.26887 41.4706 4.83194 36.0058C6.15311 31.3868 8.60686 27.1267 12.3306 24.0977C10.1491 33.4132 8.24407 39.6108 5.0352 50.1725C4.92487 50.5357 5.20921 50.9013 5.58785 50.8857C16.562 50.4349 22.4708 51.5523 31.9904 55.2966C32.1584 55.3626 32.3513 55.3426 32.5013 55.2421C35.3481 53.3314 36.8786 52.4182 38.5506 51.9961C38.6984 51.9588 38.8532 51.9566 39.0016 51.9912C40.7797 52.4063 42.1813 53.4994 44.4135 55.2404L44.5626 55.3567C44.7234 55.482 44.9426 55.5067 45.1284 55.4228C52.8955 51.9153 58.3854 50.5839 71.5073 50.974C71.8826 50.9852 72.1644 50.6227 72.0559 50.2627C69.0142 40.1717 67.1565 34.2682 64.5225 24.0977C67.0209 25.6799 68.3407 26.6489 69.951 29.1317C71.201 31.6825 73.1007 39.5661 76.7755 55.1674C63.5819 53.6772 56.4494 54.0383 44.492 56.984C44.3138 57.0278 44.1225 56.9804 43.9867 56.8568C41.696 54.7727 40.4915 53.874 39.0907 53.3825C38.8867 53.3109 38.6641 53.312 38.4588 53.3794C36.4116 54.0519 35.1302 55.024 33.0219 56.8646C32.8855 56.9837 32.6963 57.0274 32.5209 56.9826C20.1124 53.8109 12.9439 53.3781 0 55.1674Z" fill="black"/>
<path d="M27.4198 44.9708C40.2544 34.678 55.9324 33.6869 54.7797 20.802C47.248 33.3167 35.0283 32.467 27.4198 44.9708Z" fill="#F4BC41"/>
<path d="M27.4198 43.8722C37.264 28.9509 56.7044 27.0389 51.8931 3.22463C51.2621 26.8828 29.786 27.4754 27.4198 43.8722Z" fill="#F4BC41"/>
<path d="M46.0653 7.61896L46.3616 8.42082L47.1621 8.71754L46.3616 9.01426L46.0653 9.81612L45.7691 9.01426L44.9685 8.71754L45.7691 8.42082L46.0653 7.61896Z" fill="#F4BC41"/>
<path d="M50.5144 0L51.6733 0.537866L52.8321 0L52.2993 1.16975L52.8321 2.3395L51.6733 1.80162L50.5144 2.3395L51.0473 1.16975L50.5144 0Z" fill="#F4BC41"/>
<path d="M56.4848 10.9147L56.9292 12.1175L58.13 12.5626L56.9292 13.0076L56.4848 14.2105L56.0405 13.0076L54.8396 12.5626L56.0405 12.1175L56.4848 10.9147Z" fill="#F4BC41"/>
<path d="M37.8394 21.9005C39.9595 21.9005 41.6781 19.6872 41.6781 16.9569C41.6781 14.2266 39.9595 12.0133 37.8394 12.0133C35.7193 12.0133 34.0006 14.2266 34.0006 16.9569C34.0006 19.6872 35.7193 21.9005 37.8394 21.9005Z" fill="#F4BC41"/>
<path d="M434.256 56.9902C431.081 56.9902 428.042 56.5449 425.138 55.6544C422.234 54.7251 419.93 53.5442 418.227 52.1116L420.84 46.2457C422.466 47.5234 424.48 48.5882 426.88 49.44C429.281 50.2918 431.739 50.7177 434.256 50.7177C436.386 50.7177 438.109 50.4854 439.425 50.0208C440.742 49.5561 441.71 48.9366 442.329 48.1623C442.949 47.3492 443.258 46.4393 443.258 45.4326C443.258 44.1936 442.813 43.2063 441.922 42.4706C441.032 41.6962 439.87 41.0961 438.438 40.6702C437.044 40.2056 435.476 39.7796 433.733 39.3925C432.03 39.0053 430.307 38.56 428.564 38.0567C426.861 37.5146 425.293 36.837 423.86 36.0239C422.466 35.1721 421.324 34.0493 420.434 32.6554C419.543 31.2615 419.098 29.4804 419.098 27.3122C419.098 25.1052 419.679 23.0918 420.84 21.272C422.04 19.4135 423.841 17.9422 426.241 16.8581C428.681 15.7353 431.759 15.1738 435.476 15.1738C437.915 15.1738 440.335 15.4836 442.736 16.1031C445.136 16.7226 447.227 17.6131 449.008 18.7747L446.627 24.6406C444.807 23.5565 442.929 22.7627 440.993 22.2594C439.057 21.7173 437.199 21.4463 435.418 21.4463C433.327 21.4463 431.623 21.6979 430.307 22.2013C429.029 22.7046 428.08 23.3629 427.461 24.176C426.88 24.9891 426.59 25.9183 426.59 26.9637C426.59 28.2027 427.016 29.2094 427.868 29.9838C428.758 30.7194 429.9 31.3002 431.294 31.7261C432.727 32.152 434.314 32.5779 436.057 33.0038C437.799 33.391 439.522 33.8363 441.226 34.3396C442.968 34.843 444.536 35.5012 445.93 36.3143C447.362 37.1274 448.505 38.2309 449.356 39.6248C450.247 41.0186 450.692 42.7804 450.692 44.9099C450.692 47.0781 450.092 49.0915 448.892 50.95C447.73 52.7698 445.93 54.2411 443.491 55.364C441.051 56.4481 437.973 56.9902 434.256 56.9902Z" fill="black"/>
<path d="M377.438 56.4067V15.752H394.164C397.765 15.752 400.843 16.3327 403.398 17.4943C405.993 18.6559 407.987 20.3208 409.381 22.489C410.774 24.6573 411.471 27.2321 411.471 30.2134C411.471 33.1948 410.774 35.7696 409.381 37.9378C407.987 40.0674 405.993 41.7129 403.398 42.8745C400.843 43.9973 397.765 44.5588 394.164 44.5588H381.619L384.988 41.1321V56.4067H377.438ZM404.037 56.4067L393.757 41.6548H401.83L412.168 56.4067H404.037ZM384.988 41.9452L381.619 38.3444H393.816C397.145 38.3444 399.643 37.6281 401.308 36.1955C403.011 34.7629 403.863 32.7689 403.863 30.2134C403.863 27.6193 403.011 25.6253 401.308 24.2314C399.643 22.8375 397.145 22.1406 393.816 22.1406H381.619L384.988 18.4236V41.9452Z" fill="black"/>
<path d="M343.753 32.6527H363.964V38.8671H343.753V32.6527ZM344.333 50.0762H367.274V56.4067H336.783V15.752H366.461V22.0825H344.333V50.0762Z" fill="black"/>
<path d="M293.465 56.4067V15.752H310.191C313.792 15.752 316.87 16.3327 319.426 17.4943C322.02 18.6559 324.014 20.3208 325.408 22.489C326.802 24.6573 327.499 27.2321 327.499 30.2134C327.499 33.1948 326.802 35.7696 325.408 37.9378C324.014 40.1061 322.02 41.771 319.426 42.9326C316.87 44.0941 313.792 44.6749 310.191 44.6749H297.646L301.015 41.1321V56.4067H293.465ZM301.015 41.9452L297.646 38.2863H309.843C313.173 38.2863 315.67 37.5894 317.335 36.1955C319.039 34.7629 319.89 32.7689 319.89 30.2134C319.89 27.6193 319.039 25.6253 317.335 24.2314C315.67 22.8375 313.173 22.1406 309.843 22.1406H297.646L301.015 18.4236V41.9452Z" fill="black"/>
<path d="M256.957 56.4067V15.752H264.507V50.0181H285.764V56.4067H256.957Z" fill="black"/>
<path d="M223.278 32.6527H243.489V38.8671H223.278V32.6527ZM223.859 50.0762H246.8V56.4067H216.309V15.752H245.987V22.0825H223.859V50.0762Z" fill="black"/>
<path d="M196.125 15.752H203.675V56.4067H196.125V15.752ZM175.101 56.4067H167.551V15.752H175.101V56.4067ZM196.706 38.9832H174.462V32.5366H196.706V38.9832Z" fill="black"/>
<path d="M141.508 56.9875C138.914 56.9875 136.513 56.4842 134.306 55.4775C132.138 54.4708 130.357 53.0188 128.963 51.1216L133.261 45.9526C134.384 47.5014 135.603 48.6629 136.92 49.4373C138.275 50.2117 139.746 50.5989 141.334 50.5989C145.554 50.5989 147.664 48.1015 147.664 43.1068V22.0825H133.203V15.752H155.214V42.7003C155.214 47.5014 154.033 51.0829 151.671 53.4447C149.348 55.8066 145.96 56.9875 141.508 56.9875Z" fill="black"/>
<path d="M107.31 56.4067V22.1406H93.8359V15.752H128.334V22.1406H114.86V56.4067H107.31Z" fill="black"/>
</svg>
