<svg width="72" height="72" viewBox="0 0 72 72" fill="none" xmlns="http://www.w3.org/2000/svg">
<rect width="72" height="72" rx="15" fill="#202020"/>
<g clip-path="url(#clip0_1512_302)">
<path d="M28.25 61.0007C32.804 61.0007 36.5 57.2673 36.5 52.6673V44.334H28.25C23.696 44.334 20 48.0673 20 52.6673C20 57.2673 23.696 61.0007 28.25 61.0007Z" fill="#0ACF83"/>
<path d="M20 35.9993C20 31.3993 23.696 27.666 28.25 27.666H36.5V44.3327H28.25C23.696 44.3327 20 40.5993 20 35.9993Z" fill="#A259FF"/>
<path d="M20 19.3333C20 14.7333 23.696 11 28.25 11H36.5V27.6667H28.25C23.696 27.6667 20 23.9333 20 19.3333Z" fill="#F24E1E"/>
<path d="M36.5 11H44.75C49.304 11 53 14.7333 53 19.3333C53 23.9333 49.304 27.6667 44.75 27.6667H36.5V11Z" fill="#FF7262"/>
<path d="M53 35.9993C53 40.5993 49.304 44.3327 44.75 44.3327C40.196 44.3327 36.5 40.5993 36.5 35.9993C36.5 31.3993 40.196 27.666 44.75 27.666C49.304 27.666 53 31.3993 53 35.9993Z" fill="#1ABCFE"/>
</g>
<defs>
<clipPath id="clip0_1512_302">
<rect width="33" height="50" fill="white" transform="translate(20 11)"/>
</clipPath>
</defs>
</svg>
