<svg width="72" height="72" viewBox="0 0 72 72" fill="none" xmlns="http://www.w3.org/2000/svg">
<rect width="72" height="72" rx="15" fill="white"/>
<path d="M28.3574 41.508V23.208L42.578 14.9984C50.4572 10.4488 64.5635 21.6703 58.6414 31.9386" stroke="black" stroke-linejoin="round"/>
<path d="M28.3574 32.6109L44.2047 23.4609L58.4253 31.6705C66.3045 36.2201 63.6358 54.0499 51.7789 54.0499" stroke="black" stroke-linejoin="round"/>
<path d="M36.0588 28.1641L51.9061 37.3141V53.7459C51.9061 62.8451 35.1311 69.4534 29.209 59.1851" stroke="black" stroke-linejoin="round"/>
<path d="M43.7601 32.9414V50.911L29.5394 59.1206C21.6603 63.6702 7.55401 52.4487 13.4761 42.1804" stroke="black" stroke-linejoin="round"/>
<path d="M43.7607 41.5073L27.9134 50.6573L13.6928 42.4477C5.80093 37.8854 8.46968 20.0684 20.3266 20.0684" stroke="black" stroke-linejoin="round"/>
<path d="M36.0582 45.9548L20.2109 36.8048V20.3729C20.2109 11.2737 36.9859 4.6654 42.908 14.9337" stroke="black" stroke-linejoin="round"/>
</svg>
