<svg width="265" height="311" viewBox="0 0 265 311" fill="none" xmlns="http://www.w3.org/2000/svg">
<path d="M102.097 306V294.364H103.506V304.75H108.915V306H102.097ZM114.46 306.182C113.672 306.182 112.981 305.994 112.386 305.619C111.795 305.244 111.333 304.72 111 304.045C110.67 303.371 110.506 302.583 110.506 301.682C110.506 300.773 110.67 299.979 111 299.301C111.333 298.623 111.795 298.097 112.386 297.722C112.981 297.347 113.672 297.159 114.46 297.159C115.248 297.159 115.938 297.347 116.528 297.722C117.123 298.097 117.585 298.623 117.915 299.301C118.248 299.979 118.415 300.773 118.415 301.682C118.415 302.583 118.248 303.371 117.915 304.045C117.585 304.72 117.123 305.244 116.528 305.619C115.938 305.994 115.248 306.182 114.46 306.182ZM114.46 304.977C115.059 304.977 115.551 304.824 115.938 304.517C116.324 304.21 116.61 303.807 116.795 303.307C116.981 302.807 117.074 302.265 117.074 301.682C117.074 301.098 116.981 300.555 116.795 300.051C116.61 299.547 116.324 299.14 115.938 298.83C115.551 298.519 115.059 298.364 114.46 298.364C113.862 298.364 113.369 298.519 112.983 298.83C112.597 299.14 112.311 299.547 112.125 300.051C111.939 300.555 111.847 301.098 111.847 301.682C111.847 302.265 111.939 302.807 112.125 303.307C112.311 303.807 112.597 304.21 112.983 304.517C113.369 304.824 113.862 304.977 114.46 304.977ZM123.984 309.455C123.337 309.455 122.78 309.371 122.314 309.205C121.848 309.042 121.46 308.826 121.149 308.557C120.842 308.292 120.598 308.008 120.416 307.705L121.484 306.955C121.606 307.114 121.759 307.295 121.945 307.5C122.13 307.708 122.384 307.888 122.706 308.04C123.032 308.195 123.458 308.273 123.984 308.273C124.689 308.273 125.27 308.102 125.729 307.761C126.187 307.42 126.416 306.886 126.416 306.159V304.386H126.303C126.204 304.545 126.064 304.742 125.882 304.977C125.704 305.208 125.446 305.415 125.109 305.597C124.776 305.775 124.325 305.864 123.757 305.864C123.053 305.864 122.42 305.697 121.859 305.364C121.303 305.03 120.861 304.545 120.536 303.909C120.214 303.273 120.053 302.5 120.053 301.591C120.053 300.697 120.21 299.919 120.524 299.256C120.839 298.589 121.276 298.074 121.837 297.71C122.397 297.343 123.045 297.159 123.78 297.159C124.348 297.159 124.799 297.254 125.132 297.443C125.469 297.629 125.727 297.841 125.905 298.08C126.087 298.314 126.227 298.508 126.325 298.659H126.462V297.273H127.757V306.25C127.757 307 127.587 307.61 127.246 308.08C126.909 308.553 126.454 308.9 125.882 309.119C125.314 309.343 124.681 309.455 123.984 309.455ZM123.939 304.659C124.477 304.659 124.931 304.536 125.303 304.29C125.674 304.044 125.956 303.689 126.149 303.227C126.342 302.765 126.439 302.212 126.439 301.568C126.439 300.939 126.344 300.384 126.155 299.903C125.965 299.422 125.685 299.045 125.314 298.773C124.943 298.5 124.484 298.364 123.939 298.364C123.371 298.364 122.897 298.508 122.518 298.795C122.143 299.083 121.861 299.47 121.672 299.955C121.486 300.439 121.393 300.977 121.393 301.568C121.393 302.174 121.488 302.71 121.678 303.176C121.871 303.638 122.155 304.002 122.53 304.267C122.909 304.528 123.378 304.659 123.939 304.659ZM133.757 306.182C132.969 306.182 132.278 305.994 131.683 305.619C131.092 305.244 130.63 304.72 130.297 304.045C129.967 303.371 129.803 302.583 129.803 301.682C129.803 300.773 129.967 299.979 130.297 299.301C130.63 298.623 131.092 298.097 131.683 297.722C132.278 297.347 132.969 297.159 133.757 297.159C134.545 297.159 135.234 297.347 135.825 297.722C136.42 298.097 136.882 298.623 137.212 299.301C137.545 299.979 137.712 300.773 137.712 301.682C137.712 302.583 137.545 303.371 137.212 304.045C136.882 304.72 136.42 305.244 135.825 305.619C135.234 305.994 134.545 306.182 133.757 306.182ZM133.757 304.977C134.356 304.977 134.848 304.824 135.234 304.517C135.621 304.21 135.907 303.807 136.092 303.307C136.278 302.807 136.371 302.265 136.371 301.682C136.371 301.098 136.278 300.555 136.092 300.051C135.907 299.547 135.621 299.14 135.234 298.83C134.848 298.519 134.356 298.364 133.757 298.364C133.159 298.364 132.666 298.519 132.28 298.83C131.893 299.14 131.607 299.547 131.422 300.051C131.236 300.555 131.143 301.098 131.143 301.682C131.143 302.265 131.236 302.807 131.422 303.307C131.607 303.807 131.893 304.21 132.28 304.517C132.666 304.824 133.159 304.977 133.757 304.977ZM143.554 297.273V298.409H139.031V297.273H143.554ZM140.349 295.182H141.69V303.5C141.69 303.879 141.745 304.163 141.855 304.352C141.969 304.538 142.113 304.663 142.287 304.727C142.465 304.788 142.652 304.818 142.849 304.818C142.997 304.818 143.118 304.811 143.213 304.795C143.308 304.777 143.384 304.761 143.44 304.75L143.713 305.955C143.622 305.989 143.495 306.023 143.332 306.057C143.17 306.095 142.963 306.114 142.713 306.114C142.334 306.114 141.963 306.032 141.599 305.869C141.24 305.706 140.94 305.458 140.702 305.125C140.467 304.792 140.349 304.371 140.349 303.864V295.182ZM146.435 309.273C146.207 309.273 146.005 309.254 145.827 309.216C145.649 309.182 145.526 309.148 145.457 309.114L145.798 307.932C146.124 308.015 146.412 308.045 146.662 308.023C146.912 308 147.134 307.888 147.327 307.688C147.524 307.491 147.704 307.17 147.866 306.727L148.116 306.045L144.889 297.273H146.344L148.753 304.227H148.844L151.253 297.273H152.707L149.003 307.273C148.836 307.723 148.63 308.097 148.384 308.392C148.137 308.691 147.851 308.913 147.526 309.057C147.204 309.201 146.84 309.273 146.435 309.273ZM154.477 309.273V297.273H155.773V298.659H155.932C156.03 298.508 156.167 298.314 156.341 298.08C156.519 297.841 156.773 297.629 157.102 297.443C157.436 297.254 157.886 297.159 158.455 297.159C159.189 297.159 159.837 297.343 160.398 297.71C160.958 298.078 161.396 298.598 161.71 299.273C162.025 299.947 162.182 300.742 162.182 301.659C162.182 302.583 162.025 303.384 161.71 304.062C161.396 304.737 160.96 305.259 160.403 305.631C159.847 305.998 159.205 306.182 158.477 306.182C157.917 306.182 157.468 306.089 157.131 305.903C156.794 305.714 156.534 305.5 156.352 305.261C156.17 305.019 156.03 304.818 155.932 304.659H155.818V309.273H154.477ZM155.795 301.636C155.795 302.295 155.892 302.877 156.085 303.381C156.278 303.881 156.561 304.273 156.932 304.557C157.303 304.837 157.758 304.977 158.295 304.977C158.856 304.977 159.324 304.83 159.699 304.534C160.078 304.235 160.362 303.833 160.551 303.33C160.744 302.822 160.841 302.258 160.841 301.636C160.841 301.023 160.746 300.47 160.557 299.977C160.371 299.481 160.089 299.089 159.71 298.801C159.335 298.509 158.864 298.364 158.295 298.364C157.75 298.364 157.292 298.502 156.92 298.778C156.549 299.051 156.269 299.434 156.08 299.926C155.89 300.415 155.795 300.985 155.795 301.636ZM167.886 306.182C167.045 306.182 166.32 305.996 165.71 305.625C165.104 305.25 164.636 304.727 164.307 304.057C163.981 303.383 163.818 302.598 163.818 301.705C163.818 300.811 163.981 300.023 164.307 299.341C164.636 298.655 165.095 298.121 165.682 297.739C166.273 297.352 166.962 297.159 167.75 297.159C168.205 297.159 168.653 297.235 169.097 297.386C169.54 297.538 169.943 297.784 170.307 298.125C170.67 298.462 170.96 298.909 171.176 299.466C171.392 300.023 171.5 300.708 171.5 301.523V302.091H164.773V300.932H170.136C170.136 300.439 170.038 300 169.841 299.614C169.648 299.227 169.371 298.922 169.011 298.699C168.655 298.475 168.235 298.364 167.75 298.364C167.216 298.364 166.754 298.496 166.364 298.761C165.977 299.023 165.68 299.364 165.472 299.784C165.263 300.205 165.159 300.655 165.159 301.136V301.909C165.159 302.568 165.273 303.127 165.5 303.585C165.731 304.04 166.051 304.386 166.46 304.625C166.869 304.86 167.345 304.977 167.886 304.977C168.239 304.977 168.557 304.928 168.841 304.83C169.129 304.727 169.377 304.576 169.585 304.375C169.794 304.17 169.955 303.917 170.068 303.614L171.364 303.977C171.227 304.417 170.998 304.803 170.676 305.136C170.354 305.466 169.956 305.723 169.483 305.909C169.009 306.091 168.477 306.182 167.886 306.182Z" fill="#211F54"/>
<path d="M18 257V275" stroke="#A0A3BD" stroke-width="2" stroke-linecap="round"/>
<path d="M249 275L18.0002 275" stroke="#A0A3BD" stroke-width="2" stroke-linecap="round"/>
<path d="M249 257V275" stroke="#A0A3BD" stroke-width="2" stroke-linecap="round"/>
<path d="M18 247H249" stroke="#6E7191" stroke-linecap="round" stroke-dasharray="1 4"/>
<path d="M18 201H249" stroke="#6E7191" stroke-linecap="round" stroke-dasharray="1 4"/>
<path d="M18 173L18 247" stroke="#6E7191" stroke-linecap="round" stroke-dasharray="1 4"/>
<path d="M249 174V247" stroke="#6E7191" stroke-linecap="round" stroke-dasharray="1 4"/>
<path d="M18 221H249" stroke="#6E7191" stroke-linecap="round" stroke-dasharray="1 4"/>
<path d="M18 32L18 201" stroke="#6E7191" stroke-linecap="round" stroke-dasharray="1 4"/>
<path d="M249 32L249 201" stroke="#6E7191" stroke-linecap="round" stroke-dasharray="1 4"/>
<path d="M54.1416 32H212.859" stroke="#6E7191" stroke-linecap="round" stroke-dasharray="1 4"/>
<path d="M54.1416 201H212.859" stroke="#6E7191" stroke-linecap="round" stroke-dasharray="1 4"/>
<path d="M97.7841 15V3.36364H99.1932V13.75H104.602V15H97.7841ZM110.148 15.1818C109.36 15.1818 108.669 14.9943 108.074 14.6193C107.483 14.2443 107.021 13.7197 106.688 13.0455C106.358 12.3712 106.193 11.5833 106.193 10.6818C106.193 9.77273 106.358 8.97917 106.688 8.30114C107.021 7.62311 107.483 7.09659 108.074 6.72159C108.669 6.34659 109.36 6.15909 110.148 6.15909C110.936 6.15909 111.625 6.34659 112.216 6.72159C112.811 7.09659 113.273 7.62311 113.602 8.30114C113.936 8.97917 114.102 9.77273 114.102 10.6818C114.102 11.5833 113.936 12.3712 113.602 13.0455C113.273 13.7197 112.811 14.2443 112.216 14.6193C111.625 14.9943 110.936 15.1818 110.148 15.1818ZM110.148 13.9773C110.746 13.9773 111.239 13.8239 111.625 13.517C112.011 13.2102 112.297 12.8068 112.483 12.3068C112.669 11.8068 112.761 11.2652 112.761 10.6818C112.761 10.0985 112.669 9.55492 112.483 9.05114C112.297 8.54735 112.011 8.14015 111.625 7.82955C111.239 7.51894 110.746 7.36364 110.148 7.36364C109.549 7.36364 109.057 7.51894 108.67 7.82955C108.284 8.14015 107.998 8.54735 107.812 9.05114C107.627 9.55492 107.534 10.0985 107.534 10.6818C107.534 11.2652 107.627 11.8068 107.812 12.3068C107.998 12.8068 108.284 13.2102 108.67 13.517C109.057 13.8239 109.549 13.9773 110.148 13.9773ZM119.672 18.4545C119.024 18.4545 118.467 18.3712 118.001 18.2045C117.536 18.0417 117.147 17.8258 116.837 17.5568C116.53 17.2917 116.286 17.0076 116.104 16.7045L117.172 15.9545C117.293 16.1136 117.446 16.2955 117.632 16.5C117.818 16.7083 118.071 16.8883 118.393 17.0398C118.719 17.1951 119.145 17.2727 119.672 17.2727C120.376 17.2727 120.958 17.1023 121.416 16.7614C121.875 16.4205 122.104 15.8864 122.104 15.1591V13.3864H121.99C121.892 13.5455 121.751 13.7424 121.57 13.9773C121.392 14.2083 121.134 14.4148 120.797 14.5966C120.464 14.7746 120.013 14.8636 119.445 14.8636C118.74 14.8636 118.107 14.697 117.547 14.3636C116.99 14.0303 116.549 13.5455 116.223 12.9091C115.901 12.2727 115.74 11.5 115.74 10.5909C115.74 9.69697 115.897 8.91856 116.212 8.25568C116.526 7.58901 116.964 7.07386 117.524 6.71023C118.085 6.3428 118.732 6.15909 119.467 6.15909C120.036 6.15909 120.486 6.25379 120.82 6.44318C121.157 6.62879 121.414 6.84091 121.592 7.07955C121.774 7.31439 121.914 7.50758 122.013 7.65909H122.149V6.27273H123.445V15.25C123.445 16 123.274 16.6098 122.933 17.0795C122.596 17.553 122.142 17.8996 121.57 18.1193C121.001 18.3428 120.369 18.4545 119.672 18.4545ZM119.626 13.6591C120.164 13.6591 120.619 13.536 120.99 13.2898C121.361 13.0436 121.643 12.6894 121.837 12.2273C122.03 11.7652 122.126 11.2121 122.126 10.5682C122.126 9.93939 122.032 9.38447 121.842 8.90341C121.653 8.42235 121.373 8.04545 121.001 7.77273C120.63 7.5 120.172 7.36364 119.626 7.36364C119.058 7.36364 118.585 7.50758 118.206 7.79545C117.831 8.08333 117.549 8.4697 117.359 8.95455C117.174 9.43939 117.081 9.97727 117.081 10.5682C117.081 11.1742 117.176 11.7102 117.365 12.1761C117.558 12.6383 117.842 13.0019 118.217 13.267C118.596 13.5284 119.066 13.6591 119.626 13.6591ZM129.445 15.1818C128.657 15.1818 127.965 14.9943 127.371 14.6193C126.78 14.2443 126.318 13.7197 125.984 13.0455C125.655 12.3712 125.49 11.5833 125.49 10.6818C125.49 9.77273 125.655 8.97917 125.984 8.30114C126.318 7.62311 126.78 7.09659 127.371 6.72159C127.965 6.34659 128.657 6.15909 129.445 6.15909C130.232 6.15909 130.922 6.34659 131.513 6.72159C132.107 7.09659 132.57 7.62311 132.899 8.30114C133.232 8.97917 133.399 9.77273 133.399 10.6818C133.399 11.5833 133.232 12.3712 132.899 13.0455C132.57 13.7197 132.107 14.2443 131.513 14.6193C130.922 14.9943 130.232 15.1818 129.445 15.1818ZM129.445 13.9773C130.043 13.9773 130.536 13.8239 130.922 13.517C131.308 13.2102 131.594 12.8068 131.78 12.3068C131.965 11.8068 132.058 11.2652 132.058 10.6818C132.058 10.0985 131.965 9.55492 131.78 9.05114C131.594 8.54735 131.308 8.14015 130.922 7.82955C130.536 7.51894 130.043 7.36364 129.445 7.36364C128.846 7.36364 128.354 7.51894 127.967 7.82955C127.581 8.14015 127.295 8.54735 127.109 9.05114C126.924 9.55492 126.831 10.0985 126.831 10.6818C126.831 11.2652 126.924 11.8068 127.109 12.3068C127.295 12.8068 127.581 13.2102 127.967 13.517C128.354 13.8239 128.846 13.9773 129.445 13.9773ZM140.128 3.36364H141.81L145.764 13.0227H145.901L149.855 3.36364H151.537V15H150.219V6.15909H150.105L146.469 15H145.196L141.56 6.15909H141.446V15H140.128V3.36364ZM156.749 15.2045C156.196 15.2045 155.694 15.1004 155.243 14.892C154.792 14.6799 154.434 14.375 154.169 13.9773C153.904 13.5758 153.771 13.0909 153.771 12.5227C153.771 12.0227 153.87 11.6174 154.067 11.3068C154.264 10.9924 154.527 10.7462 154.857 10.5682C155.186 10.3902 155.55 10.2576 155.947 10.1705C156.349 10.0795 156.752 10.0076 157.158 9.95455C157.688 9.88636 158.118 9.83523 158.447 9.80114C158.781 9.76326 159.023 9.70076 159.175 9.61364C159.33 9.52652 159.408 9.375 159.408 9.15909V9.11364C159.408 8.55303 159.254 8.11742 158.947 7.80682C158.644 7.49621 158.184 7.34091 157.567 7.34091C156.927 7.34091 156.425 7.48106 156.061 7.76136C155.697 8.04167 155.442 8.34091 155.294 8.65909L154.021 8.20455C154.249 7.67424 154.552 7.26136 154.93 6.96591C155.313 6.66667 155.73 6.45833 156.18 6.34091C156.635 6.2197 157.082 6.15909 157.521 6.15909C157.802 6.15909 158.124 6.19318 158.487 6.26136C158.855 6.32576 159.209 6.46023 159.55 6.66477C159.894 6.86932 160.18 7.17803 160.408 7.59091C160.635 8.00379 160.749 8.55682 160.749 9.25V15H159.408V13.8182H159.339C159.249 14.0076 159.097 14.2102 158.885 14.4261C158.673 14.642 158.391 14.8258 158.038 14.9773C157.686 15.1288 157.256 15.2045 156.749 15.2045ZM156.953 14C157.483 14 157.93 13.8958 158.294 13.6875C158.661 13.4792 158.938 13.2102 159.124 12.8807C159.313 12.5511 159.408 12.2045 159.408 11.8409V10.6136C159.351 10.6818 159.226 10.7443 159.033 10.8011C158.843 10.8542 158.624 10.9015 158.374 10.9432C158.127 10.9811 157.887 11.0152 157.652 11.0455C157.421 11.072 157.233 11.0947 157.089 11.1136C156.741 11.1591 156.415 11.233 156.112 11.3352C155.813 11.4337 155.571 11.5833 155.385 11.7841C155.203 11.9811 155.112 12.25 155.112 12.5909C155.112 13.0568 155.285 13.4091 155.629 13.6477C155.978 13.8826 156.419 14 156.953 14ZM163.196 15V6.27273H164.491V7.59091H164.582C164.741 7.15909 165.029 6.80871 165.446 6.53977C165.863 6.27083 166.332 6.13636 166.855 6.13636C166.954 6.13636 167.077 6.13826 167.224 6.14205C167.372 6.14583 167.484 6.15152 167.56 6.15909V7.52273C167.514 7.51136 167.41 7.49432 167.247 7.47159C167.088 7.44508 166.92 7.43182 166.741 7.43182C166.317 7.43182 165.938 7.52083 165.605 7.69886C165.276 7.87311 165.014 8.11553 164.821 8.42614C164.632 8.73295 164.537 9.08333 164.537 9.47727V15H163.196ZM170.399 11.8182L170.376 10.1591H170.649L174.467 6.27273H176.126L172.058 10.3864H171.945L170.399 11.8182ZM169.149 15V3.36364H170.49V15H169.149ZM174.695 15L171.286 10.6818L172.24 9.75L176.399 15H174.695Z" fill="#211F54"/>
<path d="M71.0992 162.235L116.686 181.819L83.4262 158.364C94.8327 124.337 101.174 105.385 108.546 80.7116L95.0555 90.5036C83.6698 117.669 79.3719 133.77 71.0992 162.235Z" fill="#F4BC41"/>
<path d="M201.347 162.363L155.761 181.819C167.56 171.936 174.801 166.806 189.02 158.517C177.614 124.712 184.369 144.943 176.228 120.736L185.532 103.542C191.811 133.631 193.075 134.084 201.347 162.363Z" fill="#F4BC41"/>
<path d="M45.0496 174.689C74.1861 176.298 89.0341 179.477 113.43 188.342C94.1952 176.982 82.3507 171.902 57.4619 167.407C70.3256 128.912 78.1219 105.89 81.6093 90.4961C63.7985 95.5998 57.2418 125.418 45.0496 174.689Z" fill="#2F08F1"/>
<path d="M224.141 174.689C195.004 176.298 180.156 179.477 155.761 188.342C174.995 176.982 186.84 171.902 211.728 167.407C198.865 128.912 191.068 105.89 187.581 90.4961C205.392 95.5998 211.949 125.418 224.141 174.689Z" fill="#2F08F1"/>
<path d="M19 195.783C24.7167 173.772 28.7048 155.119 33.3453 138.895C37.2676 125.182 44.5524 112.535 55.6075 103.542C49.1311 131.199 43.4753 149.598 33.9487 180.954C33.6212 182.032 34.4653 183.118 35.5894 183.071C68.17 181.733 85.7121 185.05 113.974 196.167C114.473 196.363 115.046 196.303 115.491 196.005C123.943 190.332 128.487 187.621 133.451 186.368C133.889 186.257 134.349 186.251 134.79 186.353C140.069 187.586 144.23 190.831 150.857 196L151.299 196.345C151.777 196.717 152.427 196.791 152.979 196.541C176.038 186.128 192.337 182.175 231.294 183.334C232.408 183.367 233.244 182.291 232.922 181.222C223.892 151.263 218.377 133.737 210.557 103.542C217.974 108.239 221.893 111.116 226.673 118.487C230.384 126.06 236.024 149.465 246.934 195.783C207.764 191.359 186.589 192.431 151.089 201.176C150.561 201.306 149.992 201.166 149.589 200.799C142.789 194.611 139.213 191.943 135.054 190.484C134.448 190.271 133.788 190.275 133.178 190.475C127.1 192.471 123.296 195.357 117.037 200.822C116.632 201.175 116.07 201.305 115.549 201.172C78.7106 191.756 57.4284 190.471 19 195.783Z" fill="#111111"/>
<path d="M100.405 165.511C138.509 134.954 185.054 132.011 181.632 93.7577C159.272 130.912 122.993 128.389 100.405 165.511Z" fill="#F4BC41"/>
<path d="M100.405 162.249C129.631 117.951 187.346 112.274 173.062 41.5734C171.189 111.811 107.43 113.57 100.405 162.249Z" fill="#F4BC41"/>
<path d="M155.761 54.6195L156.64 57.0001L159.017 57.881L156.64 58.7619L155.761 61.1425L154.881 58.7619L152.504 57.881L154.881 57.0001L155.761 54.6195Z" fill="#2F08F1"/>
<path d="M168.969 32L172.41 33.5968L175.85 32L174.268 35.4728L175.85 38.9456L172.41 37.3487L168.969 38.9456L170.551 35.4728L168.969 32Z" fill="#2F08F1"/>
<path d="M186.694 64.404L188.014 67.975L191.579 69.2963L188.014 70.6175L186.694 74.1886L185.375 70.6175L181.81 69.2963L185.375 67.975L186.694 64.404Z" fill="#2F08F1"/>
<path d="M131.339 97.0192C137.633 97.0192 142.736 90.4481 142.736 82.3423C142.736 74.2366 137.633 67.6655 131.339 67.6655C125.045 67.6655 119.942 74.2366 119.942 82.3423C119.942 90.4481 125.045 97.0192 131.339 97.0192Z" fill="#F4BC41"/>
<path d="M238.568 248.41C236.51 248.41 234.541 248.122 232.66 247.545C230.778 246.943 229.285 246.177 228.182 245.249L229.875 241.449C230.929 242.276 232.233 242.966 233.789 243.518C235.344 244.07 236.937 244.346 238.568 244.346C239.947 244.346 241.064 244.196 241.917 243.895C242.77 243.594 243.397 243.192 243.798 242.69C244.2 242.164 244.4 241.574 244.4 240.922C244.4 240.119 244.112 239.479 243.535 239.003C242.958 238.501 242.205 238.112 241.277 237.836C240.374 237.535 239.358 237.259 238.229 237.008C237.125 236.757 236.009 236.469 234.88 236.143C233.776 235.792 232.76 235.352 231.832 234.826C230.929 234.274 230.189 233.546 229.612 232.643C229.035 231.74 228.746 230.586 228.746 229.181C228.746 227.751 229.122 226.447 229.875 225.268C230.653 224.063 231.819 223.11 233.375 222.408C234.955 221.68 236.949 221.316 239.358 221.316C240.938 221.316 242.506 221.517 244.062 221.918C245.617 222.32 246.972 222.897 248.126 223.649L246.583 227.45C245.404 226.748 244.187 226.233 242.933 225.907C241.678 225.556 240.474 225.38 239.32 225.38C237.966 225.38 236.862 225.544 236.009 225.87C235.181 226.196 234.566 226.622 234.165 227.149C233.789 227.676 233.6 228.278 233.6 228.955C233.6 229.758 233.876 230.41 234.428 230.912C235.005 231.389 235.745 231.765 236.648 232.041C237.577 232.317 238.605 232.593 239.734 232.869C240.863 233.12 241.979 233.408 243.083 233.734C244.212 234.061 245.228 234.487 246.131 235.014C247.059 235.541 247.8 236.256 248.351 237.159C248.928 238.062 249.217 239.203 249.217 240.583C249.217 241.988 248.828 243.292 248.05 244.497C247.298 245.676 246.131 246.629 244.551 247.357C242.97 248.059 240.976 248.41 238.568 248.41Z" fill="#111111"/>
<path d="M201.748 248.031V221.689H212.586C214.919 221.689 216.913 222.066 218.569 222.818C220.25 223.571 221.542 224.65 222.445 226.055C223.348 227.459 223.799 229.128 223.799 231.059C223.799 232.991 223.348 234.659 222.445 236.064C221.542 237.444 220.25 238.51 218.569 239.263C216.913 239.99 214.919 240.354 212.586 240.354H204.457L206.64 238.134V248.031H201.748ZM218.983 248.031L212.322 238.473H217.553L224.251 248.031H218.983ZM206.64 238.661L204.457 236.328H212.36C214.517 236.328 216.135 235.864 217.214 234.935C218.318 234.007 218.87 232.715 218.87 231.059C218.87 229.379 218.318 228.087 217.214 227.183C216.135 226.28 214.517 225.829 212.36 225.829H204.457L206.64 223.42V238.661Z" fill="#111111"/>
<path d="M179.925 232.64H193.02V236.666H179.925V232.64ZM180.301 243.929H195.165V248.031H175.409V221.689H194.638V225.791H180.301V243.929Z" fill="#111111"/>
<path d="M147.346 248.031V221.689H158.183C160.516 221.689 162.511 222.066 164.166 222.818C165.847 223.571 167.139 224.65 168.042 226.055C168.945 227.459 169.397 229.128 169.397 231.059C169.397 232.991 168.945 234.659 168.042 236.064C167.139 237.469 165.847 238.548 164.166 239.3C162.511 240.053 160.516 240.429 158.183 240.429H150.055L152.238 238.134V248.031H147.346ZM152.238 238.661L150.055 236.29H157.957C160.115 236.29 161.733 235.838 162.812 234.935C163.916 234.007 164.467 232.715 164.467 231.059C164.467 229.379 163.916 228.087 162.812 227.183C161.733 226.28 160.115 225.829 157.957 225.829H150.055L152.238 223.42V238.661Z" fill="#111111"/>
<path d="M123.689 248.031V221.689H128.581V243.891H142.354V248.031H123.689Z" fill="#111111"/>
<path d="M101.869 232.64H114.964V236.666H101.869V232.64ZM102.245 243.929H117.109V248.031H97.3535V221.689H116.583V225.791H102.245V243.929Z" fill="#111111"/>
<path d="M84.2748 221.689H89.1668V248.031H84.2748V221.689ZM70.6527 248.031H65.7607V221.689H70.6527V248.031ZM84.6511 236.742H70.2387V232.565H84.6511V236.742Z" fill="#111111"/>
<path d="M48.8879 248.407C47.2071 248.407 45.6517 248.081 44.2217 247.429C42.8169 246.776 41.6629 245.836 40.7598 244.606L43.5444 241.257C44.2719 242.261 45.0622 243.013 45.9151 243.515C46.7932 244.017 47.7464 244.268 48.775 244.268C51.5095 244.268 52.8767 242.65 52.8767 239.413V225.791H43.5068V221.689H57.7686V239.15C57.7686 242.261 57.0035 244.581 55.4732 246.111C53.968 247.642 51.7729 248.407 48.8879 248.407Z" fill="#111111"/>
<path d="M26.7302 248.031V225.829H18V221.689H40.3524V225.829H31.6221V248.031H26.7302Z" fill="#111111"/>
</svg>
