<svg width="72" height="72" viewBox="0 0 72 72" fill="none" xmlns="http://www.w3.org/2000/svg">
<g clip-path="url(#clip0_1512_322)">
<g clip-path="url(#clip1_1512_322)">
<path d="M55.125 0H16.875C7.55519 0 0 7.55519 0 16.875V55.125C0 64.4448 7.55519 72 16.875 72H55.125C64.4448 72 72 64.4448 72 55.125V16.875C72 7.55519 64.4448 0 55.125 0Z" fill="#4353FF"/>
<path d="M47.5608 29.0914C47.5608 29.0914 43.6753 41.2644 43.3882 42.298C43.2734 41.2836 40.4407 19.4062 40.4407 19.4062C33.8181 19.4062 30.2963 24.1147 28.4203 29.0914C28.4203 29.0914 23.6928 41.3027 23.31 42.3172C23.2909 41.3601 22.5827 29.2061 22.5827 29.2061C22.1805 23.1002 16.6106 19.4062 12.0938 19.4062L17.5297 52.5381C24.4583 52.5189 28.1908 47.8297 30.143 42.8341C30.143 42.8341 34.2965 32.058 34.4689 31.5796C34.5071 32.0389 37.4546 52.5381 37.4546 52.5381C44.4026 52.5381 48.1542 48.1551 50.1637 43.3507L59.9062 19.4062C53.0348 19.4062 49.4173 24.0955 47.5608 29.0914Z" fill="white"/>
</g>
</g>
<defs>
<clipPath id="clip0_1512_322">
<rect width="72" height="72" rx="8" fill="white"/>
</clipPath>
<clipPath id="clip1_1512_322">
<rect width="72" height="72" fill="white"/>
</clipPath>
</defs>
</svg>
