<svg width="72" height="72" viewBox="0 0 72 72" fill="none" xmlns="http://www.w3.org/2000/svg">
<rect width="72" height="72" rx="15" fill="white"/>
<path d="M48.9262 14.5664L45.1133 57.1183L27.9737 61.8517L10.8813 57.1249L7.07227 14.5664H48.9262Z" fill="#E44D26"/>
<path d="M28 58.2324L41.8497 54.4076L45.1079 18.0449H28V58.2324Z" fill="#F16529"/>
<path d="M20.5876 28.4852H27.9999V23.2656H14.8613L14.9867 24.6659L16.2746 39.0498H27.9999V33.8302H21.0665L20.5876 28.4852ZM21.7685 41.6597H16.5087L17.2427 49.8553L27.9758 52.8233L27.9999 52.8168V47.3862L27.977 47.3922L22.1416 45.8226L21.7685 41.6597Z" fill="#EBEBEB"/>
<path d="M27.9826 39.0498H34.4347L33.8263 45.8193L27.9824 47.3906V52.8209L38.7241 49.8553L38.8028 48.9734L40.0343 35.2318L40.1621 33.8302H27.9826V39.0498ZM27.9826 28.4725V28.4852H40.6389L40.7439 27.3121L40.9827 24.6659L41.1079 23.2656H27.9826V28.4725Z" fill="white"/>
<path d="M43.9737 61.8517L26.8813 57.1249L23.0723 14.5664H64.9262L61.1133 57.1183L43.9737 61.8517Z" fill="#264DE4"/>
<path d="M57.8497 54.4076L61.1079 18.0449H44V58.2324L57.8497 54.4076Z" fill="#2965F1"/>
<path d="M31.805 33.8302L32.2746 39.0498H43.9999V33.8302H31.805ZM30.8613 23.2656L31.3376 28.4852H43.9999V23.2656H30.8613ZM43.9999 47.3862L43.977 47.3922L38.1416 45.8226L37.7685 41.6597H32.5087L33.2427 49.8553L43.9758 52.8233L43.9999 52.8168V47.3862Z" fill="#EBEBEB"/>
<path d="M56.1621 33.8302L57.1079 23.2656H43.9826V28.4852H51.3657L50.889 33.8302H43.9826V39.0498H50.4347L49.8263 45.8193L43.9824 47.3906V52.8209L54.7241 49.8553L54.8028 48.9734L56.0343 35.2318L56.1621 33.8302Z" fill="white"/>
</svg>
