<svg width="312" height="476" viewBox="0 0 312 476" fill="none" xmlns="http://www.w3.org/2000/svg">
<path d="M17.78 439.45C17.78 443.043 17.0683 445.913 15.645 448.06C14.245 450.207 12.2033 451.28 9.52 451.28C6.90667 451.28 4.88833 450.207 3.465 448.06C2.04167 445.913 1.33 443.043 1.33 439.45C1.33 435.833 2.04167 432.975 3.465 430.875C4.88833 428.752 6.90667 427.69 9.52 427.69C12.1567 427.69 14.1867 428.752 15.61 430.875C17.0567 432.975 17.78 435.833 17.78 439.45ZM6.685 433.57C5.985 434.923 5.635 436.883 5.635 439.45C5.635 442.017 5.97333 444 6.65 445.4C7.35 446.777 8.30667 447.465 9.52 447.465C10.78 447.465 11.7483 446.777 12.425 445.4C13.125 444.023 13.475 442.04 13.475 439.45C13.475 436.86 13.1133 434.888 12.39 433.535C11.69 432.182 10.7333 431.505 9.52 431.505C8.33 431.505 7.385 432.193 6.685 433.57ZM43.2581 451H39.0931V432.66L33.4931 436.055V431.68L39.5481 428.11H43.2581V451ZM75.6137 451H60.6687V447.64C63.3987 445.703 65.7553 443.638 67.7387 441.445C69.722 439.228 70.7137 437.233 70.7137 435.46C70.7137 434.293 70.3753 433.383 69.6987 432.73C69.022 432.077 68.042 431.75 66.7587 431.75C64.822 431.75 62.967 432.473 61.1937 433.92V429.825C61.9637 429.242 62.9203 428.763 64.0637 428.39C65.207 428.017 66.3503 427.83 67.4937 427.83C69.7337 427.83 71.5537 428.448 72.9537 429.685C74.377 430.898 75.0887 432.613 75.0887 434.83C75.0887 438.983 72.2187 443.172 66.4787 447.395H75.6137V451ZM106.102 444.7C106.102 446.613 105.39 448.177 103.967 449.39C102.567 450.58 100.595 451.175 98.052 451.175C95.6953 451.175 93.6886 450.79 92.032 450.02V445.925C93.852 446.905 95.7653 447.395 97.772 447.395C99.032 447.395 100.012 447.103 100.712 446.52C101.435 445.913 101.797 445.143 101.797 444.21C101.797 442.18 100.152 441.165 96.862 441.165H95.532V437.63H96.862C98.0986 437.63 99.137 437.362 99.977 436.825C100.817 436.288 101.237 435.53 101.237 434.55C101.237 432.59 100.035 431.61 97.632 431.61C96.0453 431.61 94.4586 432.1 92.872 433.08V429.125C94.4586 428.262 96.127 427.83 97.877 427.83C100.28 427.83 102.159 428.413 103.512 429.58C104.889 430.747 105.577 432.24 105.577 434.06C105.577 436.697 104.375 438.493 101.972 439.45C103.279 439.777 104.294 440.395 105.017 441.305C105.74 442.192 106.102 443.323 106.102 444.7ZM126.844 442.25H132.864V430.735L126.844 442.25ZM137.064 451H132.864V445.855H122.679V442.25L130.309 428.075H137.064V442.25H140.074V445.855H137.064V451ZM171.146 443.545C171.146 445.878 170.376 447.745 168.836 449.145C167.296 450.545 165.137 451.245 162.361 451.245C159.957 451.245 157.939 450.837 156.306 450.02V445.995C157.846 446.928 159.631 447.395 161.661 447.395C165.091 447.395 166.806 446.077 166.806 443.44C166.806 442.413 166.432 441.608 165.686 441.025C164.962 440.442 163.924 440.15 162.571 440.15C160.797 440.15 159.059 440.547 157.356 441.34V428.075H169.676V431.68H161.486V436.72C162.162 436.58 162.816 436.51 163.446 436.51C165.896 436.51 167.786 437.14 169.116 438.4C170.469 439.66 171.146 441.375 171.146 443.545ZM203.974 443.58C203.974 445.89 203.274 447.803 201.874 449.32C200.474 450.813 198.572 451.56 196.169 451.56C193.439 451.56 191.362 450.568 189.939 448.585C188.516 446.578 187.804 443.907 187.804 440.57C187.804 436.697 188.819 433.57 190.849 431.19C192.879 428.787 195.527 427.585 198.794 427.585C200.054 427.585 201.197 427.772 202.224 428.145V432.1C201.314 431.633 200.264 431.4 199.074 431.4C197.207 431.4 195.691 432.03 194.524 433.29C193.357 434.55 192.611 436.172 192.284 438.155C193.684 436.872 195.341 436.23 197.254 436.23C199.284 436.23 200.906 436.895 202.119 438.225C203.356 439.555 203.974 441.34 203.974 443.58ZM196.204 447.78C197.254 447.78 198.082 447.407 198.689 446.66C199.319 445.89 199.634 444.875 199.634 443.615C199.634 442.472 199.331 441.562 198.724 440.885C198.117 440.208 197.289 439.87 196.239 439.87C194.722 439.87 193.346 440.512 192.109 441.795C192.249 443.848 192.681 445.365 193.404 446.345C194.151 447.302 195.084 447.78 196.204 447.78ZM225.648 451H221.168L230.303 431.715H219.523V428.075H234.748V431.715L225.648 451ZM266.766 444.77C266.766 446.73 266.007 448.317 264.491 449.53C262.974 450.72 261.026 451.315 258.646 451.315C256.266 451.315 254.341 450.743 252.871 449.6C251.424 448.457 250.701 446.905 250.701 444.945C250.701 442.378 251.902 440.57 254.306 439.52C252.136 438.423 251.051 436.732 251.051 434.445C251.051 432.345 251.774 430.712 253.221 429.545C254.691 428.355 256.499 427.76 258.646 427.76C260.886 427.76 262.729 428.32 264.176 429.44C265.622 430.56 266.346 432.228 266.346 434.445C266.346 436.662 265.296 438.318 263.196 439.415C265.576 440.348 266.766 442.133 266.766 444.77ZM254.936 444.805C254.936 445.668 255.251 446.403 255.881 447.01C256.511 447.593 257.444 447.885 258.681 447.885C259.941 447.885 260.897 447.57 261.551 446.94C262.204 446.31 262.531 445.552 262.531 444.665C262.531 443.732 262.192 442.95 261.516 442.32C260.862 441.69 259.917 441.375 258.681 441.375C257.444 441.398 256.511 441.748 255.881 442.425C255.251 443.078 254.936 443.872 254.936 444.805ZM255.321 434.375C255.321 435.425 255.647 436.23 256.301 436.79C256.954 437.35 257.771 437.63 258.751 437.63C259.707 437.63 260.501 437.35 261.131 436.79C261.784 436.23 262.111 435.425 262.111 434.375C262.111 433.442 261.842 432.683 261.306 432.1C260.769 431.493 259.882 431.19 258.646 431.19C257.572 431.19 256.744 431.505 256.161 432.135C255.601 432.742 255.321 433.488 255.321 434.375ZM290.988 439.45C292.598 439.45 293.893 438.832 294.873 437.595C294.779 435.635 294.383 434.153 293.683 433.15C293.006 432.123 292.084 431.61 290.918 431.61C289.844 431.61 288.981 431.96 288.328 432.66C287.698 433.36 287.383 434.317 287.383 435.53C287.383 436.72 287.709 437.677 288.363 438.4C289.016 439.1 289.891 439.45 290.988 439.45ZM299.073 438.47C299.073 442.647 298.139 445.832 296.273 448.025C294.429 450.195 291.851 451.28 288.538 451.28C287.021 451.28 285.656 451.058 284.443 450.615V446.59C285.656 447.15 286.893 447.43 288.153 447.43C291.979 447.43 294.173 445.353 294.733 441.2C293.683 442.367 292.084 442.95 289.938 442.95C287.954 442.95 286.309 442.285 285.003 440.955C283.696 439.602 283.043 437.817 283.043 435.6C283.043 433.36 283.731 431.505 285.108 430.035C286.484 428.542 288.351 427.795 290.708 427.795C293.391 427.795 295.456 428.775 296.903 430.735C298.349 432.672 299.073 435.25 299.073 438.47Z" fill="#4F5C6F"/>
<path d="M24.0013 31H20.5993V18.19H6.86529V31H3.46329V2.692H6.86529V15.124H20.5993V2.692H24.0013V31ZM35.0296 31H31.7116V9.706H35.0296V31ZM34.9036 1.474C35.3236 1.894 35.5336 2.412 35.5336 3.028C35.5336 3.644 35.3236 4.162 34.9036 4.582C34.4836 4.974 33.9656 5.17 33.3496 5.17C32.7336 5.17 32.2156 4.974 31.7956 4.582C31.4036 4.162 31.2076 3.644 31.2076 3.028C31.2076 2.412 31.4036 1.894 31.7956 1.474C32.2156 1.054 32.7336 0.843998 33.3496 0.843998C33.9656 0.843998 34.4836 1.054 34.9036 1.474ZM59.4063 31H56.0883V17.224C56.0883 15.656 55.6823 14.466 54.8703 13.654C54.0863 12.814 53.0503 12.394 51.7623 12.394C50.1663 12.394 48.7803 13.01 47.6043 14.242C46.4563 15.474 45.8823 17.182 45.8823 19.366V31H42.6063V9.706H45.8823V13.402C47.1423 10.742 49.3823 9.412 52.6023 9.412C54.6743 9.412 56.3263 10.042 57.5583 11.302C58.7903 12.562 59.4063 14.242 59.4063 16.342V31ZM68.7319 20.584C68.7319 22.88 69.2919 24.742 70.4119 26.17C71.5319 27.598 72.9459 28.312 74.6539 28.312C76.3899 28.312 77.8599 27.668 79.0639 26.38C80.2959 25.092 80.9119 23.034 80.9119 20.206C80.9119 17.518 80.2819 15.544 79.0219 14.284C77.7619 13.024 76.3759 12.394 74.864 12.394C73.0999 12.394 71.6299 13.108 70.4539 14.536C69.3059 15.936 68.7319 17.952 68.7319 20.584ZM84.2299 31H80.9119V27.85C79.4 30.174 77.2159 31.336 74.3599 31.336C71.5319 31.336 69.3059 30.286 67.6819 28.186C66.0859 26.086 65.2879 23.538 65.2879 20.542C65.2879 17.21 66.1419 14.522 67.8499 12.478C69.5579 10.406 71.7559 9.37 74.4439 9.37C77.2159 9.37 79.3719 10.56 80.9119 12.94V1.306H84.2299V31ZM125.412 28.774C123.144 30.482 120.218 31.336 116.634 31.336C112.266 31.336 108.752 30.048 106.092 27.472C103.432 24.868 102.102 21.312 102.102 16.804C102.102 12.52 103.418 9.02 106.05 6.304C108.71 3.56 112.056 2.188 116.088 2.188C119.42 2.188 122.178 2.832 124.362 4.12V7.774C122.066 6.262 119.406 5.506 116.382 5.506C113.218 5.506 110.642 6.542 108.654 8.614C106.666 10.658 105.672 13.388 105.672 16.804C105.672 20.304 106.652 23.062 108.612 25.078C110.572 27.066 113.274 28.06 116.718 28.06C118.622 28.06 120.386 27.682 122.01 26.926V18.106H115.794V15.124H125.412V28.648H125.37L125.412 28.774ZM149.097 31H145.779V27.304C144.659 29.936 142.433 31.252 139.101 31.252C137.001 31.252 135.335 30.636 134.103 29.404C132.899 28.144 132.297 26.464 132.297 24.364V9.706H135.615V23.524C135.615 25.064 136.007 26.24 136.791 27.052C137.575 27.864 138.639 28.27 139.983 28.27C141.747 28.27 143.147 27.654 144.183 26.422C145.247 25.19 145.779 23.524 145.779 21.424V9.706H149.097V31ZM173.29 31H169.972V17.224C169.972 15.656 169.566 14.466 168.754 13.654C167.97 12.814 166.934 12.394 165.646 12.394C164.05 12.394 162.664 13.01 161.488 14.242C160.34 15.474 159.766 17.182 159.766 19.366V31H156.49V9.706H159.766V13.402C161.026 10.742 163.266 9.412 166.486 9.412C168.558 9.412 170.21 10.042 171.442 11.302C172.674 12.562 173.29 14.242 173.29 16.342V31ZM191.1 30.454C190.176 30.958 189.14 31.21 187.992 31.21C183.792 31.21 181.692 29.068 181.692 24.784V12.394H178.29V9.706H181.692V4.414H185.01V9.706H190.89V12.394H185.01V24.868C185.01 27.136 186.074 28.27 188.202 28.27C189.294 28.27 190.26 27.948 191.1 27.304V30.454ZM213.744 31H210.426V27.304C209.306 29.936 207.08 31.252 203.748 31.252C201.648 31.252 199.982 30.636 198.75 29.404C197.546 28.144 196.944 26.464 196.944 24.364V9.706H200.262V23.524C200.262 25.064 200.654 26.24 201.438 27.052C202.222 27.864 203.286 28.27 204.63 28.27C206.394 28.27 207.794 27.654 208.83 26.422C209.894 25.19 210.426 23.524 210.426 21.424V9.706H213.744V31ZM224.413 31H221.095L221.137 9.706H224.413V13.444C225.533 10.812 227.465 9.496 230.209 9.496C230.713 9.496 231.105 9.524 231.385 9.58V12.856C230.797 12.66 230.195 12.562 229.579 12.562C228.095 12.562 226.863 13.248 225.883 14.62C224.903 15.992 224.413 17.574 224.413 19.366V31Z" fill="#17A7E8"/>
<path d="M7.14 108.06L6.615 109.53H15.75L15.225 108.025L11.235 96.23C10.9317 97.1633 9.56667 101.107 7.14 108.06ZM3.675 118H1.33L9.66 94.41H12.81L20.965 118H18.62L16.38 111.455H5.95L3.675 118ZM33.9402 116.215C35.3402 116.215 36.4602 115.83 37.3002 115.06C38.1402 114.29 38.5602 113.31 38.5602 112.12V109.565H35.0952C33.4385 109.565 32.2018 109.892 31.3852 110.545C30.5685 111.175 30.1602 111.968 30.1602 112.925C30.1602 113.905 30.4752 114.698 31.1052 115.305C31.7585 115.912 32.7035 116.215 33.9402 116.215ZM38.5602 115.935C37.5802 117.428 35.8768 118.175 33.4502 118.175C31.8168 118.175 30.4752 117.697 29.4252 116.74C28.3985 115.76 27.8852 114.512 27.8852 112.995C27.8852 111.292 28.5385 109.973 29.8452 109.04C31.1752 108.083 32.9252 107.605 35.0952 107.605H38.5602V106.8C38.5602 105.213 38.2218 104.023 37.5452 103.23C36.8685 102.413 35.7368 102.005 34.1502 102.005C32.3068 102.005 30.6502 102.507 29.1802 103.51V101.2C30.5335 100.383 32.2018 99.975 34.1852 99.975C38.5252 99.975 40.6952 102.25 40.6952 106.8V118H38.5602V115.935ZM70.3232 118H62.1332V94.41H68.7132C71.0932 94.41 73.0182 94.9583 74.4882 96.055C75.9815 97.1283 76.7282 98.6217 76.7282 100.535C76.7282 101.935 76.3315 103.137 75.5382 104.14C74.7682 105.12 73.7649 105.738 72.5282 105.995C73.8582 106.158 75.0015 106.73 75.9582 107.71C76.9382 108.69 77.4282 110.032 77.4282 111.735C77.4282 113.625 76.8099 115.142 75.5732 116.285C74.3599 117.428 72.6099 118 70.3232 118ZM68.9582 96.335H64.3032V105.12H68.5382C70.5682 105.12 72.0615 104.688 73.0182 103.825C73.9749 102.938 74.4532 101.818 74.4532 100.465C74.4532 99.2983 73.9865 98.3183 73.0532 97.525C72.1432 96.7317 70.7782 96.335 68.9582 96.335ZM69.6582 107.045H64.3032V116.075H70.3232C71.8399 116.075 73.0182 115.702 73.8582 114.955C74.7215 114.185 75.1532 113.088 75.1532 111.665C75.1532 110.195 74.6632 109.063 73.6832 108.27C72.7265 107.453 71.3849 107.045 69.6582 107.045ZM87.7715 118H85.6365V93.255H87.7715V102.915C89.0782 100.955 90.8865 99.975 93.1965 99.975C95.4365 99.975 97.2682 100.85 98.6915 102.6C100.115 104.327 100.827 106.567 100.827 109.32C100.827 111.817 100.162 113.94 98.8315 115.69C97.5015 117.417 95.6465 118.28 93.2665 118.28C90.8399 118.28 89.0082 117.323 87.7715 115.41V118ZM87.7715 109.04C87.7715 111.63 88.3199 113.485 89.4165 114.605C90.5132 115.702 91.8199 116.25 93.3365 116.25C94.8532 116.25 96.1015 115.608 97.0815 114.325C98.0849 113.042 98.5865 111.385 98.5865 109.355C98.5865 106.998 98.0732 105.19 97.0465 103.93C96.0199 102.647 94.7132 102.005 93.1265 102.005C92.5665 102.005 91.9949 102.122 91.4115 102.355C90.8515 102.565 90.2799 102.927 89.6965 103.44C89.1365 103.93 88.6699 104.665 88.2965 105.645C87.9465 106.602 87.7715 107.733 87.7715 109.04ZM138.129 116.775C136.706 117.778 134.746 118.28 132.249 118.28C128.679 118.28 125.797 117.195 123.604 115.025C121.411 112.855 120.314 109.868 120.314 106.065C120.314 102.518 121.446 99.6367 123.709 97.42C125.972 95.2033 128.772 94.095 132.109 94.095C134.419 94.095 136.402 94.515 138.059 95.355V97.63C137.032 97.0933 136.122 96.72 135.329 96.51C134.536 96.2767 133.439 96.16 132.039 96.16C129.332 96.16 127.069 97.0817 125.249 98.925C123.452 100.745 122.554 103.125 122.554 106.065C122.554 109.145 123.441 111.607 125.214 113.45C127.011 115.293 129.391 116.215 132.354 116.215C134.664 116.215 136.589 115.608 138.129 114.395V116.775ZM157.961 117.405C156.958 118.082 155.663 118.42 154.076 118.42C151.206 118.42 148.966 117.522 147.356 115.725C145.746 113.905 144.941 111.723 144.941 109.18C144.941 106.707 145.758 104.548 147.391 102.705C149.048 100.862 151.276 99.94 154.076 99.94C155.523 99.94 156.818 100.255 157.961 100.885V103.055C156.911 102.355 155.686 102.005 154.286 102.005C152.116 102.005 150.389 102.717 149.106 104.14C147.823 105.54 147.181 107.232 147.181 109.215C147.181 111.222 147.799 112.913 149.036 114.29C150.273 115.667 152.034 116.355 154.321 116.355C155.744 116.355 156.958 115.982 157.961 115.235V117.405ZM185.746 118H178.851V94.41H185.571C189.025 94.41 191.86 95.4833 194.076 97.63C196.293 99.7767 197.401 102.588 197.401 106.065C197.401 108.188 196.993 110.137 196.176 111.91C195.36 113.66 194.041 115.118 192.221 116.285C190.425 117.428 188.266 118 185.746 118ZM185.571 96.405H181.021V116.005H185.746C187.356 116.005 188.78 115.725 190.016 115.165C191.253 114.605 192.233 113.847 192.956 112.89C193.68 111.933 194.216 110.883 194.566 109.74C194.94 108.597 195.126 107.372 195.126 106.065C195.126 103.382 194.228 101.107 192.431 99.24C190.658 97.35 188.371 96.405 185.571 96.405ZM206.651 109.355C206.651 111.385 207.141 113.042 208.121 114.325C209.124 115.608 210.384 116.25 211.901 116.25C213.418 116.25 214.724 115.702 215.821 114.605C216.918 113.485 217.466 111.63 217.466 109.04C217.466 107.733 217.279 106.602 216.906 105.645C216.556 104.665 216.089 103.93 215.506 103.44C214.946 102.927 214.374 102.565 213.791 102.355C213.231 102.122 212.671 102.005 212.111 102.005C210.524 102.005 209.218 102.647 208.191 103.93C207.164 105.19 206.651 106.998 206.651 109.355ZM219.601 118H217.466V115.41C216.229 117.323 214.398 118.28 211.971 118.28C209.591 118.28 207.736 117.417 206.406 115.69C205.076 113.94 204.411 111.817 204.411 109.32C204.411 106.567 205.123 104.327 206.546 102.6C207.969 100.85 209.801 99.975 212.041 99.975C214.351 99.975 216.159 100.955 217.466 102.915V93.255H219.601V118ZM254.002 118H241.227V94.41H253.792V96.405H243.397V105.225H252.567V107.22H243.397V116.005H254.002V118ZM274.8 117.125C273.4 117.825 271.766 118.175 269.9 118.175C267.263 118.175 265.116 117.358 263.46 115.725C261.826 114.068 261.01 111.898 261.01 109.215C261.01 106.368 261.733 104.128 263.18 102.495C264.626 100.862 266.505 100.045 268.815 100.045C270.985 100.045 272.711 100.757 273.995 102.18C275.278 103.603 275.92 105.61 275.92 108.2C275.92 108.993 275.873 109.623 275.78 110.09H263.25C263.413 112.05 264.09 113.555 265.28 114.605C266.47 115.632 268.045 116.145 270.005 116.145C272.011 116.145 273.61 115.748 274.8 114.955V117.125ZM268.745 102.04C267.251 102.04 266.003 102.565 265 103.615C263.996 104.665 263.413 106.17 263.25 108.13H273.715V107.325C273.715 105.715 273.26 104.432 272.35 103.475C271.463 102.518 270.261 102.04 268.745 102.04ZM14.14 170.395H4.97V181H2.8V157.41H15.365V159.405H4.97V168.4H14.14V170.395ZM31.3031 165.075H27.2431V181H25.1081V165.075H21.8531V163.255H25.1081V161.365C25.1081 159.755 25.5281 158.472 26.3681 157.515C27.2081 156.558 28.3865 156.08 29.9031 156.08C30.3465 156.08 30.8248 156.15 31.3381 156.29V158.39C30.8481 158.203 30.3348 158.11 29.7981 158.11C29.0981 158.11 28.4915 158.39 27.9781 158.95C27.4881 159.487 27.2431 160.303 27.2431 161.4V163.255H31.3031V165.075ZM69.0465 179.25C67.2032 180.603 64.8699 181.28 62.0465 181.28C58.4532 181.28 55.5599 180.207 53.3665 178.06C51.1965 175.89 50.1115 172.927 50.1115 169.17C50.1115 165.623 51.1732 162.707 53.2965 160.42C55.4432 158.133 58.1499 156.99 61.4165 156.99C64.1932 156.99 66.4799 157.538 68.2765 158.635V161.05C66.4799 159.79 64.2865 159.16 61.6965 159.16C58.9432 159.16 56.6915 160.082 54.9415 161.925C53.2149 163.745 52.3515 166.16 52.3515 169.17C52.3515 172.273 53.2149 174.712 54.9415 176.485C56.6682 178.235 59.0482 179.11 62.0815 179.11C63.8782 179.11 65.4765 178.748 66.8765 178.025V169.94H61.3115V168.015H69.0465V179.25ZM91.7662 179.635C91.7662 182.318 91.0428 184.325 89.5962 185.655C88.1495 187.008 86.2828 187.685 83.9962 187.685C81.9662 187.685 80.2395 187.347 78.8162 186.67V184.57C80.2628 185.293 81.9312 185.655 83.8212 185.655C85.5945 185.655 87.0062 185.165 88.0562 184.185C89.1062 183.228 89.6312 181.712 89.6312 179.635V177.325C88.4412 179.495 86.6678 180.58 84.3112 180.58C82.2578 180.58 80.5078 179.822 79.0612 178.305C77.6378 176.788 76.9262 174.735 76.9262 172.145C76.9262 169.485 77.5795 167.292 78.8862 165.565C80.2162 163.838 81.9545 162.975 84.1012 162.975C86.6445 162.975 88.4878 164.107 89.6312 166.37V163.255H91.7662V179.635ZM79.1662 172.04C79.1662 174.163 79.7028 175.785 80.7762 176.905C81.8495 178.002 83.0395 178.55 84.3462 178.55C85.6762 178.55 86.8895 178.037 87.9862 177.01C89.0828 175.96 89.6312 174.362 89.6312 172.215C89.6312 169.765 89.1062 167.957 88.0562 166.79C87.0062 165.6 85.8278 165.005 84.5212 165.005C82.8645 165.005 81.5578 165.658 80.6012 166.965C79.6445 168.272 79.1662 169.963 79.1662 172.04ZM129.715 181H127.545V169.975H115.365V181H113.195V157.41H115.365V167.98H127.545V157.41H129.715V181ZM152.424 181H150.289V169.275C150.289 167.898 149.939 166.848 149.239 166.125C148.539 165.402 147.618 165.04 146.474 165.04C145.028 165.04 143.779 165.6 142.729 166.72C141.679 167.817 141.154 169.31 141.154 171.2V181H139.019V156.255H141.154V166.3C142.228 164.083 144.106 162.975 146.789 162.975C148.493 162.975 149.858 163.5 150.884 164.55C151.911 165.6 152.424 166.953 152.424 168.61V181ZM176.206 181H174.036V157.41H176.206V181ZM187.981 181H185.846V163.255H187.981V181ZM187.946 156.535C188.249 156.815 188.401 157.165 188.401 157.585C188.401 158.005 188.249 158.355 187.946 158.635C187.666 158.915 187.316 159.055 186.896 159.055C186.476 159.055 186.126 158.915 185.846 158.635C185.566 158.355 185.426 158.005 185.426 157.585C185.426 157.165 185.566 156.815 185.846 156.535C186.126 156.232 186.476 156.08 186.896 156.08C187.316 156.08 187.666 156.232 187.946 156.535ZM216.362 175.225C216.362 179.075 214.647 181 211.217 181C209.957 181 208.884 180.732 207.997 180.195V177.99C208.93 178.62 209.934 178.935 211.007 178.935C213.13 178.935 214.192 177.815 214.192 175.575V157.41H216.362V175.225ZM227.934 183.24C227.934 184.687 227.561 185.807 226.814 186.6C226.091 187.393 225.076 187.79 223.769 187.79C222.999 187.79 222.194 187.627 221.354 187.3V185.2C222.171 185.573 222.988 185.76 223.804 185.76C225.134 185.76 225.799 184.897 225.799 183.17V163.255H227.934V183.24ZM227.864 156.535C228.168 156.815 228.319 157.165 228.319 157.585C228.319 158.005 228.168 158.355 227.864 158.635C227.584 158.915 227.234 159.055 226.814 159.055C226.394 159.055 226.044 158.915 225.764 158.635C225.484 158.355 225.344 158.005 225.344 157.585C225.344 157.165 225.484 156.815 225.764 156.535C226.044 156.232 226.394 156.08 226.814 156.08C227.234 156.08 227.584 156.232 227.864 156.535ZM264.894 181H262.024L252.329 169.38L261.674 157.41H264.404L255.094 169.38L264.894 181ZM251.699 181H249.529V157.41H251.699V181ZM274.583 181H272.448V156.255H274.583V181ZM277.698 171.69L285.188 181H282.528L275.108 171.69L282.318 163.255H284.943L277.698 171.69ZM15.365 244H2.8V220.41H4.97V242.005H15.365V244ZM25.3621 244H23.2271V219.255H25.3621V244ZM49.1233 244H46.9533L48.5983 220.41H51.5733L54.6533 229.055L58.8183 241.06C60.4283 236.627 61.8983 232.625 63.2283 229.055L66.4483 220.41H69.4233L71.4183 244H69.2483L68.4433 234.655L67.4983 223.245C66.0983 227.142 64.71 230.945 63.3333 234.655L60.0783 243.405H57.5233L54.4433 234.655L50.5233 223.49C50.3133 227.013 50.0683 230.735 49.7883 234.655L49.1233 244ZM103.641 244H101.506V232.275C101.506 229.452 100.27 228.04 97.7963 228.04C96.583 228.04 95.498 228.6 94.5413 229.72C93.608 230.84 93.1413 232.333 93.1413 234.2V244H91.0063V232.275C91.0063 229.452 89.7696 228.04 87.2963 228.04C86.083 228.04 84.998 228.6 84.0413 229.72C83.108 230.84 82.6413 232.333 82.6413 234.2V244H80.5063V226.255H82.6413V229.16C83.6446 227.037 85.3013 225.975 87.6113 225.975C90.458 225.975 92.208 227.142 92.8613 229.475C93.958 227.142 95.708 225.975 98.1113 225.975C99.978 225.975 101.366 226.5 102.276 227.55C103.186 228.577 103.641 229.93 103.641 231.61V244ZM127.225 244H125.055V220.41H128.03L134.05 230.385L140.7 241.445C140.654 239.018 140.63 235.343 140.63 230.42V220.41H142.8V244H139.825L133.84 234.095L127.155 222.965C127.202 225.485 127.225 229.172 127.225 234.025V244ZM165.515 244H163.38V232.275C163.38 230.898 163.03 229.848 162.33 229.125C161.63 228.402 160.708 228.04 159.565 228.04C158.118 228.04 156.87 228.6 155.82 229.72C154.77 230.817 154.245 232.31 154.245 234.2V244H152.11V226.255H154.245V229.3C155.342 227.083 157.22 225.975 159.88 225.975C161.583 225.975 162.948 226.5 163.975 227.55C165.002 228.6 165.515 229.953 165.515 231.61V244ZM206.587 232.1C206.587 235.833 205.665 238.797 203.822 240.99C201.979 243.183 199.47 244.28 196.297 244.28C193.17 244.28 190.65 243.172 188.737 240.955C186.847 238.738 185.902 235.787 185.902 232.1C185.902 228.39 186.824 225.438 188.667 223.245C190.534 221.028 193.054 219.92 196.227 219.92C199.494 219.92 202.037 221.017 203.857 223.21C205.677 225.38 206.587 228.343 206.587 232.1ZM188.142 232.1C188.142 235.203 188.877 237.665 190.347 239.485C191.84 241.282 193.824 242.18 196.297 242.18C198.864 242.18 200.847 241.293 202.247 239.52C203.647 237.723 204.347 235.25 204.347 232.1C204.347 228.927 203.635 226.453 202.212 224.68C200.812 222.907 198.817 222.02 196.227 222.02C193.707 222.02 191.724 222.918 190.277 224.715C188.854 226.488 188.142 228.95 188.142 232.1ZM230.261 235.215C230.261 237.852 229.515 240.033 228.021 241.76C226.551 243.463 224.521 244.315 221.931 244.315C219.435 244.315 217.451 243.452 215.981 241.725C214.511 239.998 213.776 237.828 213.776 235.215C213.776 232.625 214.535 230.443 216.051 228.67C217.568 226.897 219.528 226.01 221.931 226.01C224.568 226.01 226.61 226.885 228.056 228.635C229.526 230.362 230.261 232.555 230.261 235.215ZM216.016 235.215C216.016 237.152 216.553 238.82 217.626 240.22C218.723 241.597 220.158 242.285 221.931 242.285C223.868 242.285 225.361 241.608 226.411 240.255C227.485 238.878 228.021 237.198 228.021 235.215C228.021 233.162 227.52 231.458 226.516 230.105C225.513 228.728 223.985 228.04 221.931 228.04C220.088 228.04 218.641 228.74 217.591 230.14C216.541 231.54 216.016 233.232 216.016 235.215ZM256.852 235.04H252.967V244H250.797V220.41H256.467C259.22 220.41 261.379 221.11 262.942 222.51C264.529 223.887 265.322 225.707 265.322 227.97C265.322 229.93 264.552 231.598 263.012 232.975C261.495 234.352 259.442 235.04 256.852 235.04ZM256.712 222.335H252.967V233.115H257.097C258.94 233.115 260.399 232.625 261.472 231.645C262.569 230.665 263.117 229.44 263.117 227.97C263.117 226.243 262.557 224.878 261.437 223.875C260.317 222.848 258.742 222.335 256.712 222.335ZM275.543 251H273.408V226.255H275.543V228.845C276.78 226.932 278.612 225.975 281.038 225.975C283.418 225.975 285.273 226.85 286.603 228.6C287.933 230.327 288.598 232.438 288.598 234.935C288.598 237.688 287.887 239.94 286.463 241.69C285.04 243.417 283.208 244.28 280.968 244.28C278.658 244.28 276.85 243.3 275.543 241.34V251ZM275.543 235.215C275.543 236.522 275.718 237.665 276.068 238.645C276.442 239.602 276.908 240.337 277.468 240.85C278.052 241.34 278.623 241.702 279.183 241.935C279.767 242.145 280.338 242.25 280.898 242.25C282.485 242.25 283.792 241.62 284.818 240.36C285.845 239.077 286.358 237.257 286.358 234.9C286.358 232.87 285.857 231.213 284.853 229.93C283.873 228.647 282.625 228.005 281.108 228.005C279.592 228.005 278.285 228.565 277.188 229.685C276.092 230.782 275.543 232.625 275.543 235.215ZM22.435 295.1C22.435 297.877 21.91 300.245 20.86 302.205C19.81 304.165 18.34 305.565 16.45 306.405L23.38 310.885L21.105 311.865L14.035 307.14C13.4983 307.233 12.8683 307.28 12.145 307.28C9.01833 307.28 6.49833 306.172 4.585 303.955C2.695 301.738 1.75 298.787 1.75 295.1C1.75 291.39 2.67167 288.438 4.515 286.245C6.38167 284.028 8.90167 282.92 12.075 282.92C15.3417 282.92 17.885 284.017 19.705 286.21C21.525 288.38 22.435 291.343 22.435 295.1ZM3.99 295.1C3.99 298.203 4.725 300.665 6.195 302.485C7.68833 304.282 9.67167 305.18 12.145 305.18C14.7117 305.18 16.695 304.293 18.095 302.52C19.495 300.723 20.195 298.25 20.195 295.1C20.195 291.927 19.4833 289.453 18.06 287.68C16.66 285.907 14.665 285.02 12.075 285.02C9.555 285.02 7.57167 285.918 6.125 287.715C4.70167 289.488 3.99 291.95 3.99 295.1ZM32.206 297.9C32.206 300.257 32.7193 302.077 33.746 303.36C34.7727 304.62 36.0793 305.25 37.666 305.25C38.226 305.25 38.786 305.145 39.346 304.935C39.9294 304.702 40.501 304.34 41.061 303.85C41.6444 303.337 42.111 302.602 42.461 301.645C42.8343 300.665 43.021 299.522 43.021 298.215C43.021 295.625 42.4727 293.782 41.376 292.685C40.2793 291.565 38.9727 291.005 37.456 291.005C35.9393 291.005 34.6793 291.647 33.676 292.93C32.696 294.213 32.206 295.87 32.206 297.9ZM45.156 314H43.021V304.34C41.7143 306.3 39.906 307.28 37.596 307.28C35.356 307.28 33.5243 306.417 32.101 304.69C30.6777 302.94 29.966 300.688 29.966 297.935C29.966 295.438 30.631 293.327 31.961 291.6C33.291 289.85 35.146 288.975 37.526 288.975C39.9527 288.975 41.7843 289.932 43.021 291.845V289.255H45.156V314ZM72.3466 285.335H68.9516V295.485H72.7666C74.4933 295.485 75.8233 295.007 76.7566 294.05C77.69 293.093 78.1566 291.903 78.1566 290.48C78.1566 287.05 76.22 285.335 72.3466 285.335ZM72.5216 297.41H68.9516V307H66.7816V283.41H72.1016C74.855 283.41 76.9083 284.04 78.2616 285.3C79.6383 286.537 80.3266 288.298 80.3266 290.585C80.28 292.172 79.8366 293.537 78.9966 294.68C78.1566 295.823 76.9666 296.605 75.4266 297.025L81.6916 307H79.1016L73.1866 297.375C73.0466 297.398 72.825 297.41 72.5216 297.41ZM91.2204 307H89.0854V289.255H91.2204V292.265C92.2004 290.118 93.8571 289.045 96.1904 289.045C96.3537 289.045 96.6454 289.068 97.0654 289.115V291.285C96.5987 291.145 96.1321 291.075 95.6654 291.075C94.4054 291.075 93.3437 291.705 92.4804 292.965C91.6404 294.202 91.2204 295.578 91.2204 297.095V307ZM129.778 300.91C129.778 302.963 129.089 304.538 127.713 305.635C126.336 306.708 124.574 307.245 122.428 307.245C120.001 307.245 117.936 306.732 116.233 305.705V303.29C116.933 303.827 117.831 304.27 118.928 304.62C120.048 304.97 121.179 305.145 122.323 305.145C123.979 305.145 125.263 304.783 126.173 304.06C127.106 303.337 127.573 302.298 127.573 300.945C127.573 299.918 127.223 299.09 126.523 298.46C125.823 297.807 124.808 297.188 123.478 296.605C123.291 296.512 122.883 296.337 122.253 296.08C121.623 295.8 121.179 295.602 120.923 295.485C120.666 295.368 120.269 295.17 119.733 294.89C119.196 294.61 118.799 294.365 118.543 294.155C118.309 293.945 118.006 293.665 117.633 293.315C117.259 292.965 116.991 292.615 116.828 292.265C116.664 291.915 116.513 291.507 116.373 291.04C116.233 290.55 116.163 290.037 116.163 289.5C116.163 287.517 116.874 285.977 118.298 284.88C119.721 283.76 121.459 283.2 123.513 283.2C125.473 283.2 127.106 283.55 128.413 284.25V286.665C127.853 286.292 127.118 285.977 126.208 285.72C125.298 285.463 124.411 285.335 123.548 285.335C121.984 285.335 120.736 285.708 119.803 286.455C118.869 287.178 118.403 288.147 118.403 289.36C118.403 289.99 118.519 290.55 118.753 291.04C119.009 291.53 119.429 291.985 120.013 292.405C120.596 292.802 121.098 293.117 121.518 293.35C121.961 293.56 122.626 293.852 123.513 294.225C124.329 294.575 124.948 294.855 125.368 295.065C125.788 295.252 126.324 295.555 126.978 295.975C127.631 296.395 128.121 296.815 128.448 297.235C128.798 297.632 129.101 298.157 129.358 298.81C129.638 299.44 129.778 300.14 129.778 300.91ZM148.9 302.45C148.9 303.92 148.387 305.087 147.36 305.95C146.357 306.79 144.968 307.21 143.195 307.21C141.048 307.21 139.322 306.86 138.015 306.16V303.955C139.578 304.842 141.258 305.285 143.055 305.285C144.245 305.285 145.143 305.04 145.75 304.55C146.38 304.06 146.695 303.418 146.695 302.625C146.695 301.692 146.368 300.968 145.715 300.455C145.085 299.942 144.035 299.393 142.565 298.81C141.142 298.25 140.01 297.597 139.17 296.85C138.33 296.103 137.91 295.077 137.91 293.77C137.91 292.347 138.435 291.215 139.485 290.375C140.535 289.512 141.853 289.08 143.44 289.08C145.353 289.08 146.823 289.348 147.85 289.885V292.02C146.753 291.39 145.272 291.075 143.405 291.075C142.378 291.075 141.562 291.32 140.955 291.81C140.372 292.277 140.08 292.895 140.08 293.665C140.08 294.132 140.162 294.54 140.325 294.89C140.512 295.24 140.815 295.567 141.235 295.87C141.678 296.15 142.052 296.36 142.355 296.5C142.658 296.64 143.148 296.85 143.825 297.13C145.458 297.783 146.707 298.507 147.57 299.3C148.457 300.07 148.9 301.12 148.9 302.45ZM182.06 285.405H175.515V307H173.345V285.405H166.835V283.41H182.06V285.405ZM197.595 306.51C196.918 306.953 196.136 307.175 195.25 307.175C191.89 307.175 190.21 305.448 190.21 301.995V291.075H187.305V289.255H190.21V284.81H192.38V289.255H197.455V291.075H192.38V302.1C192.38 304.13 193.325 305.145 195.215 305.145C196.148 305.145 196.941 304.877 197.595 304.34V306.51ZM234.92 298.075C234.92 301.108 234.185 303.407 232.715 304.97C231.245 306.51 229.169 307.28 226.485 307.28C223.849 307.28 221.795 306.522 220.325 305.005C218.879 303.488 218.155 301.272 218.155 298.355V283.41H220.325V298.32C220.325 300.677 220.874 302.415 221.97 303.535C223.09 304.632 224.595 305.18 226.485 305.18C230.662 305.18 232.75 302.835 232.75 298.145V283.41H234.92V298.075ZM257.414 307H255.279V303.815C254.345 306.102 252.467 307.245 249.644 307.245C247.917 307.245 246.54 306.732 245.514 305.705C244.51 304.655 244.009 303.278 244.009 301.575V289.255H246.144V300.98C246.144 302.333 246.494 303.372 247.194 304.095C247.917 304.818 248.862 305.18 250.029 305.18C251.592 305.18 252.852 304.62 253.809 303.5C254.789 302.38 255.279 300.922 255.279 299.125V289.255H257.414V307ZM12.39 370H9.415L1.4 346.41H3.745L6.86 355.755L10.92 368.075L15.12 355.755L18.34 346.41H20.685L12.39 370ZM35.9751 370H33.1051L26.9801 352.255H29.2201L31.7051 359.71L34.5401 368.285C34.7734 367.422 35.7417 364.563 37.4451 359.71L40.0351 352.255H42.2751L35.9751 370ZM70.0041 370H67.0291L60.9041 346.41H63.1791L65.3841 355.16L68.5691 367.795C70.1324 362.218 71.3341 358.007 72.1741 355.16L74.6241 346.76H77.1791L79.8041 355.195L83.7241 367.935C85.0074 361.962 85.9291 357.727 86.4891 355.23L88.4491 346.41H90.6191L85.2641 370H82.2891L79.9441 362.545L75.9541 349.595C75.0674 352.815 73.8191 357.132 72.2091 362.545L70.0041 370ZM105.204 370H102.334L96.909 352.255H99.254L101.004 358.135C101.657 360.328 102.206 362.242 102.649 363.875C103.116 365.485 103.419 366.547 103.559 367.06L103.734 367.865C104.154 366.348 105.087 363.093 106.534 358.1L108.214 352.255H110.734L112.484 358.1L115.354 367.935C115.727 366.558 116.719 363.28 118.329 358.1L120.149 352.255H122.389L116.789 370H113.919L112.204 364.19L109.474 354.74C109.077 356.21 108.202 359.36 106.849 364.19L105.204 370ZM143.609 370H141.089L148.719 358.1L141.544 346.41H144.064L149.909 356.14L155.754 346.41H158.274L151.134 358.1L159.149 370H156.629L149.944 359.955L143.609 370ZM167.815 370H165.4L171.245 360.865L165.75 352.22H168.27L172.61 359.22L176.915 352.22H179.4L173.835 360.9L179.785 370H177.23L172.575 362.545L167.815 370ZM208.101 361.18V370H205.931V361.18L197.951 346.41H200.436L202.291 349.875L207.016 358.975C207.203 358.532 208.801 355.498 211.811 349.875L213.666 346.41H216.151L208.101 361.18ZM230.819 369.545C229.932 371.948 228.882 373.605 227.669 374.515C226.455 375.425 225.079 375.88 223.539 375.88C223.072 375.88 222.629 375.822 222.209 375.705V373.605C222.629 373.722 223.025 373.78 223.399 373.78C225.895 373.78 227.634 372.357 228.614 369.51L221.369 352.255H223.819L226.234 358.205L229.664 366.745C229.827 366.208 230.842 363.362 232.709 358.205L234.879 352.255H237.259L230.819 369.545ZM271.79 370H255.865V368.075L268.815 348.335H256.005V346.41H271.265V348.335L258.315 368.075H271.79V370ZM291.414 370H278.954V368.215L288.264 354.32H279.304V352.255H290.924V353.865L281.474 367.9H291.414V370Z" fill="#4F5C6F"/>
</svg>
