<svg width="714" height="172" viewBox="0 0 714 172" fill="none" xmlns="http://www.w3.org/2000/svg">
<path d="M0 128.579H7.60853C12.5128 128.579 16.1567 129.191 18.5401 130.413C20.9235 131.62 22.8867 133.591 24.4298 136.325C25.9729 139.06 26.7444 142.253 26.7444 145.905C26.7444 148.502 26.309 150.893 25.4382 153.078C24.5826 155.248 23.3909 157.05 21.8631 158.486C20.3505 159.923 18.7081 160.916 16.9358 161.466C15.1636 162.016 12.0927 162.291 7.72311 162.291H0V128.579ZM6.39391 134.767V156.011H9.37316C12.3066 156.011 14.4302 155.675 15.7442 155.003C17.0734 154.331 18.1581 153.2 18.9984 151.611C19.8387 150.022 20.2589 148.067 20.2589 145.744C20.2589 142.169 19.2581 139.396 17.2567 137.426C15.4539 135.653 12.5587 134.767 8.57105 134.767H6.39391Z" fill="url(#paint0_linear_1553_1072)"/>
<path d="M57.1327 151.634H37.0343C37.3246 153.406 38.0961 154.82 39.3489 155.874C40.617 156.913 42.2289 157.432 44.1845 157.432C46.522 157.432 48.5311 156.615 50.2117 154.98L55.4827 157.455C54.1687 159.319 52.5951 160.702 50.7617 161.603C48.9283 162.489 46.7512 162.932 44.2303 162.932C40.3191 162.932 37.1336 161.703 34.6738 159.243C32.214 156.768 30.9841 153.674 30.9841 149.961C30.9841 146.157 32.2064 143.002 34.6509 140.496C37.1107 137.976 40.1892 136.715 43.8865 136.715C47.813 136.715 51.0062 137.976 53.4659 140.496C55.9257 143.002 57.1556 146.317 57.1556 150.443L57.1327 151.634ZM50.8534 146.707C50.4409 145.317 49.6235 144.186 48.4012 143.315C47.1943 142.444 45.7887 142.009 44.1845 142.009C42.4428 142.009 40.9149 142.498 39.601 143.476C38.776 144.087 38.0121 145.164 37.3093 146.707H50.8534Z" fill="url(#paint1_linear_1553_1072)"/>
<path d="M86.6272 142.399L81.425 145.263C80.4472 144.24 79.477 143.529 78.5145 143.132C77.5673 142.735 76.452 142.536 75.1686 142.536C72.831 142.536 70.9365 143.239 69.4851 144.644C68.049 146.035 67.3309 147.822 67.3309 150.007C67.3309 152.131 68.026 153.865 69.4164 155.209C70.8067 156.554 72.6324 157.226 74.8936 157.226C77.6895 157.226 79.8666 156.271 81.425 154.361L86.3522 157.73C83.6785 161.198 79.9048 162.932 75.0311 162.932C70.6462 162.932 67.2087 161.634 64.7183 159.036C62.2433 156.439 61.0057 153.399 61.0057 149.915C61.0057 147.501 61.6092 145.279 62.8162 143.247C64.0232 141.215 65.7038 139.618 67.858 138.457C70.0275 137.296 72.4491 136.715 75.1228 136.715C77.5978 136.715 79.8208 137.212 81.7917 138.205C83.7626 139.183 85.3744 140.58 86.6272 142.399Z" fill="url(#paint2_linear_1553_1072)"/>
<path d="M117.268 151.634H97.1691C97.4594 153.406 98.231 154.82 99.4838 155.874C100.752 156.913 102.364 157.432 104.319 157.432C106.657 157.432 108.666 156.615 110.347 154.98L115.618 157.455C114.304 159.319 112.73 160.702 110.897 161.603C109.063 162.489 106.886 162.932 104.365 162.932C100.454 162.932 97.2685 161.703 94.8087 159.243C92.3489 156.768 91.119 153.674 91.119 149.961C91.119 146.157 92.3412 143.002 94.7858 140.496C97.2455 137.976 100.324 136.715 104.021 136.715C107.948 136.715 111.141 137.976 113.601 140.496C116.061 143.002 117.29 146.317 117.29 150.443L117.268 151.634ZM110.988 146.707C110.576 145.317 109.758 144.186 108.536 143.315C107.329 142.444 105.924 142.009 104.319 142.009C102.578 142.009 101.05 142.498 99.7359 143.476C98.9109 144.087 98.147 145.164 97.4442 146.707H110.988Z" fill="url(#paint3_linear_1553_1072)"/>
<path d="M122.355 137.357H128.589V139.901C130.01 138.709 131.293 137.884 132.439 137.426C133.6 136.952 134.784 136.715 135.991 136.715C138.466 136.715 140.567 137.578 142.293 139.305C143.745 140.771 144.47 142.941 144.47 145.813V162.291H138.283V151.359C138.283 148.38 138.145 146.401 137.87 145.424C137.61 144.446 137.144 143.705 136.472 143.201C135.815 142.681 134.998 142.421 134.02 142.421C132.752 142.421 131.66 142.849 130.743 143.705C129.842 144.545 129.215 145.714 128.864 147.211C128.68 147.99 128.589 149.679 128.589 152.276V162.291H122.355V137.357Z" fill="url(#paint4_linear_1553_1072)"/>
<path d="M151.3 128.167H157.533V137.357H161.246V142.742H157.533V162.291H151.3V142.742H148.091V137.357H151.3V128.167Z" fill="url(#paint5_linear_1553_1072)"/>
<path d="M174.996 137.357H181.115L186.134 151.543L191.542 137.357H195.278L200.572 151.382L205.591 137.357H211.755L202.657 162.291H198.693L193.376 148.082L187.899 162.291H183.98L174.996 137.357Z" fill="url(#paint6_linear_1553_1072)"/>
<path d="M227.018 136.715C229.371 136.715 231.579 137.303 233.641 138.48C235.719 139.656 237.339 141.253 238.5 143.269C239.661 145.286 240.242 147.463 240.242 149.801C240.242 152.154 239.653 154.354 238.477 156.401C237.316 158.448 235.727 160.052 233.71 161.214C231.693 162.359 229.47 162.932 227.041 162.932C223.466 162.932 220.41 161.664 217.874 159.128C215.353 156.577 214.093 153.483 214.093 149.847C214.093 145.951 215.521 142.704 218.378 140.107C220.884 137.846 223.764 136.715 227.018 136.715ZM227.11 142.605C225.17 142.605 223.55 143.285 222.252 144.644C220.968 145.989 220.326 147.715 220.326 149.824C220.326 151.993 220.961 153.75 222.229 155.095C223.512 156.439 225.131 157.111 227.087 157.111C229.043 157.111 230.67 156.432 231.968 155.072C233.267 153.712 233.916 151.963 233.916 149.824C233.916 147.685 233.275 145.951 231.991 144.622C230.723 143.277 229.096 142.605 227.11 142.605Z" fill="url(#paint7_linear_1553_1072)"/>
<path d="M243.908 137.357H249.271V140.496C249.852 139.259 250.623 138.319 251.586 137.678C252.548 137.036 253.602 136.715 254.748 136.715C255.558 136.715 256.406 136.929 257.292 137.357L255.344 142.742C254.611 142.376 254.007 142.192 253.534 142.192C252.571 142.192 251.754 142.788 251.081 143.98C250.424 145.172 250.096 147.509 250.096 150.993L250.119 152.207V162.291H243.908V137.357Z" fill="url(#paint8_linear_1553_1072)"/>
<path d="M260.455 127.732H266.711V147.647L275.924 137.357H283.761L273.036 149.32L285.068 162.291H277.299L266.711 150.809V162.291H260.455V127.732Z" fill="url(#paint9_linear_1553_1072)"/>
<path d="M297.81 137.357H300.033C300.048 134.087 300.101 132.155 300.193 131.559C300.361 130.184 300.934 129.099 301.912 128.304C302.905 127.495 304.303 127.09 306.106 127.09C307.404 127.09 308.871 127.388 310.506 127.984V132.75C309.604 132.491 308.863 132.361 308.283 132.361C307.55 132.361 307.015 132.514 306.679 132.819C306.434 133.048 306.312 133.522 306.312 134.24L306.289 137.357H310.254V142.674H306.289V162.291H300.033V142.674H297.81V137.357Z" fill="url(#paint10_linear_1553_1072)"/>
<path d="M325.654 136.715C328.007 136.715 330.215 137.303 332.277 138.48C334.355 139.656 335.975 141.253 337.136 143.269C338.297 145.286 338.877 147.463 338.877 149.801C338.877 152.154 338.289 154.354 337.113 156.401C335.952 158.448 334.363 160.052 332.346 161.214C330.329 162.359 328.106 162.932 325.677 162.932C322.102 162.932 319.046 161.664 316.51 159.128C313.989 156.577 312.729 153.483 312.729 149.847C312.729 145.951 314.157 142.704 317.014 140.107C319.52 137.846 322.4 136.715 325.654 136.715ZM325.746 142.605C323.805 142.605 322.186 143.285 320.887 144.644C319.604 145.989 318.962 147.715 318.962 149.824C318.962 151.993 319.596 153.75 320.864 155.095C322.148 156.439 323.767 157.111 325.723 157.111C327.679 157.111 329.306 156.432 330.604 155.072C331.903 153.712 332.552 151.963 332.552 149.824C332.552 147.685 331.911 145.951 330.627 144.622C329.359 143.277 327.732 142.605 325.746 142.605Z" fill="url(#paint11_linear_1553_1072)"/>
<path d="M342.544 137.357H347.907V140.496C348.487 139.259 349.259 138.319 350.221 137.678C351.184 137.036 352.238 136.715 353.384 136.715C354.194 136.715 355.042 136.929 355.928 137.357L353.98 142.742C353.247 142.376 352.643 142.192 352.169 142.192C351.207 142.192 350.39 142.788 349.717 143.98C349.06 145.172 348.732 147.509 348.732 150.993L348.755 152.207V162.291H342.544V137.357Z" fill="url(#paint12_linear_1553_1072)"/>
<path d="M390.625 127.732H396.858V162.291H390.625V159.655C389.402 160.816 388.172 161.657 386.935 162.176C385.713 162.68 384.383 162.932 382.947 162.932C379.724 162.932 376.935 161.687 374.582 159.197C372.23 156.691 371.053 153.582 371.053 149.87C371.053 146.019 372.191 142.865 374.468 140.405C376.744 137.945 379.51 136.715 382.764 136.715C384.261 136.715 385.667 136.998 386.981 137.563C388.295 138.128 389.509 138.976 390.625 140.107V127.732ZM384.047 142.49C382.107 142.49 380.495 143.178 379.212 144.553C377.928 145.913 377.287 147.662 377.287 149.801C377.287 151.955 377.936 153.727 379.235 155.118C380.549 156.508 382.16 157.203 384.07 157.203C386.041 157.203 387.676 156.523 388.975 155.163C390.273 153.788 390.922 151.993 390.922 149.778C390.922 147.608 390.273 145.851 388.975 144.507C387.676 143.162 386.033 142.49 384.047 142.49Z" fill="url(#paint13_linear_1553_1072)"/>
<path d="M428.163 151.634H408.065C408.355 153.406 409.126 154.82 410.379 155.874C411.647 156.913 413.259 157.432 415.215 157.432C417.552 157.432 419.561 156.615 421.242 154.98L426.513 157.455C425.199 159.319 423.625 160.702 421.792 161.603C419.959 162.489 417.782 162.932 415.261 162.932C411.349 162.932 408.164 161.703 405.704 159.243C403.244 156.768 402.014 153.674 402.014 149.961C402.014 146.157 403.237 143.002 405.681 140.496C408.141 137.976 411.22 136.715 414.917 136.715C418.843 136.715 422.036 137.976 424.496 140.496C426.956 143.002 428.186 146.317 428.186 150.443L428.163 151.634ZM421.884 146.707C421.471 145.317 420.654 144.186 419.432 143.315C418.225 142.444 416.819 142.009 415.215 142.009C413.473 142.009 411.945 142.498 410.631 143.476C409.806 144.087 409.042 145.164 408.34 146.707H421.884Z" fill="url(#paint14_linear_1553_1072)"/>
<path d="M457.658 142.399L452.455 145.263C451.478 144.24 450.507 143.529 449.545 143.132C448.598 142.735 447.482 142.536 446.199 142.536C443.861 142.536 441.967 143.239 440.515 144.644C439.079 146.035 438.361 147.822 438.361 150.007C438.361 152.131 439.056 153.865 440.447 155.209C441.837 156.554 443.663 157.226 445.924 157.226C448.72 157.226 450.897 156.271 452.455 154.361L457.383 157.73C454.709 161.198 450.935 162.932 446.061 162.932C441.677 162.932 438.239 161.634 435.749 159.036C433.274 156.439 432.036 153.399 432.036 149.915C432.036 147.501 432.64 145.279 433.847 143.247C435.053 141.215 436.734 139.618 438.888 138.457C441.058 137.296 443.479 136.715 446.153 136.715C448.628 136.715 450.851 137.212 452.822 138.205C454.793 139.183 456.405 140.58 457.658 142.399Z" fill="url(#paint15_linear_1553_1072)"/>
<path d="M488.298 151.634H468.199C468.49 153.406 469.261 154.82 470.514 155.874C471.782 156.913 473.394 157.432 475.35 157.432C477.687 157.432 479.696 156.615 481.377 154.98L486.648 157.455C485.334 159.319 483.76 160.702 481.927 161.603C480.094 162.489 477.916 162.932 475.395 162.932C471.484 162.932 468.299 161.703 465.839 159.243C463.379 156.768 462.149 153.674 462.149 149.961C462.149 146.157 463.372 143.002 465.816 140.496C468.276 137.976 471.354 136.715 475.052 136.715C478.978 136.715 482.171 137.976 484.631 140.496C487.091 143.002 488.321 146.317 488.321 150.443L488.298 151.634ZM482.019 146.707C481.606 145.317 480.789 144.186 479.566 143.315C478.359 142.444 476.954 142.009 475.35 142.009C473.608 142.009 472.08 142.498 470.766 143.476C469.941 144.087 469.177 145.164 468.474 146.707H482.019Z" fill="url(#paint16_linear_1553_1072)"/>
<path d="M493.386 137.357H499.619V139.901C501.04 138.709 502.323 137.884 503.469 137.426C504.63 136.952 505.814 136.715 507.021 136.715C509.496 136.715 511.597 137.578 513.324 139.305C514.775 140.771 515.501 142.941 515.501 145.813V162.291H509.313V151.359C509.313 148.38 509.176 146.401 508.901 145.424C508.641 144.446 508.175 143.705 507.503 143.201C506.846 142.681 506.028 142.421 505.05 142.421C503.782 142.421 502.69 142.849 501.773 143.705C500.872 144.545 500.245 145.714 499.894 147.211C499.711 147.99 499.619 149.679 499.619 152.276V162.291H493.386V137.357Z" fill="url(#paint17_linear_1553_1072)"/>
<path d="M522.33 128.167H528.564V137.357H532.276V142.742H528.564V162.291H522.33V142.742H519.122V137.357H522.33V128.167Z" fill="url(#paint18_linear_1553_1072)"/>
<path d="M555.01 137.357V140.107C556.141 138.976 557.363 138.128 558.677 137.563C559.991 136.998 561.396 136.715 562.894 136.715C566.148 136.715 568.913 137.945 571.19 140.405C573.466 142.865 574.604 146.019 574.604 149.87C574.604 153.582 573.428 156.691 571.075 159.197C568.722 161.687 565.934 162.932 562.71 162.932C561.274 162.932 559.937 162.68 558.7 162.176C557.462 161.657 556.232 160.816 555.01 159.655V171.412H548.799V137.357H555.01ZM561.587 142.49C559.616 142.49 557.982 143.162 556.683 144.507C555.384 145.851 554.735 147.608 554.735 149.778C554.735 151.993 555.384 153.788 556.683 155.163C557.982 156.523 559.616 157.203 561.587 157.203C563.497 157.203 565.101 156.508 566.4 155.118C567.714 153.727 568.371 151.955 568.371 149.801C568.371 147.662 567.729 145.913 566.446 144.553C565.162 143.178 563.543 142.49 561.587 142.49Z" fill="url(#paint19_linear_1553_1072)"/>
<path d="M604.763 151.634H584.665C584.955 153.406 585.727 154.82 586.98 155.874C588.248 156.913 589.86 157.432 591.815 157.432C594.153 157.432 596.162 156.615 597.842 154.98L603.113 157.455C601.799 159.319 600.226 160.702 598.392 161.603C596.559 162.489 594.382 162.932 591.861 162.932C587.95 162.932 584.764 161.703 582.304 159.243C579.845 156.768 578.615 153.674 578.615 149.961C578.615 146.157 579.837 143.002 582.282 140.496C584.741 137.976 587.82 136.715 591.517 136.715C595.444 136.715 598.637 137.976 601.097 140.496C603.556 143.002 604.786 146.317 604.786 150.443L604.763 151.634ZM598.484 146.707C598.072 145.317 597.254 144.186 596.032 143.315C594.825 142.444 593.419 142.009 591.815 142.009C590.073 142.009 588.546 142.498 587.232 143.476C586.407 144.087 585.643 145.164 584.94 146.707H598.484Z" fill="url(#paint20_linear_1553_1072)"/>
<path d="M621.562 136.715C623.915 136.715 626.122 137.303 628.185 138.48C630.263 139.656 631.882 141.253 633.043 143.269C634.204 145.286 634.785 147.463 634.785 149.801C634.785 152.154 634.197 154.354 633.02 156.401C631.859 158.448 630.27 160.052 628.254 161.214C626.237 162.359 624.014 162.932 621.585 162.932C618.01 162.932 614.954 161.664 612.418 159.128C609.897 156.577 608.636 153.483 608.636 149.847C608.636 145.951 610.065 142.704 612.922 140.107C615.428 137.846 618.307 136.715 621.562 136.715ZM621.653 142.605C619.713 142.605 618.094 143.285 616.795 144.644C615.512 145.989 614.87 147.715 614.87 149.824C614.87 151.993 615.504 153.75 616.772 155.095C618.055 156.439 619.675 157.111 621.63 157.111C623.586 157.111 625.213 156.432 626.512 155.072C627.81 153.712 628.46 151.963 628.46 149.824C628.46 147.685 627.818 145.951 626.535 144.622C625.267 143.277 623.64 142.605 621.653 142.605Z" fill="url(#paint21_linear_1553_1072)"/>
<path d="M646.129 137.357V140.107C647.26 138.976 648.482 138.128 649.796 137.563C651.11 136.998 652.515 136.715 654.013 136.715C657.267 136.715 660.032 137.945 662.309 140.405C664.585 142.865 665.723 146.019 665.723 149.87C665.723 153.582 664.547 156.691 662.194 159.197C659.841 161.687 657.053 162.932 653.829 162.932C652.393 162.932 651.056 162.68 649.819 162.176C648.581 161.657 647.351 160.816 646.129 159.655V171.412H639.918V137.357H646.129ZM652.706 142.49C650.735 142.49 649.101 143.162 647.802 144.507C646.503 145.851 645.854 147.608 645.854 149.778C645.854 151.993 646.503 153.788 647.802 155.163C649.101 156.523 650.735 157.203 652.706 157.203C654.616 157.203 656.22 156.508 657.519 155.118C658.833 153.727 659.49 151.955 659.49 149.801C659.49 147.662 658.848 145.913 657.565 144.553C656.281 143.178 654.662 142.49 652.706 142.49Z" fill="url(#paint22_linear_1553_1072)"/>
<path d="M670.238 127.732H676.494V162.291H670.238V127.732Z" fill="url(#paint23_linear_1553_1072)"/>
<path d="M707.158 151.634H687.059C687.35 153.406 688.121 154.82 689.374 155.874C690.642 156.913 692.254 157.432 694.209 157.432C696.547 157.432 698.556 156.615 700.237 154.98L705.508 157.455C704.194 159.319 702.62 160.702 700.787 161.603C698.953 162.489 696.776 162.932 694.255 162.932C690.344 162.932 687.159 161.703 684.699 159.243C682.239 156.768 681.009 153.674 681.009 149.961C681.009 146.157 682.231 143.002 684.676 140.496C687.136 137.976 690.214 136.715 693.911 136.715C697.838 136.715 701.031 137.976 703.491 140.496C705.951 143.002 707.181 146.317 707.181 150.443L707.158 151.634ZM700.878 146.707C700.466 145.317 699.648 144.186 698.426 143.315C697.219 142.444 695.814 142.009 694.209 142.009C692.468 142.009 690.94 142.498 689.626 143.476C688.801 144.087 688.037 145.164 687.334 146.707H700.878Z" fill="url(#paint24_linear_1553_1072)"/>
<path d="M75.8419 2.49921V89.9107H63.2261V52.4835H12.7017V89.9107H0.0859375V2.49921H12.7017V39.9874H63.2261V2.49921H75.8419Z" fill="#3ADFDC"/>
<path fill-rule="evenodd" clip-rule="evenodd" d="M390.681 33.7089C390.681 45.9002 385.43 52.8492 374.927 54.556L391.543 89.9107H377.573L361.203 54.9827H333.572V89.9107H320.956V2.49921H369.265C383.543 2.49921 390.681 9.59048 390.681 23.773V33.7089ZM368.588 42.4866H333.572V14.9953H368.588C371.953 14.9953 374.373 15.7268 375.85 17.1897C377.327 18.6527 378.065 21.0503 378.065 24.3826V33.0993C378.065 36.4316 377.327 38.8292 375.85 40.2922C374.373 41.7551 371.953 42.4866 368.588 42.4866Z" fill="#3ADFDC"/>
<path d="M97.3194 24.9921H109.381V77.9023H143.167V24.9921H155.29V89.9107H143.167V78.9386C143.044 80.4422 142.633 81.8645 141.936 83.2055C141.239 84.5466 140.336 85.7251 139.228 86.741C138.162 87.7163 136.931 88.4884 135.536 89.0573C134.141 89.6263 132.664 89.9107 131.105 89.9107H109.381C107.74 89.9107 106.181 89.6059 104.704 88.9964C103.227 88.3462 101.935 87.4928 100.827 86.4362C99.7605 85.339 98.8989 84.0589 98.2425 82.596C97.6271 81.133 97.3194 79.5684 97.3194 77.9023V24.9921Z" fill="#35BCFF"/>
<path d="M233.446 89.9107H221.323V37.0005H187.537V89.9107H175.475V24.9921H187.537V36.4519C187.619 34.8671 187.989 33.3838 188.645 32.0021C189.301 30.5798 190.163 29.3607 191.23 28.3447C192.337 27.2882 193.609 26.4754 195.045 25.9065C196.481 25.2969 198.02 24.9921 199.661 24.9921H221.323C223.005 24.9921 224.584 25.3172 226.061 25.9674C227.538 26.577 228.81 27.4304 229.877 28.5276C230.985 29.5842 231.846 30.8439 232.461 32.3069C233.118 33.7699 233.446 35.3344 233.446 37.0005V89.9107Z" fill="#35BCFF"/>
<path d="M249.816 24.9921H265.816V4.99843H277.94V24.9921H299.479V37.0005H277.94V77.9023H299.479V89.9107H277.94C276.299 89.9107 274.74 89.6059 273.263 88.9964C271.786 88.3462 270.493 87.4928 269.386 86.4362C268.278 85.339 267.396 84.0589 266.739 82.596C266.124 81.133 265.816 79.5684 265.816 77.9023V37.0005H249.816V24.9921Z" fill="#35BCFF"/>
<path fill-rule="evenodd" clip-rule="evenodd" d="M466.006 63.5775H422.621V77.9023H466.006V89.9107H422.621C420.979 89.9107 419.42 89.6059 417.943 88.9964C416.467 88.3462 415.174 87.4928 414.066 86.4362C413 85.339 412.138 84.0589 411.482 82.596C410.866 81.133 410.559 79.5684 410.559 77.9023V37.0005C410.559 35.3344 410.866 33.7699 411.482 32.3069C412.138 30.8439 413 29.5842 414.066 28.5276C415.174 27.4304 416.467 26.577 417.943 25.9674C419.42 25.3172 420.979 24.9921 422.621 24.9921H453.883C455.565 24.9921 457.145 25.3172 458.622 25.9674C460.098 26.577 461.37 27.4304 462.437 28.5276C463.545 29.5842 464.406 30.8439 465.022 32.3069C465.678 33.7699 466.006 35.3344 466.006 37.0005V63.5775ZM422.621 51.5691V37.0005H453.883V51.5691H422.621Z" fill="#35BCFF"/>
<path d="M525.823 77.9023V62.8461H497.084C495.402 62.8461 493.822 62.5413 492.346 61.9317C490.869 61.2815 489.576 60.4281 488.468 59.3716C487.402 58.2743 486.54 56.9943 485.884 55.5313C485.268 54.0683 484.961 52.5038 484.961 50.8377V37.0005C484.961 35.3344 485.268 33.7699 485.884 32.3069C486.54 30.8439 487.402 29.5842 488.468 28.5276C489.576 27.4304 490.869 26.577 492.346 25.9674C493.822 25.3172 495.402 24.9921 497.084 24.9921H535.424V37.0005H497.084V50.8377H525.823C527.505 50.8377 529.065 51.1628 530.5 51.813C531.977 52.4225 533.27 53.2759 534.377 54.3731C535.485 55.4297 536.347 56.6895 536.962 58.1524C537.619 59.6154 537.947 61.1799 537.947 62.8461V77.9023C537.947 79.5684 537.619 81.133 536.962 82.596C536.347 84.0589 535.485 85.339 534.377 86.4362C533.27 87.4928 531.977 88.3462 530.5 88.9964C529.065 89.6059 527.505 89.9107 525.823 89.9107H484.961V77.9023H525.823Z" fill="#35BCFF"/>
<path d="M556.901 24.9921H568.963V77.9023H602.749V24.9921H614.872V89.9107H602.749V78.9386C602.625 80.4422 602.215 81.8645 601.518 83.2055C600.82 84.5466 599.918 85.7251 598.81 86.741C597.743 87.7163 596.512 88.4884 595.118 89.0573C593.723 89.6263 592.246 89.9107 590.687 89.9107H568.963C567.322 89.9107 565.763 89.6059 564.286 88.9964C562.809 88.3462 561.517 87.4928 560.409 86.4362C559.342 85.339 558.481 84.0589 557.824 82.596C557.209 81.133 556.901 79.5684 556.901 77.9023V24.9921Z" fill="#35BCFF"/>
<path d="M647.119 0V89.9107H635.057V0H647.119Z" fill="#35BCFF"/>
<path d="M663.489 24.9921H679.489V4.99843H691.612V24.9921H713.152V37.0005H691.612V77.9023H713.152V89.9107H691.612C689.971 89.9107 688.412 89.6059 686.935 88.9964C685.458 88.3462 684.166 87.4928 683.058 86.4362C681.951 85.339 681.069 84.0589 680.412 82.596C679.797 81.133 679.489 79.5684 679.489 77.9023V37.0005H663.489V24.9921Z" fill="#35BCFF"/>
<defs>
<linearGradient id="paint0_linear_1553_1072" x1="22.666" y1="147.118" x2="620.143" y2="147.119" gradientUnits="userSpaceOnUse">
<stop stop-color="#35BCFF"/>
<stop offset="1" stop-color="#3ADFDC"/>
</linearGradient>
<linearGradient id="paint1_linear_1553_1072" x1="22.666" y1="147.118" x2="620.143" y2="147.119" gradientUnits="userSpaceOnUse">
<stop stop-color="#35BCFF"/>
<stop offset="1" stop-color="#3ADFDC"/>
</linearGradient>
<linearGradient id="paint2_linear_1553_1072" x1="22.666" y1="147.118" x2="620.143" y2="147.119" gradientUnits="userSpaceOnUse">
<stop stop-color="#35BCFF"/>
<stop offset="1" stop-color="#3ADFDC"/>
</linearGradient>
<linearGradient id="paint3_linear_1553_1072" x1="22.666" y1="147.118" x2="620.143" y2="147.119" gradientUnits="userSpaceOnUse">
<stop stop-color="#35BCFF"/>
<stop offset="1" stop-color="#3ADFDC"/>
</linearGradient>
<linearGradient id="paint4_linear_1553_1072" x1="22.666" y1="147.118" x2="620.143" y2="147.119" gradientUnits="userSpaceOnUse">
<stop stop-color="#35BCFF"/>
<stop offset="1" stop-color="#3ADFDC"/>
</linearGradient>
<linearGradient id="paint5_linear_1553_1072" x1="22.666" y1="147.118" x2="620.143" y2="147.119" gradientUnits="userSpaceOnUse">
<stop stop-color="#35BCFF"/>
<stop offset="1" stop-color="#3ADFDC"/>
</linearGradient>
<linearGradient id="paint6_linear_1553_1072" x1="22.666" y1="147.118" x2="620.143" y2="147.119" gradientUnits="userSpaceOnUse">
<stop stop-color="#35BCFF"/>
<stop offset="1" stop-color="#3ADFDC"/>
</linearGradient>
<linearGradient id="paint7_linear_1553_1072" x1="22.666" y1="147.118" x2="620.143" y2="147.119" gradientUnits="userSpaceOnUse">
<stop stop-color="#35BCFF"/>
<stop offset="1" stop-color="#3ADFDC"/>
</linearGradient>
<linearGradient id="paint8_linear_1553_1072" x1="22.666" y1="147.118" x2="620.143" y2="147.119" gradientUnits="userSpaceOnUse">
<stop stop-color="#35BCFF"/>
<stop offset="1" stop-color="#3ADFDC"/>
</linearGradient>
<linearGradient id="paint9_linear_1553_1072" x1="22.666" y1="147.118" x2="620.143" y2="147.119" gradientUnits="userSpaceOnUse">
<stop stop-color="#35BCFF"/>
<stop offset="1" stop-color="#3ADFDC"/>
</linearGradient>
<linearGradient id="paint10_linear_1553_1072" x1="22.666" y1="147.118" x2="620.143" y2="147.119" gradientUnits="userSpaceOnUse">
<stop stop-color="#35BCFF"/>
<stop offset="1" stop-color="#3ADFDC"/>
</linearGradient>
<linearGradient id="paint11_linear_1553_1072" x1="22.666" y1="147.118" x2="620.143" y2="147.119" gradientUnits="userSpaceOnUse">
<stop stop-color="#35BCFF"/>
<stop offset="1" stop-color="#3ADFDC"/>
</linearGradient>
<linearGradient id="paint12_linear_1553_1072" x1="22.666" y1="147.118" x2="620.143" y2="147.119" gradientUnits="userSpaceOnUse">
<stop stop-color="#35BCFF"/>
<stop offset="1" stop-color="#3ADFDC"/>
</linearGradient>
<linearGradient id="paint13_linear_1553_1072" x1="22.666" y1="147.118" x2="620.143" y2="147.119" gradientUnits="userSpaceOnUse">
<stop stop-color="#35BCFF"/>
<stop offset="1" stop-color="#3ADFDC"/>
</linearGradient>
<linearGradient id="paint14_linear_1553_1072" x1="22.666" y1="147.118" x2="620.143" y2="147.119" gradientUnits="userSpaceOnUse">
<stop stop-color="#35BCFF"/>
<stop offset="1" stop-color="#3ADFDC"/>
</linearGradient>
<linearGradient id="paint15_linear_1553_1072" x1="22.666" y1="147.118" x2="620.143" y2="147.119" gradientUnits="userSpaceOnUse">
<stop stop-color="#35BCFF"/>
<stop offset="1" stop-color="#3ADFDC"/>
</linearGradient>
<linearGradient id="paint16_linear_1553_1072" x1="22.666" y1="147.118" x2="620.143" y2="147.119" gradientUnits="userSpaceOnUse">
<stop stop-color="#35BCFF"/>
<stop offset="1" stop-color="#3ADFDC"/>
</linearGradient>
<linearGradient id="paint17_linear_1553_1072" x1="22.666" y1="147.118" x2="620.143" y2="147.119" gradientUnits="userSpaceOnUse">
<stop stop-color="#35BCFF"/>
<stop offset="1" stop-color="#3ADFDC"/>
</linearGradient>
<linearGradient id="paint18_linear_1553_1072" x1="22.666" y1="147.118" x2="620.143" y2="147.119" gradientUnits="userSpaceOnUse">
<stop stop-color="#35BCFF"/>
<stop offset="1" stop-color="#3ADFDC"/>
</linearGradient>
<linearGradient id="paint19_linear_1553_1072" x1="22.666" y1="147.118" x2="620.143" y2="147.119" gradientUnits="userSpaceOnUse">
<stop stop-color="#35BCFF"/>
<stop offset="1" stop-color="#3ADFDC"/>
</linearGradient>
<linearGradient id="paint20_linear_1553_1072" x1="22.666" y1="147.118" x2="620.143" y2="147.119" gradientUnits="userSpaceOnUse">
<stop stop-color="#35BCFF"/>
<stop offset="1" stop-color="#3ADFDC"/>
</linearGradient>
<linearGradient id="paint21_linear_1553_1072" x1="22.666" y1="147.118" x2="620.143" y2="147.119" gradientUnits="userSpaceOnUse">
<stop stop-color="#35BCFF"/>
<stop offset="1" stop-color="#3ADFDC"/>
</linearGradient>
<linearGradient id="paint22_linear_1553_1072" x1="22.666" y1="147.118" x2="620.143" y2="147.119" gradientUnits="userSpaceOnUse">
<stop stop-color="#35BCFF"/>
<stop offset="1" stop-color="#3ADFDC"/>
</linearGradient>
<linearGradient id="paint23_linear_1553_1072" x1="22.666" y1="147.118" x2="620.143" y2="147.119" gradientUnits="userSpaceOnUse">
<stop stop-color="#35BCFF"/>
<stop offset="1" stop-color="#3ADFDC"/>
</linearGradient>
<linearGradient id="paint24_linear_1553_1072" x1="22.666" y1="147.118" x2="620.143" y2="147.119" gradientUnits="userSpaceOnUse">
<stop stop-color="#35BCFF"/>
<stop offset="1" stop-color="#3ADFDC"/>
</linearGradient>
</defs>
</svg>
