<svg width="358" height="469" viewBox="0 0 358 469" fill="none" xmlns="http://www.w3.org/2000/svg">
<path d="M4.32931 3.424C4.32931 3.032 4.49731 2.836 4.83331 2.836H7.85731C8.19331 2.836 8.36131 3.018 8.36131 3.382V30.472C8.36131 30.752 8.50131 30.892 8.78131 30.892H23.3133C23.6493 30.892 23.8173 31.032 23.8173 31.312V33.538C23.8173 33.678 23.7753 33.79 23.6913 33.874C23.6073 33.958 23.4813 34 23.3133 34H4.91731C4.69331 34 4.53931 33.958 4.45531 33.874C4.37131 33.762 4.32931 33.608 4.32931 33.412V3.424ZM34.3829 2.836C34.7189 2.836 34.8869 3.018 34.8869 3.382V33.286C34.8869 33.566 34.8309 33.762 34.7189 33.874C34.6069 33.958 34.4109 34 34.1309 34H31.4849C31.2329 34 31.0649 33.958 30.9809 33.874C30.8969 33.79 30.8549 33.636 30.8549 33.412V3.424C30.8549 3.032 31.0229 2.836 31.3589 2.836H34.3829ZM44.1286 34C43.8766 34 43.6946 33.944 43.5826 33.832C43.4986 33.72 43.4566 33.552 43.4566 33.328V3.424C43.4566 3.032 43.6246 2.836 43.9606 2.836H46.5646C46.8446 2.836 46.9846 3.032 46.9846 3.424V13.714C46.9846 14.022 47.0406 14.19 47.1526 14.218C47.2646 14.218 47.4186 14.134 47.6146 13.966C47.8666 13.714 48.2726 13.378 48.8326 12.958C49.4206 12.538 50.1626 12.16 51.0586 11.824C51.9826 11.488 53.0746 11.32 54.3346 11.32C56.3786 11.32 58.0586 11.824 59.3746 12.832C60.6906 13.84 61.6706 15.212 62.3146 16.948C62.9866 18.656 63.3226 20.588 63.3226 22.744C63.3226 26.328 62.4826 29.17 60.8026 31.27C59.1226 33.37 56.7706 34.42 53.7466 34.42C52.4586 34.42 51.3526 34.224 50.4286 33.832C49.5326 33.44 48.7906 32.978 48.2026 32.446C47.6146 31.914 47.1806 31.466 46.9006 31.102C46.7886 30.962 46.6906 30.906 46.6066 30.934C46.5226 30.962 46.4666 31.06 46.4386 31.228L46.2286 33.328C46.1726 33.776 45.9206 34 45.4726 34H44.1286ZM46.9846 26.482C46.9846 27.49 47.2646 28.414 47.8246 29.254C48.4126 30.066 49.1686 30.71 50.0926 31.186C51.0166 31.662 51.9826 31.9 52.9906 31.9C54.2506 31.9 55.3846 31.592 56.3926 30.976C57.4006 30.332 58.1986 29.338 58.7866 27.994C59.3746 26.65 59.6686 24.928 59.6686 22.828C59.6686 19.972 59.1226 17.774 58.0306 16.234C56.9386 14.666 55.3566 13.882 53.2846 13.882C51.9686 13.882 50.7646 14.19 49.6726 14.806C48.6086 15.394 47.7126 16.122 46.9846 16.99V26.482ZM70.4472 34C70.2512 34 70.0972 33.958 69.9852 33.874C69.9012 33.762 69.8592 33.622 69.8592 33.454V12.286C69.8592 11.922 70.0132 11.74 70.3212 11.74H72.7572C73.0652 11.74 73.2192 11.894 73.2192 12.202V14.932C73.2192 15.1 73.2612 15.198 73.3452 15.226C73.4292 15.254 73.5412 15.198 73.6812 15.058C74.4092 14.19 75.1232 13.49 75.8232 12.958C76.5512 12.398 77.2792 11.992 78.0072 11.74C78.7352 11.46 79.4632 11.32 80.1912 11.32C81.1712 11.32 81.6612 11.502 81.6612 11.866V14.386C81.6612 14.666 81.5352 14.778 81.2832 14.722C81.0312 14.694 80.7372 14.666 80.4012 14.638C80.0932 14.61 79.7572 14.596 79.3932 14.596C78.7772 14.596 78.1192 14.736 77.4192 15.016C76.7192 15.268 76.0612 15.632 75.4452 16.108C74.8572 16.584 74.3672 17.116 73.9752 17.704C73.5832 18.292 73.3872 18.88 73.3872 19.468V33.37C73.3872 33.79 73.1772 34 72.7572 34H70.4472ZM89.0161 24.256C89.0161 25.628 89.3381 26.888 89.9821 28.036C90.6541 29.156 91.5361 30.052 92.6281 30.724C93.7481 31.396 94.9941 31.732 96.3661 31.732C97.7661 31.732 99.0121 31.452 100.104 30.892C101.196 30.304 102.134 29.422 102.918 28.246C103.03 28.134 103.114 28.078 103.17 28.078C103.254 28.05 103.366 28.064 103.506 28.12L105.27 29.002C105.522 29.142 105.55 29.338 105.354 29.59C104.598 30.71 103.758 31.634 102.834 32.362C101.938 33.062 100.93 33.58 99.8101 33.916C98.6901 34.252 97.4301 34.42 96.0301 34.42C93.9581 34.42 92.1241 33.944 90.5281 32.992C88.9321 32.04 87.6721 30.71 86.7481 29.002C85.8241 27.294 85.3621 25.32 85.3621 23.08C85.3621 20.644 85.8241 18.558 86.7481 16.822C87.7001 15.058 88.9741 13.7 90.5701 12.748C92.1941 11.796 94.0001 11.32 95.9881 11.32C98.0321 11.32 99.8101 11.768 101.322 12.664C102.834 13.56 104.01 14.862 104.85 16.57C105.69 18.278 106.11 20.336 106.11 22.744C106.11 22.94 106.082 23.136 106.026 23.332C105.998 23.528 105.816 23.626 105.48 23.626H89.3941C89.2821 23.626 89.1841 23.696 89.1001 23.836C89.0441 23.948 89.0161 24.088 89.0161 24.256ZM101.868 21.316C102.176 21.316 102.372 21.288 102.456 21.232C102.54 21.148 102.582 20.98 102.582 20.728C102.582 19.524 102.316 18.404 101.784 17.368C101.28 16.304 100.538 15.45 99.5581 14.806C98.6061 14.162 97.4441 13.84 96.0721 13.84C94.5601 13.84 93.2861 14.204 92.2501 14.932C91.2141 15.632 90.4301 16.556 89.8981 17.704C89.3661 18.852 89.1001 20.056 89.1001 21.316H101.868ZM123.411 3.424C123.411 3.032 123.579 2.836 123.915 2.836H142.395C142.675 2.836 142.815 2.99 142.815 3.298V5.44C142.815 5.776 142.633 5.944 142.269 5.944H127.989C127.625 5.944 127.443 6.112 127.443 6.448V16.78C127.443 17.088 127.597 17.242 127.905 17.242H139.119C139.427 17.242 139.581 17.382 139.581 17.662V19.888C139.581 20.14 139.427 20.266 139.119 20.266H127.905C127.597 20.266 127.443 20.42 127.443 20.728V33.454C127.443 33.818 127.247 34 126.855 34H123.999C123.775 34 123.621 33.958 123.537 33.874C123.453 33.79 123.411 33.636 123.411 33.412V3.424ZM147.306 34C147.11 34 146.956 33.958 146.844 33.874C146.76 33.762 146.718 33.622 146.718 33.454V12.286C146.718 11.922 146.872 11.74 147.18 11.74H149.616C149.924 11.74 150.078 11.894 150.078 12.202V14.932C150.078 15.1 150.12 15.198 150.204 15.226C150.288 15.254 150.4 15.198 150.54 15.058C151.268 14.19 151.982 13.49 152.682 12.958C153.41 12.398 154.138 11.992 154.866 11.74C155.594 11.46 156.322 11.32 157.05 11.32C158.03 11.32 158.52 11.502 158.52 11.866V14.386C158.52 14.666 158.394 14.778 158.142 14.722C157.89 14.694 157.596 14.666 157.26 14.638C156.952 14.61 156.616 14.596 156.252 14.596C155.636 14.596 154.978 14.736 154.278 15.016C153.578 15.268 152.92 15.632 152.304 16.108C151.716 16.584 151.226 17.116 150.834 17.704C150.442 18.292 150.246 18.88 150.246 19.468V33.37C150.246 33.79 150.036 34 149.616 34H147.306ZM176.62 31.312C175.584 32.32 174.45 33.09 173.218 33.622C172.014 34.154 170.656 34.42 169.144 34.42C166.96 34.42 165.238 33.86 163.978 32.74C162.746 31.62 162.13 30.15 162.13 28.33C162.13 26.846 162.55 25.572 163.39 24.508C164.23 23.416 165.476 22.562 167.128 21.946C168.78 21.302 170.81 20.91 173.218 20.77L176.494 20.518C176.662 20.49 176.816 20.434 176.956 20.35C177.096 20.266 177.166 20.112 177.166 19.888V18.754C177.166 17.242 176.69 16.052 175.738 15.184C174.814 14.288 173.554 13.84 171.958 13.84C170.726 13.84 169.606 14.12 168.598 14.68C167.618 15.24 166.736 16.08 165.952 17.2C165.84 17.34 165.742 17.438 165.658 17.494C165.602 17.522 165.49 17.508 165.322 17.452L163.054 16.696C162.97 16.64 162.9 16.57 162.844 16.486C162.816 16.402 162.858 16.248 162.97 16.024C163.81 14.568 164.986 13.42 166.498 12.58C168.038 11.74 169.914 11.32 172.126 11.32C174.002 11.32 175.556 11.614 176.788 12.202C178.048 12.762 178.986 13.588 179.602 14.68C180.246 15.744 180.568 17.018 180.568 18.502V33.37C180.568 33.622 180.526 33.79 180.442 33.874C180.358 33.958 180.218 34 180.022 34H177.88C177.684 34 177.544 33.944 177.46 33.832C177.376 33.692 177.32 33.524 177.292 33.328L177.25 31.396C177.166 31.004 176.956 30.976 176.62 31.312ZM177.166 23.332C177.166 22.856 176.97 22.632 176.578 22.66L173.806 22.912C172.518 22.968 171.37 23.136 170.362 23.416C169.354 23.668 168.5 24.004 167.8 24.424C167.1 24.844 166.568 25.348 166.204 25.936C165.84 26.496 165.658 27.154 165.658 27.91C165.658 29.142 166.078 30.108 166.918 30.808C167.786 31.48 168.948 31.816 170.404 31.816C171.3 31.816 172.154 31.662 172.966 31.354C173.806 31.018 174.534 30.598 175.15 30.094C175.794 29.562 176.284 29.016 176.62 28.456C176.984 27.896 177.166 27.35 177.166 26.818V23.332ZM188.667 34C188.275 34 188.079 33.818 188.079 33.454V12.286C188.079 11.922 188.233 11.74 188.541 11.74H191.061C191.369 11.74 191.523 11.894 191.523 12.202V14.638C191.523 14.778 191.551 14.862 191.607 14.89C191.663 14.918 191.761 14.876 191.901 14.764C192.825 14.036 193.679 13.42 194.463 12.916C195.275 12.384 196.101 11.992 196.941 11.74C197.781 11.46 198.677 11.32 199.629 11.32C201.813 11.32 203.479 11.908 204.627 13.084C205.803 14.26 206.391 15.786 206.391 17.662V33.328C206.391 33.776 206.181 34 205.761 34H203.409C203.213 34 203.073 33.958 202.989 33.874C202.905 33.762 202.863 33.622 202.863 33.454V18.46C202.863 17.088 202.513 16.024 201.813 15.268C201.113 14.484 200.007 14.092 198.495 14.092C197.683 14.092 196.913 14.232 196.185 14.512C195.485 14.764 194.771 15.142 194.043 15.646C193.315 16.122 192.503 16.738 191.607 17.494V33.37C191.607 33.79 191.397 34 190.977 34H188.667ZM233.103 33.328C233.215 33.496 233.243 33.65 233.187 33.79C233.131 33.93 232.977 34 232.725 34H229.785C229.617 34 229.463 33.958 229.323 33.874C229.211 33.79 229.113 33.664 229.029 33.496L222.687 22.618C222.631 22.506 222.561 22.436 222.477 22.408C222.421 22.352 222.323 22.394 222.183 22.534L217.731 27.028C217.619 27.14 217.535 27.266 217.479 27.406C217.451 27.518 217.437 27.672 217.437 27.868V33.286C217.437 33.566 217.381 33.762 217.269 33.874C217.185 33.958 216.989 34 216.681 34H214.539C214.259 34 214.077 33.958 213.993 33.874C213.937 33.79 213.909 33.636 213.909 33.412V3.424C213.909 3.032 214.063 2.836 214.371 2.836H216.933C217.269 2.836 217.437 3.018 217.437 3.382V22.87C217.437 23.094 217.465 23.234 217.521 23.29C217.577 23.318 217.689 23.234 217.857 23.038L228.231 12.244C228.539 11.908 228.833 11.74 229.113 11.74H231.675C231.955 11.74 232.109 11.824 232.137 11.992C232.193 12.132 232.109 12.314 231.885 12.538L225.249 19.3C225.165 19.384 225.109 19.482 225.081 19.594C225.081 19.706 225.123 19.846 225.207 20.014L233.103 33.328ZM242.404 33.286C242.404 33.566 242.348 33.762 242.236 33.874C242.124 33.958 241.928 34 241.648 34H239.464C239.044 34 238.834 33.804 238.834 33.412L238.876 3.424C238.876 3.032 239.044 2.836 239.38 2.836H241.9C242.236 2.836 242.404 3.018 242.404 3.382V33.286ZM253.671 33.286C253.671 33.566 253.615 33.762 253.503 33.874C253.419 33.958 253.223 34 252.915 34H250.773C250.521 34 250.353 33.958 250.269 33.874C250.185 33.79 250.143 33.636 250.143 33.412V12.328C250.143 11.936 250.311 11.74 250.647 11.74H253.209C253.517 11.74 253.671 11.922 253.671 12.286V33.286ZM253.839 6.952C253.839 7.484 253.587 7.75 253.083 7.75H250.647C250.395 7.75 250.227 7.694 250.143 7.582C250.059 7.442 250.017 7.26 250.017 7.036V3.508C250.017 3.06 250.213 2.836 250.605 2.836H253.251C253.643 2.836 253.839 3.046 253.839 3.466V6.952ZM262.039 34C261.647 34 261.451 33.818 261.451 33.454V12.286C261.451 11.922 261.605 11.74 261.913 11.74H264.433C264.741 11.74 264.895 11.894 264.895 12.202V14.638C264.895 14.778 264.923 14.862 264.979 14.89C265.035 14.918 265.133 14.876 265.273 14.764C266.197 14.036 267.051 13.42 267.835 12.916C268.647 12.384 269.473 11.992 270.313 11.74C271.153 11.46 272.049 11.32 273.001 11.32C275.185 11.32 276.851 11.908 277.999 13.084C279.175 14.26 279.763 15.786 279.763 17.662V33.328C279.763 33.776 279.553 34 279.133 34H276.781C276.585 34 276.445 33.958 276.361 33.874C276.277 33.762 276.235 33.622 276.235 33.454V18.46C276.235 17.088 275.885 16.024 275.185 15.268C274.485 14.484 273.379 14.092 271.867 14.092C271.055 14.092 270.285 14.232 269.557 14.512C268.857 14.764 268.143 15.142 267.415 15.646C266.687 16.122 265.875 16.738 264.979 17.494V33.37C264.979 33.79 264.769 34 264.349 34H262.039Z" fill="#17A7E8"/>
<path d="M1.995 120C1.87833 120 1.785 119.953 1.715 119.86C1.66833 119.767 1.66833 119.65 1.715 119.51L10.85 94.485C10.92 94.3217 11.0017 94.205 11.095 94.135C11.1883 94.065 11.3167 94.03 11.48 94.03H13.58C13.9767 94.03 14.2217 94.1817 14.315 94.485L23.345 119.51C23.415 119.627 23.415 119.743 23.345 119.86C23.275 119.953 23.17 120 23.03 120H21.245C20.965 120 20.79 119.895 20.72 119.685L18.13 112.475C18.1067 112.382 18.0717 112.312 18.025 112.265C17.9783 112.218 17.885 112.195 17.745 112.195H7.105C6.91833 112.195 6.79 112.288 6.72 112.475L4.06 119.72C4.03667 119.813 3.99 119.883 3.92 119.93C3.85 119.977 3.745 120 3.605 120H1.995ZM16.975 110.06C17.2317 110.06 17.3133 109.932 17.22 109.675L12.705 97.25C12.6117 97.04 12.5183 96.935 12.425 96.935C12.355 96.935 12.2733 97.0517 12.18 97.285L7.595 109.71C7.50167 109.943 7.56 110.06 7.77 110.06H16.975ZM43.5337 117.655C42.6237 118.542 41.6437 119.218 40.5937 119.685C39.5437 120.128 38.3887 120.35 37.1287 120.35C35.3087 120.35 33.8737 119.895 32.8237 118.985C31.7737 118.052 31.2487 116.815 31.2487 115.275C31.2487 114.062 31.587 113.023 32.2637 112.16C32.9404 111.273 33.9437 110.573 35.2737 110.06C36.6037 109.547 38.2487 109.22 40.2087 109.08L43.3237 108.835C43.5104 108.812 43.6504 108.765 43.7437 108.695C43.8604 108.602 43.9187 108.473 43.9187 108.31V107.295C43.9187 105.942 43.487 104.868 42.6237 104.075C41.7837 103.282 40.652 102.885 39.2287 102.885C38.132 102.885 37.1404 103.142 36.2537 103.655C35.367 104.145 34.562 104.88 33.8387 105.86C33.7687 105.953 33.6987 106.023 33.6287 106.07C33.582 106.093 33.5004 106.082 33.3837 106.035L31.9487 105.44C31.8787 105.393 31.832 105.347 31.8087 105.3C31.7854 105.23 31.8204 105.125 31.9137 104.985C32.637 103.818 33.6054 102.885 34.8187 102.185C36.0554 101.462 37.5604 101.1 39.3337 101.1C40.8037 101.1 42.0404 101.345 43.0437 101.835C44.0704 102.302 44.8404 102.99 45.3537 103.9C45.8904 104.81 46.1587 105.883 46.1587 107.12V119.545C46.1587 119.732 46.1237 119.86 46.0537 119.93C46.007 119.977 45.902 120 45.7387 120H44.4437C44.3037 120 44.1987 119.965 44.1287 119.895C44.0587 119.802 44.0237 119.685 44.0237 119.545L43.9537 117.725C43.907 117.398 43.767 117.375 43.5337 117.655ZM43.9187 110.935C43.9187 110.538 43.7554 110.363 43.4287 110.41L40.8037 110.62C39.5904 110.69 38.5287 110.842 37.6187 111.075C36.732 111.308 35.9854 111.612 35.3787 111.985C34.772 112.358 34.317 112.802 34.0137 113.315C33.7104 113.805 33.5587 114.377 33.5587 115.03C33.5587 116.127 33.9437 116.99 34.7137 117.62C35.4837 118.227 36.522 118.53 37.8287 118.53C38.622 118.53 39.392 118.39 40.1387 118.11C40.8854 117.807 41.5504 117.433 42.1337 116.99C42.6937 116.5 43.1254 115.998 43.4287 115.485C43.7554 114.972 43.9187 114.482 43.9187 114.015V110.935ZM69.8447 120C69.728 120 69.6347 119.977 69.5647 119.93C69.518 119.86 69.4947 119.767 69.4947 119.65V94.485C69.4947 94.3217 69.5297 94.205 69.5997 94.135C69.6697 94.065 69.7747 94.03 69.9147 94.03H77.6147C80.648 94.03 82.9814 94.6017 84.6147 95.745C86.2714 96.8883 87.0997 98.5567 87.0997 100.75C87.0997 102.173 86.7264 103.375 85.9797 104.355C85.2564 105.335 84.1014 106.082 82.5147 106.595C82.4447 106.618 82.4097 106.677 82.4097 106.77C82.4097 106.84 82.4447 106.887 82.5147 106.91C84.1714 107.283 85.4547 107.983 86.3647 109.01C87.2747 110.013 87.7297 111.367 87.7297 113.07C87.7297 115.403 86.8664 117.142 85.1397 118.285C83.413 119.428 80.963 120 77.7897 120H69.8447ZM77.6147 117.97C80.1114 117.97 81.9664 117.597 83.1797 116.85C84.393 116.08 84.9997 114.832 84.9997 113.105C84.9997 111.845 84.6964 110.842 84.0897 110.095C83.483 109.325 82.6547 108.765 81.6047 108.415C80.5547 108.065 79.3647 107.89 78.0347 107.89H72.5747C72.2714 107.89 72.1197 108.018 72.1197 108.275V117.55C72.1197 117.83 72.2247 117.97 72.4347 117.97H77.6147ZM78.0347 105.86C78.8047 105.86 79.563 105.79 80.3097 105.65C81.0564 105.487 81.733 105.23 82.3397 104.88C82.9697 104.53 83.4714 104.04 83.8447 103.41C84.2414 102.78 84.4397 101.987 84.4397 101.03C84.4397 99.3267 83.8097 98.0783 82.5497 97.285C81.313 96.4683 79.6447 96.06 77.5447 96.06H72.5397C72.2597 96.06 72.1197 96.1767 72.1197 96.41V105.44C72.1197 105.72 72.2247 105.86 72.4347 105.86H78.0347ZM98.2073 120C98.0439 120 97.9273 119.965 97.8573 119.895C97.7873 119.802 97.7523 119.662 97.7523 119.475V94.45C97.7523 94.17 97.8806 94.03 98.1373 94.03H99.7123C99.9456 94.03 100.062 94.1817 100.062 94.485V103.165C100.062 103.398 100.097 103.527 100.167 103.55C100.261 103.573 100.389 103.515 100.552 103.375C100.716 103.188 101.031 102.92 101.497 102.57C101.987 102.22 102.629 101.893 103.422 101.59C104.239 101.263 105.207 101.1 106.327 101.1C108.077 101.1 109.501 101.532 110.597 102.395C111.694 103.235 112.511 104.378 113.047 105.825C113.584 107.248 113.852 108.858 113.852 110.655C113.852 113.642 113.152 116.01 111.752 117.76C110.352 119.487 108.392 120.35 105.872 120.35C104.752 120.35 103.796 120.187 103.002 119.86C102.232 119.51 101.614 119.113 101.147 118.67C100.681 118.227 100.342 117.877 100.132 117.62C100.039 117.503 99.9573 117.457 99.8873 117.48C99.8173 117.48 99.7823 117.562 99.7823 117.725L99.6423 119.475C99.5956 119.825 99.3973 120 99.0473 120H98.2073ZM100.062 113.77C100.062 114.633 100.319 115.438 100.832 116.185C101.369 116.908 102.046 117.492 102.862 117.935C103.679 118.355 104.542 118.565 105.452 118.565C106.572 118.565 107.576 118.297 108.462 117.76C109.372 117.2 110.096 116.337 110.632 115.17C111.169 113.98 111.437 112.475 111.437 110.655C111.437 108.252 110.947 106.362 109.967 104.985C109.011 103.608 107.587 102.92 105.697 102.92C104.531 102.92 103.457 103.188 102.477 103.725C101.497 104.262 100.692 104.915 100.062 105.685V113.77ZM145.93 93.68C147.05 93.68 148.135 93.8667 149.185 94.24C150.258 94.6133 151.215 95.1267 152.055 95.78C152.918 96.4333 153.618 97.1917 154.155 98.055C154.715 98.895 155.053 99.7933 155.17 100.75C155.193 100.89 155.193 100.995 155.17 101.065C155.146 101.112 155.065 101.135 154.925 101.135L152.895 101.31C152.801 101.333 152.731 101.322 152.685 101.275C152.638 101.205 152.603 101.112 152.58 100.995C152.206 99.455 151.436 98.2067 150.27 97.25C149.103 96.27 147.68 95.78 146 95.78C143.41 95.78 141.415 96.7367 140.015 98.65C138.638 100.54 137.95 103.352 137.95 107.085C137.95 110.702 138.638 113.455 140.015 115.345C141.391 117.235 143.468 118.18 146.245 118.18C147.948 118.18 149.371 117.772 150.515 116.955C151.658 116.115 152.58 114.797 153.28 113C153.326 112.907 153.431 112.872 153.595 112.895L155.31 113.35C155.356 113.373 155.391 113.408 155.415 113.455C155.461 113.502 155.473 113.595 155.45 113.735C155.24 114.435 154.936 115.112 154.54 115.765C154.143 116.418 153.665 117.025 153.105 117.585C152.545 118.145 151.903 118.635 151.18 119.055C150.456 119.475 149.663 119.79 148.8 120C147.96 120.233 147.05 120.35 146.07 120.35C143.806 120.35 141.858 119.825 140.225 118.775C138.591 117.702 137.343 116.173 136.48 114.19C135.616 112.207 135.185 109.827 135.185 107.05C135.185 104.25 135.616 101.858 136.48 99.875C137.343 97.8683 138.568 96.34 140.155 95.29C141.765 94.2167 143.69 93.68 145.93 93.68ZM172.395 101.1C173.562 101.1 174.577 101.275 175.44 101.625C176.327 101.975 177.108 102.465 177.785 103.095C178.462 103.702 179.033 104.402 179.5 105.195C179.617 105.428 179.582 105.58 179.395 105.65L177.925 106.14C177.762 106.21 177.622 106.152 177.505 105.965C176.968 105.242 176.443 104.67 175.93 104.25C175.417 103.807 174.892 103.48 174.355 103.27C173.818 103.037 173.223 102.92 172.57 102.92C171.287 102.92 170.155 103.247 169.175 103.9C168.218 104.53 167.472 105.428 166.935 106.595C166.422 107.762 166.165 109.138 166.165 110.725C166.165 112.312 166.433 113.7 166.97 114.89C167.507 116.057 168.253 116.955 169.21 117.585C170.19 118.215 171.322 118.53 172.605 118.53C173.772 118.53 174.787 118.25 175.65 117.69C176.537 117.13 177.33 116.278 178.03 115.135C178.1 115.042 178.158 114.983 178.205 114.96C178.275 114.937 178.357 114.948 178.45 114.995L179.675 115.555C179.815 115.625 179.85 115.765 179.78 115.975C179.407 116.605 178.963 117.188 178.45 117.725C177.96 118.262 177.412 118.728 176.805 119.125C176.198 119.498 175.522 119.79 174.775 120C174.052 120.233 173.258 120.35 172.395 120.35C170.715 120.35 169.222 119.953 167.915 119.16C166.608 118.343 165.593 117.223 164.87 115.8C164.147 114.353 163.785 112.685 163.785 110.795C163.785 108.905 164.147 107.237 164.87 105.79C165.617 104.32 166.643 103.177 167.95 102.36C169.257 101.52 170.738 101.1 172.395 101.1ZM202.069 94.03C202.186 94.03 202.466 94.03 202.909 94.03C203.376 94.03 203.889 94.0417 204.449 94.065C205.009 94.065 205.523 94.065 205.989 94.065C206.456 94.065 206.771 94.065 206.934 94.065C210.178 94.0883 212.791 94.59 214.774 95.57C216.781 96.5267 218.239 97.9383 219.149 99.805C220.083 101.672 220.549 103.993 220.549 106.77C220.549 109.757 220.036 112.23 219.009 114.19C218.006 116.15 216.466 117.608 214.389 118.565C212.336 119.522 209.711 120 206.514 120H202.034C201.754 120 201.614 119.848 201.614 119.545V94.45C201.614 94.31 201.649 94.205 201.719 94.135C201.789 94.065 201.906 94.03 202.069 94.03ZM204.589 96.13C204.356 96.13 204.239 96.2933 204.239 96.62V117.585C204.239 117.818 204.379 117.935 204.659 117.935H206.164C208.918 117.935 211.146 117.585 212.849 116.885C214.553 116.162 215.801 114.995 216.594 113.385C217.388 111.775 217.784 109.652 217.784 107.015C217.784 104.168 217.364 101.963 216.524 100.4C215.708 98.8367 214.448 97.74 212.744 97.11C211.064 96.4567 208.918 96.13 206.304 96.13H204.589ZM243.855 120C243.715 120 243.598 119.965 243.505 119.895C243.435 119.802 243.4 119.685 243.4 119.545V117.935C243.4 117.748 243.365 117.643 243.295 117.62C243.225 117.597 243.12 117.655 242.98 117.795C242.746 118.028 242.396 118.355 241.93 118.775C241.463 119.172 240.856 119.533 240.11 119.86C239.363 120.187 238.453 120.35 237.38 120.35C235.91 120.35 234.58 120.012 233.39 119.335C232.2 118.635 231.243 117.597 230.52 116.22C229.82 114.82 229.47 113.093 229.47 111.04C229.47 109.057 229.82 107.33 230.52 105.86C231.22 104.367 232.2 103.2 233.46 102.36C234.72 101.52 236.166 101.1 237.8 101.1C239.013 101.1 240.005 101.298 240.775 101.695C241.568 102.092 242.245 102.523 242.805 102.99C243.015 103.153 243.155 103.212 243.225 103.165C243.295 103.118 243.33 102.978 243.33 102.745V94.45C243.33 94.17 243.458 94.03 243.715 94.03H245.29C245.523 94.03 245.64 94.1583 245.64 94.415V119.51C245.64 119.697 245.605 119.825 245.535 119.895C245.465 119.965 245.336 120 245.15 120H243.855ZM243.33 105.37C242.536 104.6 241.731 104.005 240.915 103.585C240.121 103.142 239.235 102.92 238.255 102.92C237.018 102.92 235.91 103.235 234.93 103.865C233.973 104.472 233.215 105.37 232.655 106.56C232.118 107.75 231.85 109.197 231.85 110.9C231.85 112.673 232.13 114.132 232.69 115.275C233.273 116.395 234.031 117.223 234.965 117.76C235.898 118.297 236.913 118.565 238.01 118.565C239.013 118.565 239.911 118.32 240.705 117.83C241.521 117.34 242.163 116.745 242.63 116.045C243.096 115.345 243.33 114.668 243.33 114.015V105.37ZM269.212 94.45C269.212 94.17 269.34 94.03 269.597 94.03H284.822C285.032 94.03 285.137 94.135 285.137 94.345L285.102 95.78C285.102 96.0133 284.985 96.13 284.752 96.13H272.257C271.977 96.13 271.837 96.2583 271.837 96.515V105.51C271.837 105.743 271.965 105.86 272.222 105.86H281.707C281.917 105.86 282.022 105.965 282.022 106.175V107.645C282.022 107.738 281.999 107.808 281.952 107.855C281.929 107.902 281.847 107.925 281.707 107.925H272.187C271.954 107.925 271.837 108.042 271.837 108.275V117.55C271.837 117.783 271.954 117.9 272.187 117.9H285.242C285.499 117.9 285.627 118.005 285.627 118.215V119.685C285.627 119.778 285.592 119.86 285.522 119.93C285.475 119.977 285.394 120 285.277 120H269.632C269.352 120 269.212 119.86 269.212 119.58V94.45ZM295.243 111.775C295.243 112.965 295.535 114.073 296.118 115.1C296.702 116.127 297.472 116.955 298.428 117.585C299.408 118.192 300.505 118.495 301.718 118.495C303.002 118.495 304.11 118.238 305.043 117.725C306 117.212 306.805 116.453 307.458 115.45C307.528 115.333 307.598 115.275 307.668 115.275C307.738 115.252 307.82 115.263 307.913 115.31L309.103 115.975C309.29 116.068 309.302 116.208 309.138 116.395C308.555 117.282 307.89 118.017 307.143 118.6C306.42 119.183 305.592 119.627 304.658 119.93C303.725 120.21 302.698 120.35 301.578 120.35C299.852 120.35 298.335 119.953 297.028 119.16C295.722 118.367 294.695 117.258 293.948 115.835C293.202 114.388 292.828 112.743 292.828 110.9C292.828 108.847 293.213 107.097 293.983 105.65C294.753 104.203 295.792 103.083 297.098 102.29C298.405 101.497 299.887 101.1 301.543 101.1C303.223 101.1 304.682 101.473 305.918 102.22C307.155 102.967 308.112 104.04 308.788 105.44C309.465 106.84 309.803 108.532 309.803 110.515C309.803 110.678 309.78 110.842 309.733 111.005C309.71 111.168 309.57 111.25 309.313 111.25H295.488C295.418 111.25 295.36 111.308 295.313 111.425C295.267 111.518 295.243 111.635 295.243 111.775ZM306.863 109.605C307.12 109.605 307.283 109.57 307.353 109.5C307.423 109.43 307.458 109.302 307.458 109.115C307.458 107.995 307.213 106.968 306.723 106.035C306.257 105.078 305.58 104.32 304.693 103.76C303.83 103.177 302.792 102.885 301.578 102.885C300.202 102.885 299.047 103.223 298.113 103.9C297.18 104.553 296.468 105.393 295.978 106.42C295.512 107.447 295.278 108.508 295.278 109.605H306.863ZM3.64 155.45C3.64 155.17 3.76833 155.03 4.025 155.03H18.9C19.11 155.03 19.215 155.135 19.215 155.345V156.78C19.215 157.013 19.0867 157.13 18.83 157.13H6.685C6.405 157.13 6.265 157.258 6.265 157.515V166.965C6.265 167.175 6.39333 167.28 6.65 167.28H16.45C16.66 167.28 16.765 167.385 16.765 167.595V169.03C16.765 169.24 16.6483 169.345 16.415 169.345H6.615C6.38167 169.345 6.265 169.462 6.265 169.695V180.615C6.265 180.872 6.13667 181 5.88 181H4.06C3.89667 181 3.78 180.977 3.71 180.93C3.66333 180.86 3.64 180.743 3.64 180.58V155.45ZM35.3213 162.45C35.4146 162.45 35.4846 162.485 35.5313 162.555C35.578 162.602 35.6013 162.672 35.6013 162.765V163.955C35.6013 164.142 35.4963 164.235 35.2863 164.235H31.0513C30.8646 164.235 30.7713 164.328 30.7713 164.515V180.545C30.7713 180.848 30.6546 181 30.4213 181H28.8113C28.578 181 28.4613 180.86 28.4613 180.58V164.515C28.4613 164.328 28.3913 164.235 28.2513 164.235H24.5763C24.3896 164.235 24.2963 164.142 24.2963 163.955V162.765C24.2963 162.672 24.3196 162.602 24.3663 162.555C24.413 162.485 24.4946 162.45 24.6113 162.45H28.1813C28.368 162.45 28.4613 162.345 28.4613 162.135V159.475C28.4613 158.005 28.7996 156.897 29.4763 156.15C30.153 155.403 31.2263 155.03 32.6963 155.03H35.4263C35.6596 155.03 35.7763 155.147 35.7763 155.38V156.465C35.7763 156.582 35.7413 156.663 35.6713 156.71C35.6246 156.757 35.543 156.78 35.4263 156.78H32.8363C32.0663 156.78 31.518 157.013 31.1913 157.48C30.888 157.947 30.7363 158.6 30.7363 159.44V162.17C30.7363 162.357 30.8296 162.45 31.0163 162.45H35.3213ZM66.6058 181.35C64.4125 181.35 62.5108 180.825 60.9008 179.775C59.3142 178.725 58.0892 177.22 57.2258 175.26C56.3858 173.277 55.9658 170.897 55.9658 168.12C55.9658 165.273 56.4092 162.847 57.2958 160.84C58.1825 158.833 59.4308 157.305 61.0408 156.255C62.6508 155.205 64.5408 154.68 66.7108 154.68C68.2742 154.68 69.7208 155.007 71.0508 155.66C72.3808 156.29 73.4892 157.13 74.3758 158.18C75.2625 159.23 75.7875 160.362 75.9508 161.575C75.9742 161.715 75.9742 161.82 75.9508 161.89C75.9275 161.937 75.8575 161.983 75.7408 162.03L73.7458 162.345C73.6525 162.368 73.5825 162.357 73.5358 162.31C73.4892 162.263 73.4542 162.182 73.4308 162.065C73.2442 161.062 72.8358 160.163 72.2058 159.37C71.5992 158.577 70.8175 157.947 69.8608 157.48C68.9275 157.013 67.8658 156.78 66.6758 156.78C64.9725 156.78 63.5258 157.212 62.3358 158.075C61.1692 158.938 60.2708 160.198 59.6408 161.855C59.0342 163.512 58.7308 165.53 58.7308 167.91C58.7308 170.407 59.0342 172.495 59.6408 174.175C60.2475 175.855 61.1458 177.115 62.3358 177.955C63.5492 178.795 65.0192 179.215 66.7458 179.215C67.9592 179.215 69.0208 179.005 69.9308 178.585C70.8642 178.165 71.6225 177.605 72.2058 176.905C72.8125 176.205 73.2675 175.447 73.5708 174.63C73.8975 173.813 74.0725 173.032 74.0958 172.285V169.94C74.1192 169.707 74.0025 169.59 73.7458 169.59H67.6558C67.5392 169.59 67.4575 169.567 67.4108 169.52C67.3642 169.473 67.3408 169.403 67.3408 169.31V168.085C67.3408 167.898 67.4225 167.805 67.5858 167.805H76.1258C76.2425 167.805 76.3358 167.84 76.4058 167.91C76.4758 167.98 76.5108 168.062 76.5108 168.155V180.58C76.5108 180.743 76.4758 180.86 76.4058 180.93C76.3358 180.977 76.2425 181 76.1258 181H75.3908C75.2508 181 75.1225 180.988 75.0058 180.965C74.9125 180.918 74.8542 180.802 74.8308 180.615L74.6208 177.185C74.5975 177.068 74.5508 177.01 74.4808 177.01C74.4342 177.01 74.3758 177.068 74.3058 177.185C73.8625 177.955 73.2908 178.655 72.5908 179.285C71.8908 179.915 71.0508 180.417 70.0708 180.79C69.0908 181.163 67.9358 181.35 66.6058 181.35ZM103.088 162.275C103.345 162.275 103.52 162.322 103.613 162.415C103.706 162.485 103.753 162.613 103.753 162.8V163.675C103.753 163.885 103.706 164.048 103.613 164.165C103.543 164.258 103.38 164.305 103.123 164.305C102.703 164.305 102.353 164.34 102.073 164.41C101.793 164.457 101.525 164.538 101.268 164.655C100.685 164.912 100.451 165.18 100.568 165.46C100.661 165.74 100.79 166.078 100.953 166.475C101.116 166.872 101.198 167.397 101.198 168.05C101.198 169.077 100.941 170.022 100.428 170.885C99.9148 171.748 99.1098 172.437 98.0131 172.95C96.9165 173.44 95.5165 173.685 93.8131 173.685C92.5765 173.685 91.5965 173.767 90.8731 173.93C90.1731 174.07 89.6715 174.268 89.3681 174.525C89.0881 174.758 88.9481 175.003 88.9481 175.26C88.9481 175.657 89.2165 175.948 89.7531 176.135C90.2898 176.298 91.1765 176.415 92.4131 176.485L96.7881 176.73C98.7715 176.847 100.218 177.337 101.128 178.2C102.061 179.04 102.528 180.148 102.528 181.525C102.528 183.298 101.758 184.675 100.218 185.655C98.7015 186.635 96.5548 187.125 93.7781 187.125C90.9315 187.125 88.7498 186.682 87.2331 185.795C85.7398 184.932 84.9931 183.695 84.9931 182.085C84.9931 181.268 85.2615 180.522 85.7981 179.845C86.3581 179.145 87.1631 178.515 88.2131 177.955C88.4931 177.838 88.4931 177.71 88.2131 177.57C87.7465 177.36 87.3848 177.092 87.1281 176.765C86.8715 176.438 86.7431 176.065 86.7431 175.645C86.7431 175.342 86.8365 175.038 87.0231 174.735C87.2098 174.432 87.4898 174.152 87.8631 173.895C88.2365 173.615 88.7265 173.382 89.3331 173.195C89.4731 173.148 89.5315 173.09 89.5081 173.02C89.5081 172.927 89.4381 172.845 89.2981 172.775C88.3181 172.238 87.5831 171.585 87.0931 170.815C86.6265 170.045 86.3931 169.123 86.3931 168.05C86.3931 166.23 87.0581 164.795 88.3881 163.745C89.7415 162.695 91.6431 162.17 94.0931 162.17C95.2831 162.17 96.2865 162.31 97.1031 162.59C97.9431 162.847 98.6548 163.232 99.2381 163.745C99.3548 163.838 99.4715 163.897 99.5881 163.92C99.7048 163.92 99.8215 163.862 99.9381 163.745C100.195 163.535 100.486 163.313 100.813 163.08C101.14 162.847 101.501 162.66 101.898 162.52C102.295 162.357 102.691 162.275 103.088 162.275ZM93.8481 172.04C95.5748 172.04 96.8581 171.69 97.6981 170.99C98.5615 170.29 98.9931 169.298 98.9931 168.015C98.9931 166.685 98.5615 165.658 97.6981 164.935C96.8581 164.188 95.5748 163.815 93.8481 163.815C92.1681 163.815 90.8731 164.188 89.9631 164.935C89.0531 165.658 88.5981 166.685 88.5981 168.015C88.5981 169.322 89.0531 170.325 89.9631 171.025C90.8731 171.702 92.1681 172.04 93.8481 172.04ZM90.6281 178.445C90.2315 178.422 89.7531 178.55 89.1931 178.83C88.6565 179.11 88.1781 179.507 87.7581 180.02C87.3381 180.533 87.1281 181.14 87.1281 181.84C87.1281 182.61 87.3965 183.263 87.9331 183.8C88.4698 184.36 89.2515 184.78 90.2781 185.06C91.3281 185.363 92.5998 185.515 94.0931 185.515C96.1231 185.515 97.6631 185.2 98.7131 184.57C99.7631 183.963 100.288 183.03 100.288 181.77C100.288 180.907 100.008 180.218 99.4481 179.705C98.9115 179.168 97.9665 178.865 96.6131 178.795L90.6281 178.445ZM128.342 168.575C128.156 168.575 128.062 168.668 128.062 168.855V180.58C128.062 180.86 127.911 181 127.607 181H125.857C125.694 181 125.577 180.965 125.507 180.895C125.461 180.825 125.437 180.72 125.437 180.58V155.45C125.437 155.17 125.566 155.03 125.822 155.03H127.712C127.946 155.03 128.062 155.17 128.062 155.45V166.055C128.062 166.312 128.191 166.44 128.447 166.44H140.767C141.001 166.44 141.117 166.323 141.117 166.09V155.415C141.117 155.158 141.222 155.03 141.432 155.03H143.357C143.614 155.03 143.742 155.17 143.742 155.45V180.58C143.742 180.72 143.707 180.825 143.637 180.895C143.591 180.965 143.486 181 143.322 181H141.572C141.269 181 141.117 180.86 141.117 180.58V168.89C141.117 168.68 141.012 168.575 140.802 168.575H128.342ZM155.448 181C155.168 181 155.028 180.86 155.028 180.58V155.415C155.028 155.158 155.145 155.03 155.378 155.03H156.883C157.116 155.03 157.233 155.147 157.233 155.38V164.83C157.233 164.947 157.256 165.017 157.303 165.04C157.373 165.063 157.455 165.028 157.548 164.935C158.388 164.305 159.146 163.78 159.823 163.36C160.523 162.94 161.211 162.625 161.888 162.415C162.588 162.205 163.335 162.1 164.128 162.1C165.971 162.1 167.371 162.578 168.328 163.535C169.285 164.492 169.763 165.763 169.763 167.35V180.545C169.763 180.848 169.623 181 169.343 181H167.873C167.733 181 167.628 180.965 167.558 180.895C167.488 180.825 167.453 180.72 167.453 180.58V167.945C167.453 166.708 167.138 165.752 166.508 165.075C165.901 164.375 164.921 164.025 163.568 164.025C162.821 164.025 162.121 164.142 161.468 164.375C160.838 164.585 160.196 164.912 159.543 165.355C158.89 165.775 158.155 166.323 157.338 167V180.58C157.338 180.86 157.186 181 156.883 181H155.448ZM195.413 155.03C195.646 155.03 195.763 155.17 195.763 155.45V180.475C195.763 180.685 195.728 180.825 195.658 180.895C195.588 180.965 195.448 181 195.238 181H193.628C193.418 181 193.278 180.977 193.208 180.93C193.161 180.86 193.138 180.743 193.138 180.58V155.45C193.138 155.17 193.266 155.03 193.523 155.03H195.413ZM209.35 180.475C209.35 180.685 209.315 180.825 209.245 180.895C209.175 180.965 209.023 181 208.79 181H207.495C207.308 181 207.18 180.977 207.11 180.93C207.063 180.86 207.04 180.743 207.04 180.58V162.87C207.04 162.59 207.168 162.45 207.425 162.45H208.965C209.221 162.45 209.35 162.59 209.35 162.87V180.475ZM209.49 158.215C209.49 158.635 209.315 158.845 208.965 158.845H207.355C207.168 158.845 207.04 158.798 206.97 158.705C206.923 158.612 206.9 158.472 206.9 158.285V155.555C206.9 155.205 207.051 155.03 207.355 155.03H209.035C209.338 155.03 209.49 155.193 209.49 155.52V158.215ZM240.157 175.575C240.157 177.418 239.761 178.842 238.967 179.845C238.174 180.848 236.844 181.35 234.977 181.35C234.067 181.35 233.251 181.233 232.527 181C231.827 180.79 231.361 180.638 231.127 180.545C231.034 180.498 230.952 180.44 230.882 180.37C230.836 180.3 230.824 180.195 230.847 180.055L231.162 178.48C231.186 178.247 231.302 178.165 231.512 178.235C231.886 178.375 232.282 178.538 232.702 178.725C233.146 178.912 233.752 179.005 234.522 179.005C235.619 179.005 236.389 178.725 236.832 178.165C237.299 177.582 237.532 176.508 237.532 174.945V155.415C237.532 155.158 237.649 155.03 237.882 155.03H239.842C240.052 155.03 240.157 155.17 240.157 155.45V175.575ZM253.603 182.33C253.603 183.893 253.288 185.048 252.658 185.795C252.028 186.565 250.838 186.95 249.088 186.95C248.085 186.95 247.455 186.927 247.198 186.88C246.941 186.833 246.813 186.717 246.813 186.53V185.34C246.813 185.247 246.836 185.165 246.883 185.095C246.93 185.048 247 185.025 247.093 185.025L248.983 184.955C249.8 184.932 250.383 184.71 250.733 184.29C251.106 183.893 251.293 183.182 251.293 182.155V162.87C251.293 162.59 251.433 162.45 251.713 162.45H253.253C253.486 162.45 253.603 162.59 253.603 162.87V182.33ZM253.743 158.215C253.743 158.635 253.568 158.845 253.218 158.845H251.608C251.305 158.845 251.153 158.658 251.153 158.285V155.555C251.153 155.205 251.305 155.03 251.608 155.03H253.288C253.591 155.03 253.743 155.193 253.743 155.52V158.215ZM296.066 180.615C296.112 180.732 296.124 180.825 296.101 180.895C296.077 180.965 296.007 181 295.891 181H293.651C293.394 181 293.219 180.918 293.126 180.755L284.866 167.315C284.726 167.128 284.562 167.14 284.376 167.35L280.106 172.145C279.919 172.332 279.826 172.542 279.826 172.775V180.58C279.826 180.86 279.674 181 279.371 181H277.656C277.492 181 277.376 180.977 277.306 180.93C277.236 180.86 277.201 180.743 277.201 180.58V155.38C277.201 155.147 277.317 155.03 277.551 155.03H279.511C279.721 155.03 279.826 155.147 279.826 155.38V168.855C279.826 168.995 279.849 169.077 279.896 169.1C279.942 169.1 280.024 169.042 280.141 168.925L292.391 155.275C292.461 155.182 292.531 155.123 292.601 155.1C292.694 155.053 292.822 155.03 292.986 155.03H294.946C295.109 155.03 295.202 155.077 295.226 155.17C295.272 155.24 295.249 155.322 295.156 155.415L286.616 164.865C286.546 164.958 286.546 165.075 286.616 165.215L296.066 180.615ZM320.721 180.475C320.814 180.638 320.837 180.767 320.791 180.86C320.767 180.953 320.662 181 320.476 181H318.586C318.469 181 318.364 180.977 318.271 180.93C318.177 180.86 318.107 180.767 318.061 180.65L312.286 171.095C312.262 171.025 312.227 170.978 312.181 170.955C312.134 170.932 312.052 170.978 311.936 171.095L307.911 175.155C307.817 175.248 307.747 175.342 307.701 175.435C307.677 175.528 307.666 175.657 307.666 175.82V180.475C307.666 180.685 307.631 180.825 307.561 180.895C307.491 180.965 307.351 181 307.141 181H305.846C305.636 181 305.496 180.977 305.426 180.93C305.379 180.86 305.356 180.743 305.356 180.58V155.45C305.356 155.17 305.484 155.03 305.741 155.03H307.316C307.549 155.03 307.666 155.17 307.666 155.45V172.18C307.666 172.367 307.689 172.472 307.736 172.495C307.782 172.518 307.876 172.46 308.016 172.32L317.221 162.835C317.454 162.578 317.676 162.45 317.886 162.45H319.601C319.811 162.45 319.927 162.508 319.951 162.625C319.974 162.742 319.904 162.882 319.741 163.045L314.036 168.855C313.989 168.925 313.954 168.995 313.931 169.065C313.907 169.135 313.931 169.24 314.001 169.38L320.721 180.475ZM3.64 216.45C3.64 216.17 3.76833 216.03 4.025 216.03H5.915C6.14833 216.03 6.265 216.17 6.265 216.45V239.55C6.265 239.783 6.38167 239.9 6.615 239.9H18.97C19.2033 239.9 19.32 240.005 19.32 240.215V241.685C19.32 241.778 19.2967 241.86 19.25 241.93C19.2033 241.977 19.11 242 18.97 242H4.06C3.89667 242 3.78 241.965 3.71 241.895C3.66333 241.825 3.64 241.72 3.64 241.58V216.45ZM30.7896 241.475C30.7896 241.685 30.7546 241.825 30.6846 241.895C30.6146 241.965 30.4746 242 30.2646 242H28.9346C28.6313 242 28.4796 241.86 28.4796 241.58L28.5146 216.45C28.5146 216.17 28.6313 216.03 28.8646 216.03H30.4396C30.6729 216.03 30.7896 216.17 30.7896 216.45V241.475ZM54.8073 242C54.5273 242 54.3873 241.848 54.3873 241.545V216.45C54.3873 216.17 54.5156 216.03 54.7723 216.03H57.1173C57.2806 216.03 57.3973 216.053 57.4673 216.1C57.5606 216.147 57.6306 216.24 57.6773 216.38L66.0773 237.8C66.1706 238.033 66.2639 238.15 66.3573 238.15C66.4506 238.127 66.5439 238.01 66.6373 237.8L75.1073 216.415C75.2006 216.158 75.3523 216.03 75.5623 216.03H78.0823C78.3156 216.03 78.4323 216.17 78.4323 216.45V241.545C78.4323 241.848 78.2806 242 77.9773 242H76.2273C76.0873 242 75.9823 241.977 75.9123 241.93C75.8423 241.86 75.8073 241.743 75.8073 241.58V220.93C75.8073 220.813 75.7839 220.767 75.7373 220.79C75.6906 220.813 75.6556 220.86 75.6323 220.93L67.5123 241.58C67.4189 241.86 67.2206 242 66.9173 242H65.5173C65.1673 242 64.9339 241.872 64.8173 241.615L56.8723 221.14C56.8256 221.047 56.7789 221 56.7323 221C56.7089 221 56.6973 221.047 56.6973 221.14V241.615C56.6973 241.732 56.6623 241.825 56.5923 241.895C56.5456 241.965 56.4406 242 56.2773 242H54.8073ZM90.1059 242C89.8259 242 89.6859 241.86 89.6859 241.58V223.835C89.6859 223.578 89.8025 223.45 90.0359 223.45H91.5409C91.7742 223.45 91.8909 223.567 91.8909 223.8V225.865C91.8909 225.982 91.9142 226.063 91.9609 226.11C92.0075 226.133 92.0892 226.087 92.2059 225.97C92.9759 225.363 93.6875 224.85 94.3409 224.43C94.9942 223.987 95.6475 223.66 96.3009 223.45C96.9775 223.217 97.7125 223.1 98.5059 223.1C99.9292 223.1 101.049 223.427 101.866 224.08C102.683 224.71 103.219 225.398 103.476 226.145C103.523 226.238 103.593 226.273 103.686 226.25C103.779 226.227 103.873 226.168 103.966 226.075C104.759 225.445 105.483 224.908 106.136 224.465C106.813 224.022 107.489 223.683 108.166 223.45C108.843 223.217 109.578 223.1 110.371 223.1C112.074 223.1 113.381 223.59 114.291 224.57C115.224 225.527 115.691 226.787 115.691 228.35V241.545C115.691 241.848 115.539 242 115.236 242H113.766C113.649 242 113.556 241.965 113.486 241.895C113.416 241.825 113.381 241.72 113.381 241.58V228.945C113.381 227.708 113.089 226.752 112.506 226.075C111.946 225.375 111.036 225.025 109.776 225.025C109.029 225.025 108.318 225.165 107.641 225.445C106.964 225.702 106.358 226.028 105.821 226.425C105.284 226.822 104.806 227.195 104.386 227.545C104.176 227.708 104.024 227.86 103.931 228C103.861 228.14 103.826 228.338 103.826 228.595V241.545C103.826 241.848 103.686 242 103.406 242H101.936C101.796 242 101.691 241.965 101.621 241.895C101.551 241.825 101.516 241.72 101.516 241.58V228.945C101.516 227.708 101.236 226.752 100.676 226.075C100.116 225.375 99.1942 225.025 97.9109 225.025C96.8609 225.025 95.9042 225.27 95.0409 225.76C94.1775 226.25 93.1625 226.997 91.9959 228V241.58C91.9959 241.86 91.8442 242 91.5409 242H90.1059ZM157.871 216.03C158.104 216.03 158.221 216.158 158.221 216.415V241.615C158.221 241.732 158.186 241.825 158.116 241.895C158.069 241.965 157.976 242 157.836 242H156.611C156.471 242 156.342 241.988 156.226 241.965C156.109 241.942 156.004 241.872 155.911 241.755L141.806 221.105C141.689 220.942 141.584 220.872 141.491 220.895C141.421 220.918 141.386 221 141.386 221.14V241.615C141.386 241.872 141.246 242 140.966 242H139.461C139.181 242 139.041 241.86 139.041 241.58V216.45C139.041 216.17 139.169 216.03 139.426 216.03H140.896C141.059 216.03 141.176 216.053 141.246 216.1C141.339 216.123 141.432 216.205 141.526 216.345L155.386 236.715C155.526 236.878 155.642 236.937 155.736 236.89C155.852 236.843 155.911 236.75 155.911 236.61V216.415C155.911 216.158 156.027 216.03 156.261 216.03H157.871ZM169.906 242C169.626 242 169.486 241.86 169.486 241.58V223.835C169.486 223.578 169.603 223.45 169.836 223.45H171.341C171.574 223.45 171.691 223.567 171.691 223.8V225.865C171.691 225.982 171.714 226.063 171.761 226.11C171.831 226.133 171.913 226.087 172.006 225.97C172.823 225.363 173.569 224.85 174.246 224.43C174.923 223.987 175.611 223.66 176.311 223.45C177.011 223.217 177.769 223.1 178.586 223.1C180.429 223.1 181.829 223.59 182.786 224.57C183.743 225.527 184.221 226.775 184.221 228.315V241.545C184.221 241.848 184.081 242 183.801 242H182.331C182.191 242 182.086 241.965 182.016 241.895C181.946 241.825 181.911 241.72 181.911 241.58V228.945C181.911 227.708 181.596 226.752 180.966 226.075C180.359 225.375 179.379 225.025 178.026 225.025C177.279 225.025 176.579 225.142 175.926 225.375C175.296 225.585 174.654 225.912 174.001 226.355C173.348 226.775 172.613 227.323 171.796 228V241.58C171.796 241.86 171.644 242 171.341 242H169.906ZM217.291 242.35C215.027 242.35 213.079 241.848 211.446 240.845C209.836 239.818 208.587 238.325 207.701 236.365C206.837 234.382 206.406 231.978 206.406 229.155C206.406 226.262 206.849 223.812 207.736 221.805C208.622 219.798 209.882 218.282 211.516 217.255C213.149 216.205 215.086 215.68 217.326 215.68C219.566 215.68 221.491 216.205 223.101 217.255C224.711 218.282 225.947 219.787 226.811 221.77C227.697 223.753 228.141 226.192 228.141 229.085C228.141 231.932 227.709 234.347 226.846 236.33C225.982 238.29 224.734 239.783 223.101 240.81C221.467 241.837 219.531 242.35 217.291 242.35ZM217.361 240.215C220.021 240.215 222.016 239.305 223.346 237.485C224.699 235.665 225.376 232.865 225.376 229.085C225.376 225.258 224.687 222.423 223.311 220.58C221.957 218.713 219.962 217.78 217.326 217.78C214.642 217.78 212.612 218.713 211.236 220.58C209.859 222.447 209.171 225.282 209.171 229.085C209.171 232.865 209.859 235.665 211.236 237.485C212.636 239.305 214.677 240.215 217.361 240.215ZM245.806 242.35C244.079 242.35 242.551 241.953 241.221 241.16C239.914 240.343 238.899 239.223 238.176 237.8C237.452 236.353 237.091 234.697 237.091 232.83C237.091 230.917 237.452 229.237 238.176 227.79C238.922 226.32 239.949 225.177 241.256 224.36C242.586 223.52 244.114 223.1 245.841 223.1C247.591 223.1 249.107 223.508 250.391 224.325C251.697 225.142 252.712 226.285 253.436 227.755C254.159 229.202 254.521 230.87 254.521 232.76C254.521 234.65 254.147 236.318 253.401 237.765C252.677 239.188 251.662 240.308 250.356 241.125C249.072 241.942 247.556 242.35 245.806 242.35ZM245.876 240.495C247.182 240.495 248.302 240.18 249.236 239.55C250.169 238.92 250.881 238.022 251.371 236.855C251.884 235.688 252.141 234.323 252.141 232.76C252.141 231.173 251.884 229.797 251.371 228.63C250.857 227.44 250.122 226.53 249.166 225.9C248.232 225.247 247.124 224.92 245.841 224.92C244.557 224.92 243.437 225.247 242.481 225.9C241.524 226.53 240.777 227.44 240.241 228.63C239.727 229.797 239.471 231.173 239.471 232.76C239.471 234.323 239.727 235.688 240.241 236.855C240.777 238.022 241.524 238.92 242.481 239.55C243.437 240.18 244.569 240.495 245.876 240.495ZM295.207 223.485C295.207 225.188 294.81 226.588 294.017 227.685C293.223 228.782 292.138 229.598 290.762 230.135C289.385 230.648 287.81 230.905 286.037 230.905H279.877C279.667 230.905 279.562 231.01 279.562 231.22V241.58C279.562 241.86 279.422 242 279.142 242H277.322C277.182 242 277.077 241.977 277.007 241.93C276.96 241.86 276.937 241.755 276.937 241.615V216.45C276.937 216.17 277.065 216.03 277.322 216.03H285.687C287.53 216.03 289.163 216.287 290.587 216.8C292.033 217.29 293.165 218.083 293.982 219.18C294.798 220.277 295.207 221.712 295.207 223.485ZM292.477 223.38C292.477 222.073 292.197 221.035 291.637 220.265C291.077 219.495 290.283 218.947 289.257 218.62C288.23 218.27 287.005 218.095 285.582 218.095H279.982C279.702 218.095 279.562 218.223 279.562 218.48V228.385C279.562 228.665 279.667 228.805 279.877 228.805H285.827C287.833 228.805 289.443 228.385 290.657 227.545C291.87 226.682 292.477 225.293 292.477 223.38ZM306.638 223.45C306.918 223.45 307.058 223.602 307.058 223.905V225.515C307.058 225.702 307.093 225.807 307.163 225.83C307.257 225.853 307.373 225.795 307.513 225.655C307.747 225.398 308.073 225.072 308.493 224.675C308.937 224.278 309.532 223.917 310.278 223.59C311.025 223.263 311.958 223.1 313.078 223.1C314.548 223.1 315.867 223.45 317.033 224.15C318.2 224.827 319.133 225.853 319.833 227.23C320.533 228.583 320.883 230.31 320.883 232.41C320.883 234.463 320.545 236.237 319.868 237.73C319.192 239.2 318.235 240.343 316.998 241.16C315.785 241.953 314.35 242.35 312.693 242.35C311.573 242.35 310.593 242.175 309.753 241.825C308.913 241.475 308.213 241.067 307.653 240.6C307.443 240.413 307.303 240.343 307.233 240.39C307.163 240.437 307.128 240.588 307.128 240.845V247.355C307.128 247.635 307 247.775 306.743 247.775H305.168C304.935 247.775 304.818 247.647 304.818 247.39V223.94C304.818 223.753 304.853 223.625 304.923 223.555C304.993 223.485 305.122 223.45 305.308 223.45H306.638ZM307.128 238.08C307.898 238.85 308.692 239.457 309.508 239.9C310.325 240.343 311.223 240.565 312.203 240.565C313.44 240.565 314.525 240.25 315.458 239.62C316.392 238.99 317.127 238.08 317.663 236.89C318.223 235.7 318.503 234.242 318.503 232.515C318.503 230.718 318.223 229.272 317.663 228.175C317.103 227.055 316.357 226.227 315.423 225.69C314.513 225.153 313.522 224.885 312.448 224.885C311.398 224.885 310.465 225.118 309.648 225.585C308.855 226.052 308.237 226.623 307.793 227.3C307.35 227.953 307.128 228.607 307.128 229.26V238.08ZM2.45 290.085C2.45 287.192 2.88167 284.753 3.745 282.77C4.63167 280.763 5.89167 279.247 7.525 278.22C9.15833 277.193 11.095 276.68 13.335 276.68C15.575 276.68 17.5117 277.193 19.145 278.22C20.7783 279.247 22.0267 280.763 22.89 282.77C23.7533 284.753 24.185 287.192 24.185 290.085C24.185 293.072 23.7417 295.51 22.855 297.4C21.9683 299.267 20.72 300.725 19.11 301.775C18.9933 301.868 18.935 301.973 18.935 302.09C18.935 302.37 19.1567 302.732 19.6 303.175C20.0433 303.642 20.615 304.062 21.315 304.435C22.0383 304.808 22.7967 305.053 23.59 305.17C23.73 305.193 23.8117 305.228 23.835 305.275C23.8817 305.345 23.905 305.415 23.905 305.485V306.745C23.905 306.978 23.835 307.13 23.695 307.2C23.5783 307.27 23.3683 307.305 23.065 307.305C22.1317 307.305 21.105 307.002 19.985 306.395C18.865 305.812 17.745 304.75 16.625 303.21C16.5083 303.047 16.3333 303 16.1 303.07C15.6567 303.14 15.2017 303.198 14.735 303.245C14.2683 303.315 13.8017 303.35 13.335 303.35C11.1183 303.35 9.19333 302.86 7.56 301.88C5.95 300.877 4.69 299.383 3.78 297.4C2.89333 295.417 2.45 292.978 2.45 290.085ZM5.215 290.155C5.215 293.912 5.90333 296.7 7.28 298.52C8.65667 300.317 10.675 301.215 13.335 301.215C15.995 301.215 18.0133 300.317 19.39 298.52C20.7667 296.7 21.455 293.888 21.455 290.085C21.455 286.352 20.7667 283.54 19.39 281.65C18.0367 279.737 16.0183 278.78 13.335 278.78C10.6517 278.78 8.62167 279.737 7.245 281.65C5.89167 283.54 5.215 286.375 5.215 290.155ZM48.8852 284.45C49.0718 284.45 49.2002 284.485 49.2702 284.555C49.3402 284.625 49.3752 284.765 49.3752 284.975V308.355C49.3752 308.635 49.2468 308.775 48.9902 308.775H47.3802C47.1702 308.775 47.0652 308.635 47.0652 308.355V301.845C47.0652 301.565 47.0302 301.402 46.9602 301.355C46.9135 301.308 46.7735 301.378 46.5402 301.565C45.9335 302.032 45.1752 302.452 44.2652 302.825C43.3552 303.175 42.3518 303.35 41.2552 303.35C39.5985 303.35 38.1635 302.953 36.9502 302.16C35.7602 301.343 34.8385 300.212 34.1852 298.765C33.5318 297.318 33.2052 295.615 33.2052 293.655C33.2052 291.718 33.5202 290.038 34.1502 288.615C34.7802 287.192 35.7018 286.083 36.9152 285.29C38.1285 284.497 39.5752 284.1 41.2552 284.1C42.4918 284.1 43.4835 284.263 44.2302 284.59C45.0002 284.893 45.5952 285.243 46.0152 285.64C46.4585 286.013 46.7968 286.317 47.0302 286.55C47.2402 286.76 47.3685 286.725 47.4152 286.445L47.5902 284.975C47.6368 284.765 47.6952 284.625 47.7652 284.555C47.8352 284.485 47.9752 284.45 48.1852 284.45H48.8852ZM47.0652 290.68C47.0652 289.863 46.8318 289.093 46.3652 288.37C45.8985 287.623 45.2685 287.017 44.4752 286.55C43.6818 286.083 42.7602 285.85 41.7102 285.85C40.6135 285.85 39.5985 286.13 38.6652 286.69C37.7318 287.25 36.9852 288.113 36.4252 289.28C35.8652 290.423 35.5852 291.87 35.5852 293.62C35.5852 295.3 35.8535 296.735 36.3902 297.925C36.9268 299.092 37.6502 299.99 38.5602 300.62C39.4935 301.25 40.5668 301.565 41.7802 301.565C42.7835 301.565 43.7402 301.355 44.6502 300.935C45.5835 300.492 46.3885 299.885 47.0652 299.115V290.68ZM90.8668 302.405C90.9135 302.545 90.9018 302.685 90.8318 302.825C90.7618 302.942 90.6568 303 90.5168 303H88.5918C88.3818 303 88.2185 302.872 88.1018 302.615L83.3768 291.31C83.2835 291.053 83.0268 290.925 82.6068 290.925H75.9918C75.8285 290.925 75.7118 290.96 75.6418 291.03C75.5952 291.1 75.5718 291.193 75.5718 291.31V302.51C75.5718 302.837 75.4202 303 75.1168 303H73.4018C73.2152 303 73.0868 302.965 73.0168 302.895C72.9702 302.825 72.9468 302.72 72.9468 302.58V277.45C72.9468 277.17 73.0752 277.03 73.3318 277.03H82.7818C85.4418 277.03 87.5068 277.59 88.9768 278.71C90.4468 279.807 91.1818 281.452 91.1818 283.645C91.1818 284.998 90.9252 286.142 90.4118 287.075C89.8985 287.985 89.2335 288.708 88.4168 289.245C87.6235 289.782 86.8185 290.167 86.0018 290.4C85.8385 290.423 85.7918 290.528 85.8618 290.715L90.8668 302.405ZM81.6968 288.895C83.9368 288.895 85.6168 288.51 86.7368 287.74C87.8802 286.947 88.4518 285.675 88.4518 283.925C88.4518 282.268 87.9618 281.043 86.9818 280.25C86.0018 279.457 84.5668 279.06 82.6768 279.06H76.0268C75.7235 279.06 75.5718 279.165 75.5718 279.375V288.51C75.5718 288.767 75.6768 288.895 75.8868 288.895H81.6968ZM101.488 303C101.348 303 101.243 302.965 101.173 302.895C101.103 302.825 101.068 302.72 101.068 302.58V284.835C101.068 284.578 101.184 284.45 101.418 284.45H102.923C103.133 284.45 103.238 284.567 103.238 284.8V287.11C103.238 287.227 103.273 287.297 103.343 287.32C103.413 287.343 103.494 287.308 103.588 287.215C104.218 286.468 104.836 285.873 105.443 285.43C106.049 284.963 106.644 284.625 107.228 284.415C107.834 284.205 108.441 284.1 109.048 284.1C109.888 284.1 110.308 284.24 110.308 284.52V286.13C110.308 286.317 110.214 286.398 110.028 286.375C109.864 286.352 109.666 286.328 109.433 286.305C109.223 286.282 108.966 286.27 108.663 286.27C108.126 286.27 107.554 286.398 106.948 286.655C106.341 286.888 105.769 287.215 105.233 287.635C104.696 288.055 104.253 288.522 103.903 289.035C103.553 289.548 103.378 290.073 103.378 290.61V302.58C103.378 302.86 103.226 303 102.923 303H101.488ZM145.688 281.545C145.035 280.775 144.206 280.122 143.203 279.585C142.2 279.048 140.975 278.78 139.528 278.78C137.708 278.78 136.261 279.2 135.188 280.04C134.115 280.88 133.578 282.058 133.578 283.575C133.578 283.972 133.66 284.438 133.823 284.975C134.01 285.488 134.383 286.002 134.943 286.515C135.526 287.028 136.39 287.495 137.533 287.915L142.503 289.63C144.603 290.33 146.085 291.24 146.948 292.36C147.835 293.48 148.278 294.81 148.278 296.35C148.278 297.82 147.916 299.08 147.193 300.13C146.47 301.18 145.431 301.985 144.078 302.545C142.748 303.082 141.15 303.35 139.283 303.35C137.93 303.35 136.681 303.187 135.538 302.86C134.418 302.533 133.415 302.055 132.528 301.425C131.641 300.772 130.86 299.967 130.183 299.01C130.066 298.87 130.02 298.742 130.043 298.625C130.09 298.485 130.206 298.345 130.393 298.205L131.303 297.575C131.513 297.458 131.665 297.4 131.758 297.4C131.875 297.4 131.991 297.47 132.108 297.61C132.738 298.403 133.368 299.08 133.998 299.64C134.628 300.177 135.351 300.585 136.168 300.865C136.985 301.122 138 301.25 139.213 301.25C141.15 301.25 142.713 300.888 143.903 300.165C145.093 299.442 145.688 298.24 145.688 296.56C145.688 295.93 145.571 295.37 145.338 294.88C145.105 294.367 144.685 293.888 144.078 293.445C143.495 292.978 142.62 292.535 141.453 292.115L136.168 290.19C134.885 289.723 133.87 289.152 133.123 288.475C132.376 287.798 131.84 287.052 131.513 286.235C131.186 285.418 131.023 284.602 131.023 283.785C131.023 282.292 131.373 281.02 132.073 279.97C132.796 278.92 133.8 278.115 135.083 277.555C136.366 276.972 137.86 276.68 139.563 276.68C140.706 276.68 141.745 276.82 142.678 277.1C143.635 277.38 144.521 277.777 145.338 278.29C146.155 278.78 146.878 279.387 147.508 280.11C147.578 280.203 147.625 280.297 147.648 280.39C147.695 280.483 147.648 280.588 147.508 280.705L146.248 281.72C146.131 281.79 146.038 281.813 145.968 281.79C145.921 281.743 145.828 281.662 145.688 281.545ZM168.993 288.37C168.48 287.623 167.78 287.028 166.893 286.585C166.03 286.118 164.991 285.885 163.778 285.885C162.425 285.885 161.293 286.177 160.383 286.76C159.496 287.32 159.053 288.102 159.053 289.105C159.053 289.642 159.251 290.155 159.648 290.645C160.068 291.112 160.896 291.543 162.133 291.94L166.683 293.34C168.2 293.783 169.308 294.413 170.008 295.23C170.708 296.023 171.058 296.957 171.058 298.03C171.058 299.08 170.731 300.002 170.078 300.795C169.448 301.588 168.573 302.218 167.453 302.685C166.333 303.128 165.073 303.35 163.673 303.35C161.9 303.35 160.325 302.988 158.948 302.265C157.595 301.542 156.626 300.608 156.043 299.465C155.996 299.372 155.973 299.29 155.973 299.22C155.973 299.15 156.02 299.08 156.113 299.01L157.233 298.345C157.326 298.298 157.408 298.287 157.478 298.31C157.571 298.31 157.641 298.345 157.688 298.415C158.085 299.045 158.563 299.593 159.123 300.06C159.683 300.527 160.336 300.888 161.083 301.145C161.853 301.402 162.728 301.53 163.708 301.53C164.665 301.53 165.528 301.402 166.298 301.145C167.068 300.865 167.675 300.48 168.118 299.99C168.585 299.5 168.818 298.928 168.818 298.275C168.818 297.575 168.526 296.98 167.943 296.49C167.383 295.977 166.426 295.533 165.073 295.16L161.503 294.11C159.73 293.597 158.505 292.955 157.828 292.185C157.175 291.392 156.848 290.505 156.848 289.525C156.848 288.428 157.14 287.483 157.723 286.69C158.33 285.873 159.158 285.243 160.208 284.8C161.258 284.333 162.46 284.1 163.813 284.1C165.33 284.1 166.683 284.392 167.873 284.975C169.063 285.558 169.985 286.352 170.638 287.355C170.708 287.425 170.743 287.495 170.743 287.565C170.743 287.635 170.696 287.693 170.603 287.74L169.413 288.44C169.343 288.463 169.273 288.475 169.203 288.475C169.133 288.475 169.063 288.44 168.993 288.37ZM191.345 277.38C191.345 277.263 191.369 277.182 191.415 277.135C191.462 277.065 191.555 277.03 191.695 277.03H210.175C210.315 277.03 210.409 277.065 210.455 277.135C210.502 277.182 210.525 277.263 210.525 277.38V278.815C210.525 279.025 210.409 279.13 210.175 279.13H202.93C202.674 279.13 202.545 279.235 202.545 279.445V302.58C202.545 302.86 202.429 303 202.195 303H200.305C200.049 303 199.92 302.86 199.92 302.58V279.445C199.92 279.235 199.804 279.13 199.57 279.13H191.695C191.462 279.13 191.345 279.025 191.345 278.815V277.38ZM222.211 286.235C222.024 286.235 221.931 286.328 221.931 286.515V298.275C221.931 299.465 222.117 300.247 222.491 300.62C222.864 300.993 223.412 301.18 224.136 301.18H226.691C226.807 301.18 226.889 301.215 226.936 301.285C227.006 301.332 227.041 301.413 227.041 301.53V302.475C227.041 302.662 226.924 302.79 226.691 302.86C226.481 302.883 226.166 302.907 225.746 302.93C225.349 302.953 224.952 302.977 224.556 303C224.159 303 223.856 303 223.646 303C222.199 303 221.161 302.673 220.531 302.02C219.924 301.343 219.621 300.258 219.621 298.765V286.55C219.621 286.34 219.516 286.235 219.306 286.235H216.331C216.121 286.235 216.016 286.142 216.016 285.955V284.73C216.016 284.543 216.109 284.45 216.296 284.45H219.411C219.551 284.45 219.632 284.357 219.656 284.17L220.006 278.57C220.006 278.29 220.111 278.15 220.321 278.15H221.581C221.837 278.15 221.966 278.302 221.966 278.605V284.17C221.966 284.357 222.047 284.45 222.211 284.45H226.831C227.017 284.45 227.111 284.543 227.111 284.73V285.955C227.111 286.142 227.006 286.235 226.796 286.235H222.211ZM266.724 294.6C266.724 296.583 266.385 298.228 265.709 299.535C265.032 300.842 264.017 301.81 262.664 302.44C261.31 303.047 259.642 303.35 257.659 303.35C255.559 303.35 253.844 303.012 252.514 302.335C251.184 301.658 250.192 300.632 249.539 299.255C248.909 297.878 248.594 296.14 248.594 294.04V277.485C248.594 277.182 248.71 277.03 248.944 277.03H250.834C251.114 277.03 251.254 277.17 251.254 277.45V294.74C251.254 296.91 251.802 298.532 252.899 299.605C253.995 300.678 255.64 301.215 257.834 301.215C259.28 301.215 260.494 300.982 261.474 300.515C262.477 300.025 263.224 299.302 263.714 298.345C264.227 297.365 264.484 296.128 264.484 294.635V277.415C264.484 277.158 264.6 277.03 264.834 277.03H266.374C266.607 277.03 266.724 277.158 266.724 277.415V294.6ZM283.56 301.425C284.657 301.425 285.695 301.133 286.675 300.55C287.679 299.967 288.682 299.162 289.685 298.135V284.87C289.685 284.59 289.837 284.45 290.14 284.45H291.61C291.867 284.45 291.995 284.59 291.995 284.87V302.615C291.995 302.872 291.879 303 291.645 303H290.14C289.907 303 289.79 302.883 289.79 302.65V300.515C289.79 300.398 289.767 300.328 289.72 300.305C289.674 300.282 289.592 300.317 289.475 300.41C288.122 301.553 286.944 302.335 285.94 302.755C284.96 303.152 283.992 303.35 283.035 303.35C281.962 303.35 280.994 303.14 280.13 302.72C279.29 302.277 278.614 301.658 278.1 300.865C277.61 300.048 277.365 299.127 277.365 298.1V284.905C277.365 284.602 277.517 284.45 277.82 284.45H279.29C279.547 284.45 279.675 284.59 279.675 284.87V297.33C279.675 298.543 280.014 299.535 280.69 300.305C281.39 301.052 282.347 301.425 283.56 301.425ZM22.505 338.03C22.645 338.03 22.7383 338.077 22.785 338.17C22.855 338.24 22.855 338.333 22.785 338.45L13.79 363.545C13.6967 363.848 13.475 364 13.125 364H11.27C10.85 364 10.5933 363.86 10.5 363.58L1.715 338.485C1.66833 338.345 1.66833 338.24 1.715 338.17C1.785 338.077 1.89 338.03 2.03 338.03H3.815C4.07167 338.03 4.24667 338.147 4.34 338.38L12.04 360.535C12.2267 361.002 12.4017 360.99 12.565 360.5L20.44 338.345C20.51 338.135 20.6617 338.03 20.895 338.03H22.505ZM45.9807 345.45C46.1207 345.45 46.214 345.497 46.2607 345.59C46.3307 345.66 46.3424 345.753 46.2957 345.87L39.1207 363.545C39.004 363.848 38.759 364 38.3857 364H37.4407C37.0207 364 36.7524 363.86 36.6357 363.58L29.4957 345.905C29.4724 345.765 29.484 345.66 29.5307 345.59C29.6007 345.497 29.7057 345.45 29.8457 345.45H31.4557C31.5957 345.45 31.7007 345.473 31.7707 345.52C31.864 345.567 31.9224 345.66 31.9457 345.8L37.8257 360.43C37.989 360.873 38.1757 360.862 38.3857 360.395L44.2307 345.765C44.2774 345.648 44.3357 345.567 44.4057 345.52C44.4757 345.473 44.569 345.45 44.6857 345.45H45.9807ZM98.51 338.03C98.6733 338.03 98.7783 338.077 98.825 338.17C98.895 338.263 98.9183 338.38 98.895 338.52L91.65 363.545C91.5566 363.848 91.335 364 90.985 364H89.27C88.8733 364 88.6283 363.86 88.535 363.58L82.62 342.58C82.5966 342.463 82.5616 342.405 82.515 342.405C82.4916 342.405 82.4566 342.463 82.41 342.58L76.425 363.545C76.3316 363.848 76.11 364 75.76 364H74.01C73.6133 364 73.3683 363.86 73.275 363.58L66.17 338.555C66.1466 338.392 66.17 338.263 66.24 338.17C66.31 338.077 66.4266 338.03 66.59 338.03H68.27C68.4333 338.03 68.55 338.053 68.62 338.1C68.7133 338.147 68.7716 338.24 68.795 338.38L74.815 359.94C74.885 360.173 74.955 360.29 75.025 360.29C75.095 360.267 75.165 360.138 75.235 359.905L81.36 338.345C81.4066 338.275 81.465 338.205 81.535 338.135C81.605 338.065 81.7333 338.03 81.92 338.03H83.46C83.6466 338.03 83.775 338.053 83.845 338.1C83.915 338.147 83.9616 338.24 83.985 338.38L90.04 359.975C90.11 360.185 90.18 360.29 90.25 360.29C90.32 360.29 90.39 360.185 90.46 359.975L96.585 338.345C96.6083 338.228 96.6666 338.147 96.76 338.1C96.8533 338.053 96.97 338.03 97.11 338.03H98.51ZM130.837 345.45C130.977 345.45 131.07 345.497 131.117 345.59C131.187 345.66 131.199 345.753 131.152 345.87L125.867 363.58C125.844 363.743 125.774 363.86 125.657 363.93C125.564 363.977 125.424 364 125.237 364H123.872C123.499 364 123.265 363.86 123.172 363.58L118.727 349.615C118.634 349.405 118.552 349.3 118.482 349.3C118.435 349.3 118.389 349.405 118.342 349.615L114.107 363.58C114.084 363.743 114.025 363.86 113.932 363.93C113.839 363.977 113.699 364 113.512 364H112.042C111.669 364 111.435 363.86 111.342 363.58L105.847 345.905C105.8 345.765 105.8 345.66 105.847 345.59C105.917 345.497 106.034 345.45 106.197 345.45H107.737C107.877 345.45 107.982 345.473 108.052 345.52C108.145 345.567 108.204 345.66 108.227 345.8L112.707 360.36C112.777 360.593 112.859 360.71 112.952 360.71C113.045 360.687 113.127 360.558 113.197 360.325L117.607 345.73C117.654 345.637 117.712 345.567 117.782 345.52C117.852 345.473 117.945 345.45 118.062 345.45H119.357C119.474 345.45 119.579 345.473 119.672 345.52C119.765 345.567 119.824 345.66 119.847 345.8L124.467 360.36C124.537 360.593 124.619 360.71 124.712 360.71C124.805 360.687 124.887 360.558 124.957 360.325L129.227 345.765C129.274 345.648 129.344 345.567 129.437 345.52C129.53 345.473 129.635 345.45 129.752 345.45H130.837ZM171.255 363.405C171.419 363.638 171.465 363.802 171.395 363.895C171.349 363.965 171.244 364 171.08 364H168.98C168.794 364 168.642 363.918 168.525 363.755L161.455 353.22C161.339 353.01 161.222 352.905 161.105 352.905C161.012 352.905 160.872 353.045 160.685 353.325L153.72 363.755C153.674 363.848 153.604 363.918 153.51 363.965C153.417 363.988 153.324 364 153.23 364H151.375C151.212 364 151.107 363.965 151.06 363.895C151.014 363.802 151.06 363.638 151.2 363.405L159.425 351.12C159.542 350.98 159.589 350.852 159.565 350.735C159.565 350.618 159.507 350.478 159.39 350.315L151.445 338.45C151.399 338.38 151.387 338.298 151.41 338.205C151.434 338.088 151.504 338.03 151.62 338.03H153.86C154.024 338.03 154.129 338.053 154.175 338.1C154.245 338.123 154.304 338.182 154.35 338.275L160.93 348.215C161.047 348.355 161.152 348.425 161.245 348.425C161.339 348.425 161.444 348.343 161.56 348.18L168.14 338.275C168.187 338.182 168.245 338.123 168.315 338.1C168.385 338.053 168.479 338.03 168.595 338.03H170.66C170.8 338.03 170.87 338.077 170.87 338.17C170.894 338.24 170.87 338.31 170.8 338.38L162.855 350.175C162.785 350.292 162.739 350.408 162.715 350.525C162.715 350.618 162.762 350.735 162.855 350.875L171.255 363.405ZM195.187 363.405C195.35 363.638 195.408 363.802 195.362 363.895C195.338 363.965 195.245 364 195.082 364H193.122C192.842 364 192.643 363.918 192.527 363.755L187.277 356.51C187.16 356.37 187.055 356.3 186.962 356.3C186.892 356.3 186.798 356.37 186.682 356.51L181.187 363.755C181.07 363.918 180.872 364 180.592 364H179.262C179.052 364 178.912 363.953 178.842 363.86C178.772 363.743 178.83 363.557 179.017 363.3L185.562 355.005C185.678 354.865 185.725 354.748 185.702 354.655C185.702 354.538 185.655 354.422 185.562 354.305L179.367 345.905C179.297 345.812 179.285 345.718 179.332 345.625C179.378 345.508 179.472 345.45 179.612 345.45H181.432C181.595 345.45 181.712 345.473 181.782 345.52C181.852 345.543 181.922 345.602 181.992 345.695L187.102 352.555C187.265 352.812 187.44 352.812 187.627 352.555L192.597 345.695C192.643 345.602 192.702 345.543 192.772 345.52C192.865 345.473 192.993 345.45 193.157 345.45H194.627C194.79 345.45 194.872 345.497 194.872 345.59C194.895 345.66 194.872 345.742 194.802 345.835L188.712 353.955C188.595 354.095 188.537 354.223 188.537 354.34C188.56 354.433 188.618 354.55 188.712 354.69L195.187 363.405ZM234.703 338.03C234.843 338.03 234.936 338.077 234.983 338.17C235.029 338.24 235.018 338.345 234.948 338.485L226.618 352.52C226.524 352.637 226.466 352.753 226.443 352.87C226.443 352.987 226.443 353.185 226.443 353.465V363.44C226.443 363.813 226.233 364 225.813 364H224.308C224.098 364 223.958 363.965 223.888 363.895C223.818 363.802 223.783 363.685 223.783 363.545V353.71C223.783 353.5 223.759 353.348 223.713 353.255C223.689 353.138 223.643 353.01 223.573 352.87L215.068 338.555C214.998 338.392 214.986 338.263 215.033 338.17C215.103 338.077 215.231 338.03 215.418 338.03H217.238C217.424 338.03 217.553 338.065 217.623 338.135C217.716 338.182 217.809 338.275 217.903 338.415L224.763 350.14C224.903 350.42 225.031 350.56 225.148 350.56C225.288 350.56 225.428 350.443 225.568 350.21L232.358 338.415C232.474 338.252 232.568 338.147 232.638 338.1C232.708 338.053 232.836 338.03 233.023 338.03H234.703ZM243.734 369.775C243.058 369.775 242.521 369.752 242.124 369.705C241.728 369.682 241.529 369.565 241.529 369.355V368.34C241.529 368.177 241.588 368.06 241.704 367.99C241.844 367.943 242.124 367.92 242.544 367.92H244.714C245.251 367.92 245.729 367.733 246.149 367.36C246.593 366.987 246.954 366.52 247.234 365.96C247.538 365.4 247.724 364.828 247.794 364.245C247.888 363.662 247.853 363.16 247.689 362.74L241.039 345.975C240.993 345.835 240.993 345.718 241.039 345.625C241.086 345.508 241.203 345.45 241.389 345.45H242.964C243.104 345.45 243.209 345.473 243.279 345.52C243.373 345.567 243.431 345.66 243.454 345.8L249.054 360.185C249.148 360.395 249.253 360.5 249.369 360.5C249.486 360.477 249.591 360.325 249.684 360.045L255.144 345.765C255.191 345.648 255.249 345.567 255.319 345.52C255.389 345.473 255.483 345.45 255.599 345.45H256.859C256.999 345.45 257.093 345.497 257.139 345.59C257.209 345.683 257.221 345.777 257.174 345.87L249.334 366.065C249.054 366.812 248.728 367.418 248.354 367.885C247.981 368.375 247.561 368.748 247.094 369.005C246.651 369.285 246.149 369.483 245.589 369.6C245.029 369.717 244.411 369.775 243.734 369.775ZM277.414 364C277.274 364 277.169 363.977 277.099 363.93C277.052 363.883 277.029 363.79 277.029 363.65V362.95C277.029 362.787 277.052 362.658 277.099 362.565C277.146 362.472 277.239 362.343 277.379 362.18L291.414 340.445C291.531 340.235 291.484 340.13 291.274 340.13H277.834C277.717 340.13 277.636 340.107 277.589 340.06C277.542 340.013 277.519 339.932 277.519 339.815V338.31C277.519 338.123 277.612 338.03 277.799 338.03H294.809C295.019 338.03 295.124 338.123 295.124 338.31V339.115C295.124 339.232 295.101 339.325 295.054 339.395C295.007 339.465 294.949 339.57 294.879 339.71L280.634 361.585C280.564 361.678 280.541 361.76 280.564 361.83C280.611 361.877 280.669 361.9 280.739 361.9H294.774C294.984 361.9 295.089 361.982 295.089 362.145V363.685C295.089 363.778 295.054 363.86 294.984 363.93C294.937 363.977 294.856 364 294.739 364H277.414ZM303.144 364C303.027 364 302.946 363.977 302.899 363.93C302.852 363.883 302.829 363.79 302.829 363.65V362.74C302.829 362.577 302.852 362.437 302.899 362.32C302.969 362.203 303.062 362.04 303.179 361.83L313.819 347.48C313.982 347.27 313.936 347.165 313.679 347.165H303.949C303.809 347.165 303.716 347.142 303.669 347.095C303.622 347.048 303.599 346.967 303.599 346.85V345.765C303.599 345.555 303.692 345.45 303.879 345.45H316.479C316.642 345.45 316.724 345.543 316.724 345.73V346.745C316.724 346.908 316.701 347.06 316.654 347.2C316.607 347.317 316.537 347.457 316.444 347.62L305.769 361.97C305.606 362.18 305.641 362.285 305.874 362.285H316.619C316.829 362.285 316.934 362.378 316.934 362.565V363.65C316.934 363.767 316.911 363.86 316.864 363.93C316.817 363.977 316.712 364 316.549 364H303.144Z" fill="#4F5C6F"/>
<path d="M12.32 424.645C13.8133 424.645 15.19 424.96 16.45 425.59C17.71 426.197 18.8067 427.083 19.74 428.25C20.6967 429.417 21.4317 430.828 21.945 432.485C22.4583 434.142 22.715 436.008 22.715 438.085C22.715 440.838 22.26 443.207 21.35 445.19C20.4633 447.15 19.2383 448.667 17.675 449.74C16.1117 450.79 14.315 451.315 12.285 451.315C10.2783 451.315 8.48167 450.79 6.895 449.74C5.30833 448.667 4.06 447.15 3.15 445.19C2.26333 443.23 1.82 440.873 1.82 438.12C1.82 436.02 2.07667 434.153 2.59 432.52C3.12667 430.863 3.86167 429.452 4.795 428.285C5.75167 427.095 6.86 426.197 8.12 425.59C9.40333 424.96 10.8033 424.645 12.32 424.645ZM12.285 447.605C13.405 447.605 14.35 447.29 15.12 446.66C15.89 446.007 16.4733 444.992 16.87 443.615C17.2667 442.215 17.465 440.383 17.465 438.12C17.465 435.787 17.255 433.908 16.835 432.485C16.4383 431.038 15.855 429.988 15.085 429.335C14.315 428.658 13.3817 428.32 12.285 428.32C11.1883 428.32 10.255 428.658 9.485 429.335C8.715 429.988 8.12 431.038 7.7 432.485C7.28 433.932 7.07 435.81 7.07 438.12C7.07 440.36 7.28 442.18 7.7 443.58C8.12 444.98 8.715 446.007 9.485 446.66C10.255 447.29 11.1883 447.605 12.285 447.605ZM52.1905 447.115C52.5638 447.115 52.7505 447.278 52.7505 447.605V450.475C52.7505 450.592 52.7038 450.708 52.6105 450.825C52.5171 450.942 52.3655 451 52.1555 451H38.8555C38.4821 451 38.2955 450.837 38.2955 450.51V447.605C38.2955 447.278 38.4705 447.115 38.8205 447.115H42.7405C42.9505 447.115 43.0555 447.045 43.0555 446.905V430.63C43.0555 430.327 42.9155 430.21 42.6355 430.28L38.9255 431.505C38.4821 431.622 38.2605 431.435 38.2605 430.945V428.915C38.2605 428.705 38.2955 428.565 38.3655 428.495C38.4355 428.402 38.5521 428.308 38.7155 428.215L44.3505 425.38C44.6305 425.24 44.8521 425.147 45.0155 425.1C45.2021 425.053 45.4238 425.03 45.6805 425.03H47.7805C48.0838 425.03 48.2355 425.217 48.2355 425.59V446.8C48.2355 447.01 48.3405 447.115 48.5505 447.115H52.1905ZM75.9248 439.87C76.9982 438.913 77.8732 438.085 78.5498 437.385C79.2498 436.685 79.7982 436.055 80.1948 435.495C80.6148 434.935 80.9065 434.41 81.0698 433.92C81.2332 433.407 81.3148 432.87 81.3148 432.31C81.3148 431.493 81.1048 430.805 80.6848 430.245C80.2882 429.685 79.7632 429.253 79.1098 428.95C78.4798 428.647 77.7682 428.495 76.9748 428.495C76.3448 428.495 75.7148 428.612 75.0848 428.845C74.4548 429.078 73.8365 429.463 73.2298 430C72.6465 430.513 72.0982 431.213 71.5848 432.1C71.5148 432.24 71.3982 432.322 71.2348 432.345C71.0948 432.368 70.9198 432.322 70.7098 432.205L68.1198 430.84C67.9098 430.723 67.7932 430.572 67.7698 430.385C67.7465 430.198 67.8048 430.012 67.9448 429.825C69.0882 428.052 70.4532 426.757 72.0398 425.94C73.6498 425.1 75.4115 424.68 77.3248 424.68C79.0515 424.68 80.5915 424.983 81.9448 425.59C83.2982 426.173 84.3715 427.037 85.1648 428.18C85.9582 429.323 86.3548 430.712 86.3548 432.345C86.3548 433.325 86.1798 434.247 85.8298 435.11C85.5032 435.973 84.9548 436.848 84.1848 437.735C83.4148 438.622 82.3882 439.602 81.1048 440.675L74.4198 446.31C74.2798 446.403 74.2098 446.497 74.2098 446.59C74.2332 446.683 74.3732 446.73 74.6298 446.73H86.0048C86.4015 446.73 86.5998 446.893 86.5998 447.22V450.44C86.5998 450.603 86.5532 450.743 86.4598 450.86C86.3665 450.953 86.2032 451 85.9698 451H68.4348C68.1548 451 67.9565 450.953 67.8398 450.86C67.7465 450.767 67.6998 450.592 67.6998 450.335V448.06C67.6998 447.92 67.7232 447.792 67.7698 447.675C67.8398 447.535 67.9682 447.36 68.1548 447.15C68.3648 446.917 68.6798 446.625 69.0998 446.275L75.9248 439.87ZM102.872 428.95C102.685 428.74 102.685 428.507 102.872 428.25C103.548 427.48 104.342 426.838 105.252 426.325C106.162 425.788 107.154 425.38 108.227 425.1C109.324 424.82 110.455 424.68 111.622 424.68C113.582 424.68 115.262 424.972 116.662 425.555C118.062 426.115 119.135 426.897 119.882 427.9C120.652 428.903 121.037 430.07 121.037 431.4C121.037 432.543 120.675 433.628 119.952 434.655C119.229 435.658 118.179 436.382 116.802 436.825C116.545 436.918 116.417 437.023 116.417 437.14C116.417 437.257 116.545 437.35 116.802 437.42C117.759 437.7 118.622 438.143 119.392 438.75C120.162 439.333 120.757 440.033 121.177 440.85C121.62 441.667 121.842 442.588 121.842 443.615C121.842 445.178 121.445 446.543 120.652 447.71C119.859 448.877 118.669 449.775 117.082 450.405C115.519 451.035 113.547 451.35 111.167 451.35C109.907 451.35 108.682 451.187 107.492 450.86C106.325 450.533 105.252 450.067 104.272 449.46C103.315 448.83 102.498 448.083 101.822 447.22C101.682 447.057 101.623 446.905 101.647 446.765C101.693 446.602 101.798 446.462 101.962 446.345L104.272 444.665C104.458 444.548 104.598 444.502 104.692 444.525C104.808 444.525 104.902 444.572 104.972 444.665C105.695 445.388 106.383 445.972 107.037 446.415C107.69 446.835 108.378 447.15 109.102 447.36C109.825 447.547 110.619 447.64 111.482 447.64C113.162 447.64 114.457 447.278 115.367 446.555C116.3 445.832 116.767 444.887 116.767 443.72C116.767 442.81 116.51 442.04 115.997 441.41C115.484 440.78 114.807 440.302 113.967 439.975C113.15 439.625 112.263 439.45 111.307 439.45L108.262 439.415C107.889 439.415 107.702 439.263 107.702 438.96V436.195C107.702 435.938 107.889 435.787 108.262 435.74L110.712 435.67C111.738 435.647 112.649 435.46 113.442 435.11C114.235 434.76 114.854 434.293 115.297 433.71C115.764 433.103 115.997 432.427 115.997 431.68C115.997 431.05 115.799 430.478 115.402 429.965C115.029 429.452 114.504 429.055 113.827 428.775C113.173 428.472 112.415 428.32 111.552 428.32C110.432 428.32 109.405 428.53 108.472 428.95C107.538 429.37 106.617 430.023 105.707 430.91C105.567 431.05 105.45 431.132 105.357 431.155C105.263 431.155 105.135 431.085 104.972 430.945L102.872 428.95ZM148.693 425.59C148.88 425.357 149.055 425.205 149.218 425.135C149.382 425.065 149.615 425.03 149.918 425.03H153.628C153.955 425.03 154.118 425.217 154.118 425.59V440.605C154.118 440.862 154.235 440.99 154.468 440.99H157.478C157.875 440.99 158.073 441.142 158.073 441.445V444C158.073 444.397 157.863 444.595 157.443 444.595H154.503C154.247 444.595 154.118 444.723 154.118 444.98V450.3C154.118 450.767 153.862 451 153.348 451H149.533C149.09 451 148.868 450.79 148.868 450.37L148.903 444.875C148.903 444.688 148.775 444.595 148.518 444.595H137.703C137.283 444.595 137.073 444.397 137.073 444V441.48C137.073 441.293 137.132 441.083 137.248 440.85C137.365 440.617 137.563 440.325 137.843 439.975L148.693 425.59ZM148.588 440.99C148.798 440.99 148.903 440.908 148.903 440.745V431.015C148.903 430.712 148.857 430.56 148.763 430.56C148.693 430.537 148.577 430.642 148.413 430.875L141.343 440.535C141.11 440.838 141.192 440.99 141.588 440.99H148.588ZM191.001 425.03C191.351 425.03 191.561 425.077 191.631 425.17C191.701 425.263 191.724 425.45 191.701 425.73L191.561 428.67C191.538 428.88 191.479 429.032 191.386 429.125C191.316 429.195 191.141 429.23 190.861 429.23H179.521C179.171 429.23 178.996 429.382 178.996 429.685L178.506 435.215C178.483 435.402 178.518 435.542 178.611 435.635C178.728 435.705 178.844 435.705 178.961 435.635C179.871 435.285 180.711 434.993 181.481 434.76C182.251 434.503 183.173 434.375 184.246 434.375C185.926 434.375 187.454 434.678 188.831 435.285C190.208 435.868 191.304 436.767 192.121 437.98C192.961 439.17 193.381 440.687 193.381 442.53C193.381 444.373 192.938 445.96 192.051 447.29C191.164 448.597 189.939 449.6 188.376 450.3C186.836 451 185.051 451.35 183.021 451.35C180.921 451.35 179.008 451 177.281 450.3C175.554 449.577 174.189 448.585 173.186 447.325C173.046 447.138 172.964 446.963 172.941 446.8C172.918 446.637 173.011 446.473 173.221 446.31L175.636 444.56C175.916 444.35 176.184 444.397 176.441 444.7C177.024 445.26 177.596 445.773 178.156 446.24C178.716 446.683 179.334 447.033 180.011 447.29C180.688 447.547 181.493 447.675 182.426 447.675C183.663 447.675 184.713 447.465 185.576 447.045C186.463 446.602 187.128 446.007 187.571 445.26C188.038 444.49 188.271 443.627 188.271 442.67C188.271 441.713 188.049 440.897 187.606 440.22C187.186 439.52 186.591 438.995 185.821 438.645C185.051 438.272 184.164 438.085 183.161 438.085C182.204 438.085 181.329 438.248 180.536 438.575C179.743 438.902 178.938 439.275 178.121 439.695C177.934 439.788 177.806 439.835 177.736 439.835C177.666 439.812 177.526 439.753 177.316 439.66L174.656 438.19C174.423 438.05 174.294 437.922 174.271 437.805C174.271 437.688 174.283 437.478 174.306 437.175L175.286 425.73C175.309 425.45 175.379 425.263 175.496 425.17C175.636 425.077 175.928 425.03 176.371 425.03H191.001ZM220.154 424.715C221.204 424.715 222.149 424.855 222.989 425.135C223.852 425.392 224.61 425.73 225.264 426.15C225.94 426.57 226.5 427.037 226.944 427.55C227.41 428.04 227.737 428.518 227.924 428.985C227.97 429.125 227.994 429.265 227.994 429.405C227.994 429.522 227.9 429.615 227.714 429.685L224.529 430.805C224.365 430.852 224.225 430.828 224.109 430.735C224.015 430.642 223.945 430.548 223.899 430.455C223.455 429.848 222.954 429.358 222.394 428.985C221.834 428.588 221.087 428.39 220.154 428.39C218.824 428.39 217.704 428.717 216.794 429.37C215.907 430.023 215.242 430.922 214.799 432.065C214.355 433.208 214.134 434.515 214.134 435.985C214.134 436.405 214.169 436.662 214.239 436.755C214.332 436.848 214.53 436.825 214.834 436.685C215.674 436.335 216.525 436.008 217.389 435.705C218.252 435.402 219.302 435.25 220.539 435.25C222.335 435.25 223.887 435.577 225.194 436.23C226.524 436.883 227.55 437.793 228.274 438.96C228.997 440.103 229.359 441.422 229.359 442.915C229.359 444.548 228.915 446.007 228.029 447.29C227.165 448.55 225.999 449.542 224.529 450.265C223.059 450.965 221.414 451.315 219.594 451.315C217.424 451.315 215.545 450.802 213.959 449.775C212.372 448.725 211.147 447.243 210.284 445.33C209.42 443.417 208.989 441.142 208.989 438.505C208.989 435.635 209.444 433.173 210.354 431.12C211.287 429.067 212.582 427.492 214.239 426.395C215.919 425.275 217.89 424.715 220.154 424.715ZM219.559 438.715C219.045 438.715 218.474 438.785 217.844 438.925C217.237 439.042 216.654 439.205 216.094 439.415C215.557 439.602 215.114 439.812 214.764 440.045C214.53 440.208 214.379 440.372 214.309 440.535C214.239 440.698 214.204 440.967 214.204 441.34C214.204 442.133 214.309 442.915 214.519 443.685C214.752 444.432 215.09 445.12 215.534 445.75C215.977 446.38 216.525 446.882 217.179 447.255C217.832 447.628 218.602 447.815 219.489 447.815C220.375 447.815 221.18 447.617 221.904 447.22C222.627 446.8 223.199 446.24 223.619 445.54C224.039 444.817 224.249 444 224.249 443.09C224.249 442.227 224.05 441.468 223.654 440.815C223.257 440.162 222.709 439.648 222.009 439.275C221.309 438.902 220.492 438.715 219.559 438.715ZM262.39 425.03C262.67 425.03 262.88 425.1 263.02 425.24C263.16 425.357 263.218 425.497 263.195 425.66L263.125 427.375C263.125 427.562 263.043 427.83 262.88 428.18C262.716 428.507 262.553 428.81 262.39 429.09C261.503 430.397 260.663 431.808 259.87 433.325C259.076 434.842 258.341 436.393 257.665 437.98C257.011 439.543 256.428 441.083 255.915 442.6C255.401 444.093 254.97 445.482 254.62 446.765C254.293 448.048 254.083 449.168 253.99 450.125C253.943 450.708 253.721 451 253.325 451H248.705C248.215 451 248.04 450.743 248.18 450.23C248.53 448.923 248.961 447.535 249.475 446.065C249.988 444.595 250.606 443.008 251.33 441.305C252.076 439.602 252.963 437.793 253.99 435.88C255.04 433.967 256.253 431.925 257.63 429.755C257.723 429.592 257.758 429.463 257.735 429.37C257.711 429.277 257.583 429.23 257.35 429.23H244.925C244.505 429.23 244.306 429.02 244.33 428.6L244.645 425.485C244.691 425.182 244.936 425.03 245.38 425.03H262.39ZM288.475 424.68C290.271 424.68 291.858 424.995 293.235 425.625C294.635 426.232 295.731 427.072 296.525 428.145C297.318 429.218 297.715 430.467 297.715 431.89C297.715 432.893 297.435 433.815 296.875 434.655C296.315 435.472 295.451 436.242 294.285 436.965C293.911 437.175 293.9 437.373 294.25 437.56C295.37 438.097 296.268 438.68 296.945 439.31C297.621 439.94 298.111 440.628 298.415 441.375C298.718 442.122 298.87 442.938 298.87 443.825C298.87 445.365 298.426 446.707 297.54 447.85C296.653 448.993 295.416 449.868 293.83 450.475C292.243 451.058 290.4 451.35 288.3 451.35C286.316 451.35 284.578 451.093 283.085 450.58C281.591 450.043 280.436 449.273 279.62 448.27C278.803 447.243 278.395 446.018 278.395 444.595C278.395 443.405 278.686 442.343 279.27 441.41C279.876 440.453 280.926 439.543 282.42 438.68C282.653 438.563 282.781 438.458 282.805 438.365C282.828 438.272 282.711 438.155 282.455 438.015C281.848 437.618 281.288 437.175 280.775 436.685C280.261 436.172 279.853 435.577 279.55 434.9C279.246 434.223 279.095 433.418 279.095 432.485C279.095 431.062 279.468 429.767 280.215 428.6C280.985 427.41 282.07 426.465 283.47 425.765C284.87 425.042 286.538 424.68 288.475 424.68ZM288.545 428.18C287.681 428.18 286.9 428.343 286.2 428.67C285.5 428.973 284.951 429.405 284.555 429.965C284.158 430.525 283.96 431.178 283.96 431.925C283.96 433.582 284.905 434.655 286.795 435.145L289.84 435.985C290.166 436.078 290.528 436.02 290.925 435.81C291.321 435.6 291.695 435.297 292.045 434.9C292.418 434.503 292.721 434.048 292.955 433.535C293.188 432.998 293.305 432.473 293.305 431.96C293.305 430.887 292.885 429.988 292.045 429.265C291.205 428.542 290.038 428.18 288.545 428.18ZM288.615 447.85C290.201 447.85 291.45 447.523 292.36 446.87C293.27 446.193 293.725 445.283 293.725 444.14C293.725 443.323 293.491 442.635 293.025 442.075C292.581 441.492 291.776 441.048 290.61 440.745L286.865 439.73C286.515 439.637 286.106 439.672 285.64 439.835C285.196 439.998 284.753 440.267 284.31 440.64C283.89 441.013 283.54 441.48 283.26 442.04C282.98 442.6 282.84 443.207 282.84 443.86C282.84 445.097 283.306 446.077 284.24 446.8C285.196 447.5 286.655 447.85 288.615 447.85ZM323.395 451.315C322.321 451.315 321.341 451.187 320.455 450.93C319.591 450.65 318.821 450.3 318.145 449.88C317.468 449.46 316.896 449.005 316.43 448.515C315.986 448.002 315.66 447.5 315.45 447.01C315.403 446.893 315.38 446.765 315.38 446.625C315.403 446.485 315.496 446.38 315.66 446.31L318.845 445.225C319.008 445.178 319.136 445.202 319.23 445.295C319.346 445.365 319.428 445.447 319.475 445.54C319.941 446.17 320.466 446.683 321.05 447.08C321.633 447.453 322.415 447.64 323.395 447.64C324.701 447.64 325.786 447.313 326.65 446.66C327.536 446.007 328.201 445.108 328.645 443.965C329.088 442.798 329.31 441.48 329.31 440.01C329.31 439.59 329.263 439.333 329.17 439.24C329.1 439.147 328.901 439.17 328.575 439.31C327.781 439.683 326.953 440.022 326.09 440.325C325.226 440.628 324.188 440.78 322.975 440.78C321.201 440.78 319.65 440.453 318.32 439.8C317.013 439.147 315.998 438.237 315.275 437.07C314.551 435.903 314.19 434.585 314.19 433.115C314.19 431.458 314.621 430 315.485 428.74C316.348 427.48 317.515 426.5 318.985 425.8C320.478 425.077 322.135 424.715 323.955 424.715C326.125 424.715 327.991 425.24 329.555 426.29C331.118 427.317 332.32 428.787 333.16 430.7C334.023 432.613 334.455 434.888 334.455 437.525C334.455 440.372 334 442.833 333.09 444.91C332.18 446.963 330.896 448.55 329.24 449.67C327.583 450.767 325.635 451.315 323.395 451.315ZM323.92 437.315C324.48 437.315 325.051 437.257 325.635 437.14C326.241 437 326.813 436.825 327.35 436.615C327.91 436.382 328.365 436.137 328.715 435.88C328.925 435.717 329.065 435.553 329.135 435.39C329.228 435.227 329.275 434.958 329.275 434.585C329.275 433.815 329.158 433.057 328.925 432.31C328.715 431.54 328.388 430.852 327.945 430.245C327.525 429.615 326.988 429.113 326.335 428.74C325.681 428.367 324.923 428.18 324.06 428.18C323.173 428.18 322.368 428.39 321.645 428.81C320.921 429.23 320.35 429.802 319.93 430.525C319.51 431.225 319.3 432.018 319.3 432.905C319.3 433.768 319.498 434.538 319.895 435.215C320.291 435.868 320.84 436.382 321.54 436.755C322.24 437.128 323.033 437.315 323.92 437.315Z" fill="#4F5C6F"/>
</svg>
