<svg width="330" height="63" viewBox="0 0 330 63" fill="none" xmlns="http://www.w3.org/2000/svg">
<path fill-rule="evenodd" clip-rule="evenodd" d="M12.9873 57.836C12.9846 57.834 12.9819 57.832 12.9791 57.83C12.9135 57.7822 12.848 57.7341 12.7828 57.6858C7.47069 53.7547 3.52832 48.2752 1.50991 42.0116C-0.534309 35.6678 -0.500069 28.8453 1.60773 22.522C3.71553 16.1987 7.78867 10.6992 13.2434 6.81164C18.6981 2.92409 25.2543 0.848118 31.9725 0.88125C38.6906 0.914382 45.2257 3.05492 50.6411 6.99607C56.0565 10.9372 60.0742 16.4767 62.1185 22.8204C64.1627 29.1642 64.1284 35.9867 62.0206 42.31C59.9395 48.5534 55.9423 53.9938 50.591 57.8723C50.5252 57.92 50.4592 57.9675 50.393 58.0147C50.3903 58.0166 50.3877 58.0185 50.385 58.0204L42.9567 47.7786C42.9579 47.7777 42.9592 47.7768 42.9605 47.7759C46.2314 45.4436 48.6739 42.1449 49.9381 38.3524C51.2027 34.5584 51.2233 30.4649 49.9968 26.6587C48.7702 22.8524 46.3596 19.5287 43.1103 17.164C39.8611 14.7994 35.94 13.515 31.9091 13.4952C27.8783 13.4753 23.9445 14.7209 20.6717 17.0534C17.3989 19.3859 14.955 22.6856 13.6903 26.4796C12.4256 30.2736 12.4051 34.3671 13.6316 38.1734C14.8578 41.9784 17.2672 45.3011 20.5148 47.6656C20.5159 47.6664 20.517 47.6672 20.5181 47.668L12.9873 57.836ZM20.1633 47.7207L12.9334 57.4825C7.66463 53.5829 3.7544 48.1477 1.75235 41.9348C-0.27552 35.6418 -0.241555 28.8739 1.84938 22.6012C3.94032 16.3285 7.98088 10.8729 13.392 7.01647C18.803 3.16003 25.3068 1.10066 31.9712 1.13353C38.6356 1.1664 45.1184 3.28981 50.4905 7.19943C55.8626 11.1091 59.8482 16.6042 61.876 22.8972C63.9039 29.1903 63.8699 35.9581 61.779 42.2308C59.7147 48.4237 55.7501 53.82 50.4425 57.6675L43.3109 47.8349C46.5241 45.4807 48.9248 42.1962 50.1797 38.4316C51.4613 34.587 51.4821 30.4389 50.2392 26.5819C48.9963 22.7249 46.5535 19.3569 43.2609 16.9607C39.9684 14.5645 35.995 13.263 31.9104 13.2429C27.8258 13.2227 23.8396 14.4849 20.5231 16.8486C17.2067 19.2122 14.7302 22.5559 13.4487 26.4005C12.1671 30.245 12.1463 34.3931 13.3892 38.2501C14.6062 42.027 16.9739 45.3349 20.1633 47.7207Z" fill="#393E46"/>
<path d="M20.1633 47.7207L12.9334 57.4825C7.66463 53.5829 3.7544 48.1477 1.75235 41.9348C-0.27552 35.6418 -0.241555 28.8739 1.84938 22.6012C3.94032 16.3285 7.98088 10.8729 13.392 7.01647C18.803 3.16003 25.3068 1.10066 31.9712 1.13353C38.6356 1.1664 45.1184 3.28981 50.4905 7.19943C55.8626 11.1091 59.8482 16.6042 61.876 22.8972C63.9039 29.1903 63.8699 35.9581 61.779 42.2308C59.7147 48.4237 55.7501 53.82 50.4425 57.6675L43.3109 47.8349C46.5241 45.4807 48.9248 42.1962 50.1797 38.4316C51.4613 34.587 51.4821 30.4389 50.2392 26.5819C48.9963 22.7249 46.5535 19.3569 43.2609 16.9607C39.9684 14.5645 35.995 13.263 31.9104 13.2429C27.8258 13.2227 23.8396 14.4849 20.5231 16.8486C17.2067 19.2122 14.7302 22.5559 13.4487 26.4005C12.1671 30.245 12.1463 34.3931 13.3892 38.2501C14.6062 42.027 16.9739 45.3349 20.1633 47.7207Z" fill="#393E46"/>
<path fill-rule="evenodd" clip-rule="evenodd" d="M40.2524 60.1962C40.3131 60.3341 40.3555 60.461 40.3555 60.5593C40.3555 60.6324 40.3231 60.6948 40.2802 60.7444C40.238 60.7933 40.181 60.8355 40.1168 60.8729C39.9884 60.9476 39.8081 61.0159 39.5898 61.0793C39.1513 61.2067 38.5304 61.3223 37.7912 61.4226C36.3111 61.6234 34.3379 61.7653 32.3583 61.813C30.3791 61.8606 28.388 61.8143 26.873 61.6371C26.1165 61.5486 25.4718 61.4267 25.005 61.2647C24.7719 61.1838 24.5761 61.0905 24.432 60.9814C24.2879 60.8723 24.1841 60.7383 24.1618 60.576C24.1426 60.4359 24.1624 60.2707 24.2082 60.0901C24.2544 59.908 24.3293 59.7022 24.4272 59.4779C24.6231 59.0293 24.9157 58.4966 25.2716 57.9148C25.9836 56.7508 26.9559 55.3784 27.9344 54.0675C28.9133 52.7561 29.9001 51.5039 30.6421 50.5797C31.0131 50.1176 31.3229 49.7374 31.5401 49.4727C31.6487 49.3403 31.7341 49.2368 31.7923 49.1664C31.8215 49.1311 31.8438 49.1042 31.8589 49.086L31.8818 49.0586C31.8818 49.0585 31.8819 49.0584 31.9807 49.1377C32.0811 49.0604 32.0812 49.0604 32.0812 49.0605L32.1739 49.1765C32.2343 49.2522 32.323 49.3635 32.4358 49.5054C32.6614 49.7893 32.9837 50.1961 33.3704 50.6878C34.1438 51.6711 35.1752 52.994 36.2067 54.3522C37.2379 55.7101 38.2702 57.1045 39.045 58.2304C39.4323 58.7931 39.7565 59.2907 39.9844 59.6839C40.0983 59.8804 40.1894 60.0531 40.2524 60.1962ZM31.9807 49.1377L32.0812 49.0605L31.9827 48.9375L31.8818 49.0586L31.9807 49.1377ZM31.9789 49.3383C31.9213 49.4079 31.8403 49.5061 31.7391 49.6295C31.5224 49.8937 31.2131 50.2732 30.8427 50.7346C30.1019 51.6573 29.117 52.9071 28.1405 54.2153C27.1636 55.5241 26.1966 56.8893 25.4906 58.0436C25.1374 58.621 24.8513 59.1427 24.6619 59.5764C24.5672 59.7933 24.4978 59.9857 24.456 60.1505C24.4138 60.3167 24.4018 60.447 24.4149 60.5426C24.425 60.6159 24.474 60.6969 24.5881 60.7833C24.7021 60.8696 24.8698 60.9522 25.0902 61.0287C25.5305 61.1815 26.1533 61.3008 26.9032 61.3885C28.4011 61.5637 30.3787 61.6102 32.352 61.5627C34.3249 61.5152 36.2881 61.3738 37.7562 61.1746C38.4911 61.0749 39.0972 60.9614 39.5173 60.8393C39.7283 60.778 39.885 60.7166 39.9865 60.6576C40.0372 60.6281 40.0683 60.6025 40.0854 60.5826C40.0976 60.5686 40.0998 60.561 40.1001 60.5591C40.1001 60.5169 40.078 60.4316 40.018 60.2954C39.9602 60.1641 39.8741 60.0003 39.7624 59.8076C39.5393 59.4226 39.2193 58.9312 38.8334 58.3705C38.0619 57.2494 37.0324 55.8587 36.0019 54.5017C34.9716 53.145 33.9411 51.8233 33.1682 50.8407C32.7818 50.3494 32.4598 49.9429 32.2344 49.6593C32.1254 49.5221 32.039 49.4137 31.9789 49.3383ZM40.1002 60.5587C40.1002 60.5587 40.1002 60.5588 40.1001 60.5591Z" fill="#393E46"/>
<path d="M31.9789 49.3383C31.9213 49.4079 31.8403 49.5061 31.7391 49.6295C31.5224 49.8937 31.2131 50.2732 30.8427 50.7346C30.1019 51.6573 29.117 52.9071 28.1405 54.2153C27.1636 55.5241 26.1966 56.8893 25.4906 58.0436C25.1374 58.621 24.8513 59.1427 24.6619 59.5764C24.5672 59.7933 24.4978 59.9857 24.456 60.1505C24.4138 60.3167 24.4018 60.447 24.4149 60.5426C24.425 60.6159 24.474 60.6969 24.5881 60.7833C24.7021 60.8696 24.8698 60.9522 25.0902 61.0287C25.5305 61.1815 26.1533 61.3008 26.9032 61.3885C28.4011 61.5637 30.3787 61.6102 32.352 61.5627C34.3249 61.5152 36.2881 61.3738 37.7562 61.1746C38.4911 61.0749 39.0972 60.9614 39.5173 60.8393C39.7283 60.778 39.885 60.7166 39.9865 60.6576C40.0372 60.6281 40.0683 60.6025 40.0854 60.5826C40.0976 60.5686 40.0998 60.561 40.1001 60.5591C40.1001 60.5169 40.078 60.4316 40.018 60.2954C39.9602 60.1641 39.8741 60.0003 39.7624 59.8076C39.5393 59.4226 39.2193 58.9312 38.8334 58.3705C38.0619 57.2494 37.0324 55.8587 36.0019 54.5017C34.9716 53.145 33.9411 51.8233 33.1682 50.8407C32.7818 50.3494 32.4598 49.9429 32.2344 49.6593C32.1254 49.5221 32.039 49.4137 31.9789 49.3383Z" fill="#393E46"/>
<path fill-rule="evenodd" clip-rule="evenodd" d="M24.9986 32.2357C24.9986 35.9807 28.0505 39.0167 31.8153 39.0167C35.58 39.0167 38.6319 35.9807 38.6319 32.2357C38.6319 28.4906 35.58 25.4547 31.8153 25.4547C28.0505 25.4547 24.9986 28.4906 24.9986 32.2357ZM24.7458 32.2357C24.7458 36.1197 27.9109 39.2682 31.8153 39.2682C35.7196 39.2682 38.8848 36.1197 38.8848 32.2357C38.8848 28.3517 35.7196 25.2031 31.8153 25.2031C27.9109 25.2031 24.7458 28.3517 24.7458 32.2357Z" fill="#0193CB"/>
<path d="M31.8153 39.0167C28.0505 39.0167 24.9986 35.9807 24.9986 32.2357C24.9986 28.4906 28.0505 25.4547 31.8153 25.4547C35.58 25.4547 38.6319 28.4906 38.6319 32.2357C38.6319 35.9807 35.58 39.0167 31.8153 39.0167Z" fill="#0193CB"/>
<path d="M100.353 4.91571V36.1917H95.9179V22.8002H78.1574V36.1917H73.7227V4.91571H78.1574V18.3291H95.9179V4.91571H100.353Z" fill="#0193CB"/>
<path fill-rule="evenodd" clip-rule="evenodd" d="M211.026 16.0826C211.026 20.4447 209.18 22.931 205.488 23.5417L211.329 36.1917H206.418L200.664 23.6944H190.951V36.1917H186.516V4.91571H203.498C208.517 4.91571 211.026 7.45297 211.026 12.5275V16.0826ZM203.26 19.2233H190.951V9.38682H203.26C204.443 9.38682 205.294 9.64855 205.813 10.172C206.332 10.6954 206.591 11.5533 206.591 12.7456V15.8645C206.591 17.0568 206.332 17.9147 205.813 18.4381C205.294 18.9615 204.443 19.2233 203.26 19.2233Z" fill="#0193CB"/>
<path d="M107.903 12.9637H112.143V31.8951H124.019V12.9637H128.281V36.1917H124.019V32.2658C123.976 32.8038 123.831 33.3127 123.586 33.7926C123.341 34.2724 123.024 34.6941 122.634 35.0576C122.26 35.4065 121.827 35.6828 121.337 35.8864C120.846 36.0899 120.327 36.1917 119.779 36.1917H112.143C111.566 36.1917 111.018 36.0826 110.498 35.8645C109.979 35.6319 109.525 35.3266 109.136 34.9485C108.761 34.5559 108.458 34.0979 108.227 33.5745C108.011 33.051 107.903 32.4912 107.903 31.8951V12.9637Z" fill="#393E46"/>
<path d="M155.754 36.1917H151.493V17.2603H139.616V36.1917H135.376V12.9637H139.616V17.0641C139.645 16.497 139.775 15.9663 140.006 15.4719C140.236 14.963 140.539 14.5268 140.914 14.1633C141.304 13.7852 141.751 13.4944 142.255 13.2909C142.76 13.0728 143.301 12.9637 143.878 12.9637H151.493C152.084 12.9637 152.639 13.08 153.158 13.3127C153.678 13.5308 154.125 13.8361 154.5 14.2287C154.889 14.6068 155.192 15.0575 155.408 15.581C155.639 16.1044 155.754 16.6642 155.754 17.2603V36.1917Z" fill="#393E46"/>
<path d="M161.509 12.9637H167.133V5.80993H171.395V12.9637H178.966V17.2603H171.395V31.8951H178.966V36.1917H171.395C170.818 36.1917 170.27 36.0826 169.751 35.8645C169.232 35.6319 168.777 35.3266 168.388 34.9485C167.999 34.5559 167.688 34.0979 167.458 33.5745C167.241 33.051 167.133 32.4912 167.133 31.8951V17.2603H161.509V12.9637Z" fill="#393E46"/>
<path fill-rule="evenodd" clip-rule="evenodd" d="M237.505 26.7696H222.254V31.8951H237.505V36.1917H222.254C221.677 36.1917 221.129 36.0826 220.61 35.8645C220.09 35.6319 219.636 35.3266 219.247 34.9485C218.872 34.5559 218.569 34.0979 218.338 33.5745C218.122 33.051 218.014 32.4912 218.014 31.8951V17.2603C218.014 16.6642 218.122 16.1044 218.338 15.581C218.569 15.0575 218.872 14.6068 219.247 14.2287C219.636 13.8361 220.09 13.5308 220.61 13.3127C221.129 13.08 221.677 12.9637 222.254 12.9637H233.243C233.834 12.9637 234.39 13.08 234.909 13.3127C235.428 13.5308 235.875 13.8361 236.25 14.2287C236.639 14.6068 236.942 15.0575 237.159 15.581C237.389 16.1044 237.505 16.6642 237.505 17.2603V26.7696ZM222.254 22.473V17.2603H233.243V22.473H222.254Z" fill="#393E46"/>
<path d="M258.532 31.8951V26.5079H248.429C247.838 26.5079 247.283 26.3989 246.764 26.1808C246.244 25.9481 245.79 25.6428 245.401 25.2647C245.026 24.8721 244.723 24.4141 244.492 23.8907C244.276 23.3672 244.168 22.8074 244.168 22.2113V17.2603C244.168 16.6642 244.276 16.1044 244.492 15.581C244.723 15.0575 245.026 14.6068 245.401 14.2287C245.79 13.8361 246.244 13.5308 246.764 13.3127C247.283 13.08 247.838 12.9637 248.429 12.9637H261.907V17.2603H248.429V22.2113H258.532C259.123 22.2113 259.671 22.3276 260.176 22.5603C260.695 22.7784 261.149 23.0837 261.539 23.4763C261.928 23.8543 262.231 24.3051 262.447 24.8285C262.678 25.352 262.794 25.9118 262.794 26.5079V31.8951C262.794 32.4912 262.678 33.051 262.447 33.5745C262.231 34.0979 261.928 34.5559 261.539 34.9485C261.149 35.3266 260.695 35.6319 260.176 35.8645C259.671 36.0826 259.123 36.1917 258.532 36.1917H244.168V31.8951H258.532Z" fill="#393E46"/>
<path d="M269.456 12.9637H273.697V31.8951H285.573V12.9637H289.835V36.1917H285.573V32.2658C285.53 32.8038 285.385 33.3127 285.14 33.7926C284.895 34.2724 284.578 34.6941 284.188 35.0576C283.813 35.4065 283.381 35.6828 282.89 35.8864C282.4 36.0899 281.881 36.1917 281.333 36.1917H273.697C273.12 36.1917 272.572 36.0826 272.052 35.8645C271.533 35.6319 271.079 35.3266 270.69 34.9485C270.315 34.5559 270.012 34.0979 269.781 33.5745C269.565 33.051 269.456 32.4912 269.456 31.8951V12.9637Z" fill="#393E46"/>
<path d="M301.17 4.02148V36.1917H296.93V4.02148H301.17Z" fill="#393E46"/>
<path d="M306.925 12.9637H312.549V5.80993H316.811V12.9637H324.382V17.2603H316.811V31.8951H324.382V36.1917H316.811C316.234 36.1917 315.686 36.0826 315.167 35.8645C314.647 35.6319 314.193 35.3266 313.804 34.9485C313.414 34.5559 313.104 34.0979 312.874 33.5745C312.657 33.051 312.549 32.4912 312.549 31.8951V17.2603H306.925V12.9637Z" fill="#393E46"/>
<path d="M182.289 49.8259L181.366 50.7797C180.6 50.0344 179.851 49.6618 179.12 49.6618C178.655 49.6618 178.255 49.8157 177.92 50.1233C177.592 50.431 177.428 50.7899 177.428 51.2002C177.428 51.5625 177.564 51.9078 177.838 52.236C178.111 52.571 178.686 52.9641 179.561 53.4153C180.627 53.9691 181.352 54.5024 181.735 55.0152C182.111 55.5348 182.299 56.1194 182.299 56.7689C182.299 57.6851 181.978 58.4611 181.335 59.0969C180.692 59.7327 179.889 60.0507 178.925 60.0507C178.282 60.0507 177.667 59.9105 177.079 59.6302C176.498 59.3499 176.016 58.9636 175.633 58.4713L176.535 57.4458C177.267 58.273 178.043 58.6867 178.863 58.6867C179.438 58.6867 179.926 58.5021 180.33 58.1329C180.733 57.7637 180.935 57.3295 180.935 56.8304C180.935 56.4202 180.802 56.0544 180.535 55.7331C180.268 55.4186 179.667 55.022 178.73 54.5434C177.725 54.0238 177.041 53.5111 176.679 53.0051C176.317 52.4992 176.135 51.9215 176.135 51.2719C176.135 50.4242 176.422 49.7199 176.997 49.1593C177.578 48.5987 178.309 48.3184 179.191 48.3184C180.217 48.3184 181.249 48.8209 182.289 49.8259Z" fill="#0193CB"/>
<path d="M174.753 49.8259L173.83 50.7797C173.065 50.0344 172.316 49.6618 171.585 49.6618C171.12 49.6618 170.72 49.8157 170.385 50.1233C170.056 50.431 169.892 50.7899 169.892 51.2002C169.892 51.5625 170.029 51.9078 170.303 52.236C170.576 52.571 171.15 52.9641 172.026 53.4153C173.092 53.9691 173.817 54.5024 174.2 55.0152C174.576 55.5348 174.764 56.1194 174.764 56.7689C174.764 57.6851 174.442 58.4611 173.8 59.0969C173.157 59.7327 172.354 60.0507 171.39 60.0507C170.747 60.0507 170.132 59.9105 169.544 59.6302C168.963 59.3499 168.481 58.9636 168.098 58.4713L169 57.4458C169.732 58.273 170.508 58.6867 171.328 58.6867C171.902 58.6867 172.391 58.5021 172.795 58.1329C173.198 57.7637 173.4 57.3295 173.4 56.8304C173.4 56.4202 173.266 56.0544 173 55.7331C172.733 55.4186 172.131 55.022 171.195 54.5434C170.19 54.0238 169.506 53.5111 169.144 53.0051C168.781 52.4992 168.6 51.9215 168.6 51.2719C168.6 50.4242 168.887 49.7199 169.462 49.1593C170.043 48.5987 170.774 48.3184 171.656 48.3184C172.682 48.3184 173.714 48.8209 174.753 49.8259Z" fill="#0193CB"/>
<path d="M165.509 56.0613L166.72 56.6971C166.323 57.4765 165.865 58.1055 165.345 58.5841C164.826 59.0627 164.241 59.4285 163.592 59.6815C162.942 59.9276 162.207 60.0507 161.387 60.0507C159.568 60.0507 158.146 59.4558 157.12 58.2662C156.095 57.0697 155.582 55.7194 155.582 54.2153C155.582 52.8 156.016 51.5386 156.884 50.431C157.985 49.0226 159.459 48.3184 161.305 48.3184C163.205 48.3184 164.723 49.0397 165.858 50.4823C166.665 51.501 167.075 52.7727 167.089 54.2973H157.059C157.086 55.5963 157.5 56.6629 158.3 57.497C159.1 58.3243 160.088 58.738 161.264 58.738C161.831 58.738 162.381 58.6388 162.915 58.4405C163.455 58.2423 163.913 57.979 164.289 57.6509C164.665 57.3227 165.072 56.7928 165.509 56.0613ZM165.509 53.0564C165.318 52.2907 165.038 51.6787 164.668 51.2207C164.306 50.7626 163.824 50.3934 163.222 50.1131C162.621 49.8328 161.988 49.6926 161.325 49.6926C160.231 49.6926 159.291 50.0447 158.505 50.7489C157.931 51.2617 157.496 52.0309 157.202 53.0564H165.509Z" fill="#0193CB"/>
<path d="M143.926 48.6055H145.362V50.6053C145.936 49.8396 146.572 49.2687 147.269 48.8927C147.966 48.5098 148.725 48.3184 149.546 48.3184C150.38 48.3184 151.118 48.5303 151.761 48.9542C152.411 49.3781 152.889 49.949 153.197 50.6669C153.504 51.3848 153.658 52.5026 153.658 54.0204V59.7635H152.233V54.4409C152.233 53.1555 152.178 52.2975 152.069 51.8668C151.898 51.1284 151.576 50.5746 151.105 50.2054C150.633 49.8293 150.018 49.6413 149.259 49.6413C148.39 49.6413 147.611 49.9285 146.92 50.5028C146.237 51.0771 145.785 51.7881 145.567 52.6359C145.43 53.1897 145.362 54.2016 145.362 55.6716V59.7635H143.926V48.6055Z" fill="#0193CB"/>
<path d="M140.853 44.0117C141.181 44.0117 141.462 44.1279 141.694 44.3604C141.927 44.5929 142.043 44.8732 142.043 45.2014C142.043 45.5227 141.927 45.7996 141.694 46.0321C141.462 46.2645 141.181 46.3807 140.853 46.3807C140.532 46.3807 140.255 46.2645 140.023 46.0321C139.79 45.7996 139.674 45.5227 139.674 45.2014C139.674 44.8732 139.79 44.5929 140.023 44.3604C140.255 44.1279 140.532 44.0117 140.853 44.0117ZM140.135 48.6062H141.581V59.7642H140.135V48.6062Z" fill="#0193CB"/>
<path d="M138.427 49.8259L137.504 50.7797C136.739 50.0344 135.99 49.6618 135.258 49.6618C134.793 49.6618 134.393 49.8157 134.058 50.1233C133.73 50.431 133.566 50.7899 133.566 51.2002C133.566 51.5625 133.703 51.9078 133.976 52.236C134.25 52.571 134.824 52.9641 135.699 53.4153C136.766 53.9691 137.491 54.5024 137.874 55.0152C138.25 55.5348 138.438 56.1194 138.438 56.7689C138.438 57.6851 138.116 58.4611 137.474 59.0969C136.831 59.7327 136.028 60.0507 135.064 60.0507C134.421 60.0507 133.805 59.9105 133.218 59.6302C132.636 59.3499 132.154 58.9636 131.771 58.4713L132.674 57.4458C133.406 58.273 134.182 58.6867 135.002 58.6867C135.576 58.6867 136.065 58.5021 136.469 58.1329C136.872 57.7637 137.074 57.3295 137.074 56.8304C137.074 56.4202 136.94 56.0544 136.674 55.7331C136.407 55.4186 135.805 55.022 134.869 54.5434C133.864 54.0238 133.18 53.5111 132.818 53.0051C132.455 52.4992 132.274 51.9215 132.274 51.2719C132.274 50.4242 132.561 49.7199 133.135 49.1593C133.717 48.5987 134.448 48.3184 135.33 48.3184C136.356 48.3184 137.388 48.8209 138.427 49.8259Z" fill="#0193CB"/>
<path d="M120.484 48.6055H121.93V53.8153C121.93 55.0869 121.999 55.9621 122.136 56.4407C122.341 57.1244 122.73 57.6645 123.305 58.061C123.886 58.4576 124.576 58.6559 125.376 58.6559C126.176 58.6559 126.853 58.4644 127.407 58.0816C127.967 57.6918 128.354 57.1825 128.566 56.5535C128.709 56.1228 128.781 55.21 128.781 53.8153V48.6055H130.248V54.0819C130.248 55.6202 130.066 56.7791 129.704 57.5585C129.349 58.3379 128.808 58.9499 128.084 59.3943C127.366 59.8318 126.463 60.0506 125.376 60.0506C124.289 60.0506 123.38 59.8318 122.648 59.3943C121.924 58.9499 121.38 58.3345 121.018 57.5483C120.662 56.7552 120.484 55.5655 120.484 53.9794V48.6055Z" fill="#0193CB"/>
<path d="M107.055 59.7641V44.2988H108.48V50.5239C109.082 49.7855 109.755 49.2351 110.501 48.8728C111.246 48.5036 112.063 48.319 112.952 48.319C114.531 48.319 115.878 48.8933 116.992 50.0419C118.114 51.1837 118.674 52.5716 118.674 54.2056C118.674 55.8192 118.11 57.1968 116.982 58.3386C115.854 59.4804 114.497 60.0513 112.911 60.0513C112.001 60.0513 111.177 59.8564 110.439 59.4667C109.701 59.077 109.048 58.4924 108.48 57.713V59.7641H107.055ZM112.798 58.6668C113.598 58.6668 114.336 58.4719 115.013 58.0822C115.69 57.6857 116.227 57.1319 116.623 56.4208C117.026 55.7098 117.228 54.9577 117.228 54.1646C117.228 53.3715 117.026 52.616 116.623 51.8982C116.22 51.1803 115.676 50.6231 114.992 50.2265C114.316 49.8231 113.591 49.6214 112.818 49.6214C112.032 49.6214 111.283 49.8231 110.572 50.2265C109.868 50.6231 109.325 51.1598 108.942 51.8366C108.566 52.5135 108.378 53.2758 108.378 54.1236C108.378 55.4158 108.802 56.496 109.649 57.3643C110.504 58.2326 111.553 58.6668 112.798 58.6668Z" fill="#0193CB"/>
<path d="M95.5371 48.6055H97.0036V50.2361C97.4412 49.5935 97.9027 49.1149 98.3881 48.8004C98.8736 48.479 99.3795 48.3184 99.906 48.3184C100.302 48.3184 100.726 48.4448 101.178 48.6978L100.429 49.908C100.128 49.7781 99.8752 49.7131 99.6701 49.7131C99.1915 49.7131 98.73 49.9114 98.2856 50.3079C97.8412 50.6976 97.5027 51.3061 97.2703 52.1334C97.0925 52.7692 97.0036 54.0546 97.0036 55.9895V59.7635H95.5371V48.6055Z" fill="#393E46"/>
<path d="M88.2309 48.3184C89.947 48.3184 91.3691 48.9405 92.4972 50.1849C93.5227 51.3198 94.0355 52.6633 94.0355 54.2153C94.0355 55.7741 93.492 57.1381 92.4049 58.3072C91.3246 59.4695 89.9333 60.0507 88.2309 60.0507C86.5216 60.0507 85.1235 59.4695 84.0364 58.3072C82.9561 57.1381 82.416 55.7741 82.416 54.2153C82.416 52.6701 82.9288 51.3301 83.9543 50.1951C85.0824 48.9439 86.508 48.3184 88.2309 48.3184ZM88.2309 49.7234C87.0412 49.7234 86.0191 50.1643 85.1645 51.0463C84.3099 51.9283 83.8826 52.9949 83.8826 54.246C83.8826 55.0528 84.0774 55.8049 84.4671 56.5023C84.8568 57.1996 85.3833 57.7397 86.0465 58.1226C86.7097 58.4987 87.4378 58.6867 88.2309 58.6867C89.024 58.6867 89.7521 58.4987 90.4153 58.1226C91.0785 57.7397 91.6049 57.1996 91.9947 56.5023C92.3844 55.8049 92.5792 55.0528 92.5792 54.246C92.5792 52.9949 92.1485 51.9283 91.287 51.0463C90.4324 50.1643 89.4137 49.7234 88.2309 49.7234Z" fill="#393E46"/>
<path d="M73.6191 44.6797H81.1774V46.1667H75.1164V50.8843H81.1774V52.3713H75.1164V59.7655H73.6191V44.6797Z" fill="#393E46"/>
</svg>
