<svg width="52" height="52" viewBox="0 0 52 52" fill="none" xmlns="http://www.w3.org/2000/svg">
<path d="M44.9299 33.9087L34.8011 29.3701L34.7732 29.3572C34.2474 29.1323 33.6738 29.042 33.1043 29.0946C32.5348 29.1471 31.9874 29.3408 31.5116 29.6582C31.4556 29.6952 31.4018 29.7354 31.3504 29.7786L26.1172 34.2398C22.8019 32.6295 19.3791 29.2325 17.7687 25.9601L22.2364 20.6474C22.2794 20.5937 22.3203 20.5399 22.359 20.4819C22.6695 20.0074 22.8579 19.4634 22.9074 18.8985C22.957 18.3336 22.866 17.7652 22.6428 17.2439V17.2181L18.0912 7.07218C17.7961 6.3912 17.2887 5.82392 16.6447 5.45502C16.0006 5.08613 15.2546 4.93541 14.5179 5.02537C11.6046 5.40873 8.93039 6.83948 6.99485 9.05041C5.0593 11.2613 3.99475 14.1012 4.00002 17.0397C4.00002 34.1108 17.8891 48 34.9602 48C37.8987 48.0052 40.7386 46.9407 42.9495 45.0051C45.1604 43.0696 46.5912 40.3954 46.9745 37.4821C47.0646 36.7456 46.9142 35.9998 46.5458 35.3558C46.1773 34.7118 45.6104 34.2042 44.9299 33.9087ZM34.9602 44.5599C27.6639 44.552 20.6686 41.65 15.5093 36.4906C10.35 31.3313 7.44801 24.3361 7.44004 17.0397C7.43196 14.9402 8.18836 12.9095 9.56799 11.3269C10.9476 9.74427 12.8562 8.71795 14.9371 8.4396C14.9363 8.44818 14.9363 8.45682 14.9371 8.4654L19.4522 18.5705L15.0081 23.8896C14.963 23.9416 14.922 23.9969 14.8855 24.0552C14.562 24.5517 14.3722 25.1233 14.3345 25.7147C14.2969 26.3061 14.4126 26.8972 14.6705 27.4307C16.6185 31.4147 20.6325 35.3987 24.6595 37.3445C25.1969 37.6 25.7915 37.7117 26.385 37.6688C26.9785 37.6258 27.5508 37.4296 28.0458 37.0994C28.101 37.0622 28.1541 37.022 28.2049 36.979L33.4316 32.5198L43.5366 37.0456H43.5603C43.2853 39.1296 42.2606 41.0419 40.6777 42.425C39.0948 43.8081 37.0622 44.567 34.9602 44.5599Z" fill="black"/>
</svg>
