<svg width="59" height="59" viewBox="0 0 59 59" fill="none" xmlns="http://www.w3.org/2000/svg">
<path d="M54.292 6.38459C54.0697 6.19254 53.7991 6.06485 53.5095 6.0153C53.2199 5.96575 52.9223 5.99622 52.6488 6.10342L5.94196 24.3819C5.37385 24.6042 4.89321 25.0048 4.57219 25.5235C4.25118 26.0423 4.10713 26.6512 4.16169 27.2588C4.21624 27.8664 4.46644 28.4399 4.87472 28.8932C5.28301 29.3464 5.82733 29.655 6.42594 29.7726L18.8989 32.2224V46.0944C18.8992 46.7375 19.0916 47.3658 19.4515 47.8988C19.8114 48.4317 20.3224 48.845 20.9188 49.0855C21.5152 49.326 22.1699 49.3828 22.7989 49.2486C23.4278 49.1143 24.0023 48.7952 24.4486 48.3322L30.5883 41.9644L40.1712 50.3649C40.7562 50.8826 41.5103 51.1687 42.2915 51.1693C42.6326 51.1685 42.9716 51.1148 43.2963 51.0103C43.8287 50.8418 44.3076 50.5367 44.6853 50.1255C45.063 49.7142 45.3263 49.2111 45.4489 48.6664L54.8106 7.96791C54.8764 7.68179 54.8629 7.38314 54.7715 7.10413C54.6801 6.82512 54.5143 6.57634 54.292 6.38459ZM6.92606 27.0507C6.91723 27.0269 6.91723 27.0008 6.92606 26.977C6.93647 26.9689 6.94815 26.9627 6.96063 26.9585L43.7688 12.5496L19.9614 29.6043L6.96063 27.0599L6.92606 27.0507ZM22.4573 46.4101C22.3938 46.476 22.3121 46.5215 22.2226 46.5408C22.1332 46.5601 22.04 46.5523 21.9549 46.5185C21.8699 46.4846 21.7968 46.4262 21.7451 46.3506C21.6934 46.2751 21.6654 46.1859 21.6645 46.0944V34.1353L28.5072 40.1275L22.4573 46.4101ZM42.7547 48.0418C42.7377 48.1197 42.7001 48.1917 42.6458 48.25C42.5914 48.3084 42.5224 48.3511 42.4459 48.3737C42.3679 48.4011 42.2839 48.407 42.2028 48.3908C42.1217 48.3746 42.0465 48.3368 41.985 48.2815L22.5034 31.1922L51.395 10.4869L42.7547 48.0418Z" fill="black"/>
</svg>
