<svg width="200" height="45" viewBox="0 0 200 45" fill="none" xmlns="http://www.w3.org/2000/svg">
<path d="M0.921875 1.06592H5.87695L16.0176 17.6021L26.2446 1.06592H31.1421L18.5239 21.6064L31.9775 43.4434H27.0225L16.0176 25.6685L4.95508 43.4434H0L13.5112 21.6064L0.921875 1.06592Z" fill="#17A7E8"/>
<path d="M59.1406 1.06592H67.4951C70.8561 1.06592 73.4393 1.46924 75.2446 2.27588C77.0499 3.06331 78.4712 4.28288 79.5083 5.93457C80.5646 7.58626 81.0927 9.42041 81.0927 11.437C81.0927 13.3192 80.6318 15.0381 79.7099 16.5938C78.788 18.1302 77.434 19.3786 75.6479 20.3389C77.8566 21.0879 79.5563 21.9714 80.747 22.9893C81.9378 23.988 82.8597 25.2075 83.5127 26.6479C84.1849 28.0692 84.521 29.6152 84.521 31.2861C84.521 34.6855 83.2726 37.5664 80.7758 39.9287C78.2983 42.2718 74.9661 43.4434 70.7793 43.4434H59.1406V1.06592ZM63.289 5.21436V18.7832H65.7089C68.6474 18.7832 70.8081 18.5143 72.1909 17.9766C73.5737 17.4196 74.6684 16.5553 75.4751 15.3838C76.2817 14.193 76.685 12.8774 76.685 11.437C76.685 9.49723 76.0032 7.97998 74.6396 6.88525C73.2952 5.77132 71.1442 5.21436 68.1865 5.21436H63.289ZM63.289 23.0469V39.2949H68.5322C71.6243 39.2949 73.8906 38.9972 75.331 38.4019C76.7714 37.7873 77.9238 36.8366 78.788 35.5498C79.6715 34.263 80.1132 32.8706 80.1132 31.3726C80.1132 29.4904 79.4987 27.8483 78.2695 26.4463C77.0403 25.0443 75.3502 24.084 73.1992 23.5654C71.7588 23.2197 69.2524 23.0469 65.6801 23.0469H63.289Z" fill="#17A7E8"/>
<path d="M125.24 12.0996V43.4434H121.265V38.0562C119.574 40.1112 117.673 41.6572 115.56 42.6943C113.467 43.7314 111.172 44.25 108.675 44.25C104.239 44.25 100.446 42.6463 97.2958 39.439C94.1653 36.2124 92.6 32.2944 92.6 27.6851C92.6 23.1717 94.1845 19.3114 97.3535 16.104C100.522 12.8966 104.335 11.293 108.79 11.293C111.364 11.293 113.688 11.8403 115.762 12.9351C117.856 14.0298 119.69 15.6719 121.265 17.8613V12.0996H125.24ZM109.107 15.1821C106.86 15.1821 104.786 15.7391 102.885 16.853C100.983 17.9478 99.4661 19.4938 98.3329 21.4912C97.219 23.4886 96.662 25.6012 96.662 27.8291C96.662 30.0378 97.2286 32.1504 98.3618 34.167C99.4949 36.1836 101.012 37.7585 102.914 38.8916C104.834 40.0055 106.889 40.5625 109.079 40.5625C111.287 40.5625 113.381 40.0055 115.359 38.8916C117.337 37.7777 118.854 36.27 119.911 34.3687C120.986 32.4673 121.524 30.3258 121.524 27.9443C121.524 24.3145 120.324 21.2799 117.923 18.8408C115.541 16.4017 112.603 15.1821 109.107 15.1821Z" fill="#17A7E8"/>
<path d="M136.114 12.0996H140.147V17.7173C141.76 15.5662 143.546 13.9626 145.505 12.9062C147.464 11.8307 149.596 11.293 151.901 11.293C154.244 11.293 156.318 11.8883 158.123 13.0791C159.948 14.2699 161.292 15.8735 162.157 17.8901C163.021 19.9067 163.453 23.0469 163.453 27.3105V43.4434H159.449V28.4917C159.449 24.881 159.295 22.4707 158.988 21.2607C158.508 19.1865 157.605 17.6309 156.28 16.5938C154.955 15.5374 153.226 15.0093 151.094 15.0093C148.655 15.0093 146.466 15.8159 144.526 17.4292C142.605 19.0425 141.338 21.0399 140.723 23.4214C140.339 24.9771 140.147 27.8195 140.147 31.9487V43.4434H136.114V12.0996Z" fill="#17A7E8"/>
<path d="M173.866 0H177.928V24.7178L192.418 12.0996H198.353L181.154 27.0513L199.361 43.4434H193.657L177.928 29.356V43.4434H173.866V0Z" fill="#17A7E8"/>
</svg>
