<svg width="514" height="514" viewBox="0 0 514 514" fill="none" xmlns="http://www.w3.org/2000/svg">
<path d="M155.969 158.825C155.969 158.825 204.285 78.3789 300.865 109.861C397.292 141.349 374.506 260.88 374.444 261.193C374.866 259.004 391.571 256.917 393.339 256.66C442.616 249.376 479.27 295.21 482.904 340.38C487.417 396.406 444.081 436.087 394.727 453.172" stroke="#CCDDE2" stroke-width="2.05978" stroke-miterlimit="10"/>
<path d="M388.364 479.457C386.905 484.592 385.846 487.527 385.846 487.527H385.085C386.288 484.909 387.381 482.219 388.364 479.457Z" fill="#353642"/>
<path d="M253.917 276.795C253.917 276.795 252.18 287.342 250.381 296.892C245.241 296.948 240.101 296.99 235.017 297.031C232.447 282.567 235.238 271.238 238.554 263.688C242.732 273.217 249.044 276.116 253.917 276.795Z" fill="#2F08F1"/>
<path d="M338.398 314.85C327.947 309.223 316.808 304.981 305.261 302.231L301.478 301.579C301.478 301.579 298.661 295.174 298.646 295.154C297.325 291.797 295.135 287.341 294.457 283.805C293.63 279.627 293.429 275.35 293.86 271.114C294.601 264.822 297.53 251.515 302.825 247.321C307.24 243.846 309.059 244.576 311.563 239.143C313.362 235.267 314.091 228.755 310.596 225.897C306.721 222.762 305.066 224.355 300.429 224.838C282.809 226.586 272.74 213.906 266.264 199.252C265.236 196.872 264.167 194.358 262.486 192.333C260.558 190 257.891 189.475 255.706 187.589C254.776 186.777 254.138 185.451 254.586 184.299C254.849 183.749 255.232 183.264 255.706 182.881C259.835 179.078 264.792 176.288 270.186 174.734C278.717 172.267 287.731 171.986 296.4 173.916C305.446 176.913 313.577 182.588 319.051 191.259C326.602 203.24 328.422 215.669 324.191 228.056C319.858 240.742 315.022 255.642 323.163 267.85C334.004 284.067 340.537 295.472 338.398 314.85Z" fill="#2F08F1"/>
<path d="M250.401 296.891C245.261 296.947 240.121 296.988 235.037 297.029C196.302 297.23 159.228 296.69 120.369 303.66" stroke="black" stroke-width="2.05978" stroke-miterlimit="10"/>
<path d="M300.866 301.203C302.341 301.527 303.801 301.866 305.261 302.231C310.951 303.607 316.553 305.323 322.038 307.371C327.665 309.465 333.132 311.962 338.398 314.845C338.404 314.84 338.411 314.837 338.419 314.837C338.427 314.837 338.434 314.84 338.44 314.845C346.725 319.334 354.383 324.895 361.215 331.385C366.928 336.951 371.867 343.26 375.9 350.141C375.935 350.167 375.962 350.203 375.977 350.244C379.249 355.736 382.09 361.474 384.473 367.406C391.587 384.929 395.622 405.103 396.239 425.18C396.799 444.141 394.301 463.021 388.39 479.458C387.407 482.22 386.314 484.91 385.111 487.528C385.034 487.729 384.931 487.908 384.854 488.109" stroke="black" stroke-width="2.05978" stroke-miterlimit="10"/>
<path d="M323.199 487.852C323.199 487.852 323.199 487.811 323.199 487.79C323.232 487.705 323.258 487.617 323.276 487.527" stroke="black" stroke-width="2.05978" stroke-miterlimit="10"/>
<path d="M309.635 372.264C309.635 372.264 320.819 377.697 328.17 394.659C331.865 403.186 334.605 414.653 334.446 429.816C334.446 429.816 334.446 429.816 334.446 429.857C334.363 439.526 333.089 450.69 330.128 463.555V463.627" stroke="black" stroke-width="2.05978" stroke-miterlimit="10"/>
<path d="M97.9648 156.929C99.9386 149.461 103.105 141.761 105.485 138.523C109.227 133.486 114.11 128.685 120.391 129.117C124.426 129.379 128.389 131.61 128.568 136.03C128.738 140.826 123.68 146.151 122.056 150.659C120.514 155.007 119.81 160.07 120.622 164.645C121.434 169.219 125.541 172.792 129.972 173.773C131.652 174.216 133.44 173.974 134.942 173.1C139.28 170.355 138.37 163.046 138.196 158.734C137.99 153.897 137.995 148.428 142.123 145.118C145.155 142.687 149.755 144.3 151.991 146.973C155.877 151.599 156.067 158.564 156.263 164.259C156.844 181.416 153.796 197.864 143.803 212.308C138.663 219.766 133.369 226.458 131.287 235.607C124.811 264.042 124.091 283.754 120.37 312.63" stroke="black" stroke-width="2.05978" stroke-miterlimit="10"/>
<path d="M198.826 488.299C178.965 431.852 188.372 370.182 188.372 370.182L81.6858 373.564C77.1436 373.708 72.623 372.876 68.4293 371.126C64.2355 369.375 60.4659 366.745 57.3736 363.415C54.2819 360.084 51.9396 356.13 50.505 351.818C49.0704 347.505 48.5767 342.936 49.0571 338.417L75.1889 243.121L80.8429 222.793C82.646 216.396 82.2327 209.578 79.671 203.446L77.0084 197.093C77.0084 197.093 72.182 187.249 83.0017 188.175C88.8202 188.689 94.5924 191.161 99.4754 194.266C103.31 196.707 109.159 201.431 107.35 206.668C105.212 212.836 96.8283 214.378 91.9042 210.909" stroke="black" stroke-width="2.05978" stroke-miterlimit="10"/>
<path d="M79.4039 188.123C79.4039 188.123 70.265 167.563 95.3379 172.883C120.411 178.203 126.414 205.599 107.278 202.515" stroke="black" stroke-width="2.05978" stroke-miterlimit="10"/>
<path d="M87.6689 171.706C87.6689 171.706 79.6505 161.966 91.637 157.314C103.623 152.663 147.149 174.631 119.229 196.271" stroke="black" stroke-width="2.05978" stroke-miterlimit="10"/>
<path d="M261.113 276.331C258.786 276.969 256.354 277.127 253.963 276.793C249.07 276.115 242.758 273.195 238.6 263.686C237.736 261.743 237.035 259.732 236.503 257.672C234.385 249.803 233.46 238.855 234.699 223.589C234.94 220.654 235.3 217.673 235.799 214.697C236.624 209.52 237.955 204.436 239.772 199.519C239.772 199.519 239.772 199.477 239.813 199.457C244.347 187.47 252.319 177.355 265.724 173.464C275.777 170.564 286.465 170.718 296.43 173.906C305.477 176.903 313.608 182.577 319.082 191.248C326.633 203.23 328.452 215.658 324.222 228.046C319.889 240.731 315.052 255.632 323.194 267.839C334.019 284.082 340.552 295.487 338.455 314.865" stroke="black" stroke-width="2.05978" stroke-miterlimit="10"/>
<path d="M230.926 297.63C226.988 278.751 232.303 264.986 236.477 257.672" stroke="black" stroke-width="2.05978" stroke-miterlimit="10"/>
<path d="M235.799 214.676C235.799 214.676 244.419 205.666 254.406 219.898" stroke="black" stroke-width="2.05978" stroke-miterlimit="10"/>
<path d="M257.747 260.047C261.391 262.407 266.325 260.942 269.008 257.308C271.923 253.365 273.09 248.102 273.722 243.327C273.763 242.982 273.809 242.643 273.84 242.299C269.394 249.284 260.764 250.96 253.167 251.69C253.455 253.974 254.304 256.152 255.639 258.027C256.211 258.825 256.925 259.51 257.747 260.047Z" stroke="black" stroke-width="2.05978" stroke-linecap="round" stroke-linejoin="round"/>
<path d="M297.331 291.494L297.31 291.473" stroke="black" stroke-width="2.05978" stroke-miterlimit="10"/>
<path d="M263.421 211.905C263.421 211.905 266.351 207.161 276.363 210.656C286.376 214.151 286.494 219.862 286.494 219.862" stroke="black" stroke-width="2.05978" stroke-miterlimit="10"/>
<path d="M240.661 223.703C240.661 223.703 245.287 221.365 248.911 223.703" stroke="black" stroke-width="2.05978" stroke-miterlimit="10"/>
<path d="M265.591 225.856C265.591 225.856 270.217 223.517 273.815 225.856" stroke="black" stroke-width="2.05978" stroke-miterlimit="10"/>
<path d="M253.917 276.793C253.917 276.793 252.18 287.34 250.381 296.891C250.119 298.248 249.867 299.584 249.641 300.905C248.464 307.335 247.523 313.051 247.482 314.783C247.184 329.175 260.789 337.476 273.932 337.337C292.375 337.137 303.158 319.979 301.421 302.796C300.285 299.661 299.124 296.526 297.988 293.39C296.528 289.371 294.631 285.459 293.809 281.224C293.083 277.051 293.003 272.792 293.572 268.595C294.313 262.324 295.531 252.974 300.825 248.78C305.24 245.305 309.851 243.023 312.369 237.59C314.168 233.715 314.086 228.724 310.591 225.866C306.715 222.731 300.583 223.111 295.947 223.568C266.043 226.627 261.067 196.357 252.977 192.106C246.346 188.606 241.371 196.46 239.813 199.374L239.751 199.498C239.749 199.527 239.736 199.554 239.715 199.575C239.433 200.089 239.294 200.433 239.294 200.433" stroke="black" stroke-width="2.05978" stroke-miterlimit="10"/>
<path d="M253.151 227.188C253.151 227.188 250.026 237.416 250.267 238.948C250.509 240.48 254.153 239.41 254.153 239.41" stroke="black" stroke-width="2.05978" stroke-miterlimit="10"/>
<path d="M277.64 237.982C282.428 233.203 282.34 225.352 277.445 220.448C272.549 215.544 264.7 215.443 259.912 220.223C255.124 225.002 255.212 232.852 260.108 237.756C265.003 242.66 272.853 242.761 277.64 237.982Z" stroke="black" stroke-width="2.05978" stroke-miterlimit="10"/>
<path d="M246.395 234.185C251.183 229.405 251.095 221.556 246.2 216.652C241.304 211.748 233.455 211.646 228.667 216.425C223.879 221.205 223.967 229.054 228.863 233.958C233.758 238.863 241.608 238.964 246.395 234.185Z" stroke="black" stroke-width="2.05978" stroke-miterlimit="10"/>
<path d="M237.259 215.782C238.623 215.776 239.974 216.055 241.224 216.603C242.474 217.151 243.595 217.955 244.515 218.963C245.435 219.971 246.134 221.16 246.566 222.455C246.998 223.749 247.155 225.12 247.025 226.478C246.808 228.763 245.745 230.883 244.044 232.424C242.344 233.965 240.129 234.814 237.834 234.805C236.47 234.811 235.119 234.531 233.869 233.983C232.619 233.436 231.498 232.632 230.578 231.624C229.658 230.616 228.959 229.427 228.527 228.132C228.094 226.838 227.938 225.467 228.068 224.109C228.285 221.825 229.348 219.704 231.048 218.163C232.749 216.622 234.964 215.773 237.259 215.782ZM237.259 214.363C234.615 214.357 232.063 215.338 230.105 217.115C228.147 218.893 226.924 221.337 226.675 223.97C226.411 226.876 227.286 229.77 229.117 232.042C230.949 234.314 233.592 235.784 236.488 236.141C236.931 236.194 237.377 236.222 237.824 236.224C240.471 236.234 243.026 235.254 244.987 233.476C246.948 231.699 248.174 229.252 248.423 226.617C248.687 223.711 247.812 220.817 245.981 218.545C244.149 216.273 241.506 214.803 238.61 214.446C238.167 214.393 237.721 214.365 237.274 214.363H237.259Z" fill="white"/>
<path d="M256.431 227.592L249.872 226.795" stroke="black" stroke-width="2.05978" stroke-miterlimit="10"/>
<path d="M276.634 236.974C280.879 232.736 280.802 225.777 276.462 221.429C272.122 217.082 265.163 216.993 260.918 221.231C256.672 225.468 256.749 232.428 261.089 236.775C265.429 241.123 272.389 241.212 276.634 236.974Z" fill="#2F08F1"/>
<path d="M245.395 233.18C249.642 228.94 249.565 221.977 245.223 217.628C240.881 213.278 233.918 213.189 229.671 217.429C225.424 221.669 225.501 228.632 229.843 232.981C234.185 237.331 241.147 237.42 245.395 233.18Z" fill="#2F08F1"/>
<path d="M137.311 54.5659C122.405 55.3266 110.069 67.2719 108.882 82.1368C108.528 86.2843 109.041 90.46 110.39 94.3983C111.739 98.336 113.893 101.95 116.715 105.01C118.797 107.299 121.225 109.247 123.911 110.782C124.613 111.187 125.275 111.654 125.89 112.18C129.913 114.211 134.355 115.272 138.861 115.28C143.368 115.287 147.813 114.239 151.842 112.221C152.428 111.677 153.079 111.208 153.78 110.823C156.577 109.224 159.104 107.194 161.269 104.809C161.324 104.732 161.384 104.658 161.449 104.588C165.376 100.143 167.904 94.6368 168.714 88.7607C169.524 82.8852 168.582 76.9007 166.004 71.5582C163.427 66.2157 159.33 61.7531 154.226 58.7303C149.123 55.7075 143.24 54.2585 137.317 54.5659H137.311ZM155.97 101.653C155.913 101.696 155.866 101.751 155.831 101.813C154.153 103.647 152.198 105.208 150.038 106.439C149.5 106.733 149.003 107.096 148.558 107.518C145.451 109.073 142.024 109.883 138.55 109.883C135.076 109.883 131.649 109.073 128.543 107.518C128.062 107.107 127.545 106.739 127.001 106.418C122.849 104.03 119.538 100.417 117.521 96.0724C115.505 91.7286 114.881 86.8672 115.737 82.1548C116.592 77.4425 118.885 73.1105 122.3 69.7525C125.715 66.3951 130.085 64.1756 134.811 63.4C139.537 62.6243 144.388 63.3296 148.697 65.4195C153.006 67.5094 156.563 70.8812 158.88 75.0724C161.198 79.2641 162.161 84.0695 161.639 88.8306C161.117 93.5913 159.135 98.0739 155.965 101.664L155.97 101.653Z" fill="#2F08F1"/>
<path d="M151.831 112.225C150.648 113.299 149.704 114.609 149.059 116.071C148.415 117.533 148.084 119.114 148.089 120.712V122.089C148.089 126.9 144.604 131.213 139.865 131.696C138.584 131.827 137.291 131.689 136.066 131.29C134.842 130.89 133.716 130.24 132.758 129.379C131.801 128.518 131.035 127.466 130.509 126.291C129.983 125.116 129.708 123.844 129.703 122.557V120.712C129.701 119.105 129.362 117.517 128.708 116.049C128.055 114.581 127.102 113.266 125.91 112.189C129.933 114.214 134.373 115.272 138.877 115.278C143.381 115.284 147.824 114.239 151.852 112.225H151.831Z" fill="#353642"/>
<path d="M151.831 112.225C150.648 113.299 149.704 114.609 149.059 116.071C148.415 117.533 148.084 119.114 148.089 120.712V122.089C148.089 126.9 144.604 131.213 139.865 131.696C138.584 131.827 137.291 131.689 136.066 131.29C134.842 130.89 133.716 130.24 132.758 129.379C131.801 128.518 131.035 127.466 130.509 126.291C129.983 125.116 129.708 123.844 129.703 122.557V120.712C129.701 119.105 129.362 117.517 128.708 116.049C128.055 114.581 127.102 113.266 125.91 112.189C129.933 114.214 134.373 115.272 138.877 115.278C143.381 115.284 147.824 114.239 151.852 112.225H151.831Z" stroke="black" stroke-width="2.05978" stroke-miterlimit="10"/>
<path d="M168.995 84.6404C169.01 91.9947 166.321 99.0982 161.439 104.599C161.378 104.665 161.321 104.736 161.269 104.81C159.101 107.199 156.568 109.23 153.765 110.829C153.068 111.218 152.42 111.687 151.832 112.227C147.804 114.241 143.361 115.286 138.857 115.279C134.354 115.273 129.914 114.215 125.891 112.191C125.276 111.657 124.612 111.183 123.907 110.777C118.942 107.923 114.893 103.714 112.232 98.6438C109.571 93.5727 108.409 87.8493 108.882 82.1423C109.508 74.3861 113.113 67.1741 118.94 62.0177C124.768 56.8612 132.365 54.1617 140.14 54.485C147.914 54.8078 155.262 58.1288 160.641 63.7504C166.021 69.3725 169.014 76.8589 168.995 84.6404Z" stroke="black" stroke-width="2.05978" stroke-miterlimit="10"/>
<path d="M130.377 115.281L123.479 92.4182L121.752 85.9418C121.752 85.747 121.816 85.5579 121.934 85.4031C122.053 85.2489 122.219 85.1379 122.407 85.0875C122.595 85.0372 122.795 85.05 122.975 85.1246C123.155 85.1991 123.305 85.3312 123.402 85.4998C124.944 88.224 127.38 91.6421 129.806 91.5547C133.831 91.4108 130.526 79.193 127.236 80.4729C123.947 81.7527 130.254 89.8277 136.75 90.8351C143.247 91.8425 141.469 80.92 136.75 80.4883C132.032 80.0565 135.286 89.2571 143.767 90.8351C152.248 92.4131 150.664 83.0737 148.367 81.2079C146.069 79.3421 146.784 90.1155 152.109 91.8425C153.795 92.3925 155.136 91.2155 155.794 89.7506C156.175 88.8973 155.979 84.5797 155.198 85.911C153.605 88.6403 153.291 92.0481 152.51 95.0602C150.849 101.434 148.31 107.535 146.856 113.965" stroke="black" stroke-width="2.05978" stroke-miterlimit="10"/>
<path d="M85.043 488.299C88.6821 486.593 424.283 488.299 424.283 488.299" stroke="black" stroke-width="2.05978" stroke-miterlimit="10"/>
<path d="M138.863 43.8074L138.564 25.6992" stroke="black" stroke-width="2.74887" stroke-miterlimit="10"/>
<path d="M104.327 60.6509L91.791 47.5801" stroke="black" stroke-width="2.74887" stroke-miterlimit="10"/>
<path d="M173.527 61.4628L186.341 48.6641" stroke="black" stroke-width="2.74887" stroke-miterlimit="10"/>
<path d="M365.63 463.596L366.067 463.638C365.831 463.679 365.553 463.72 365.311 463.776H364.941L330.138 463.596H326.206L267.734 463.298C267.513 463.298 267.292 463.298 267.071 463.298C267.018 463.308 266.964 463.308 266.911 463.298C266.911 463.298 266.911 463.298 266.875 463.298C266.507 463.302 266.139 463.276 265.775 463.221C268.903 462.868 271.866 461.636 274.323 459.669C274.709 459.346 275.104 459.037 275.464 458.688L275.505 458.647C275.589 458.579 275.668 458.505 275.742 458.426C278.714 455.487 280.493 451.552 280.738 447.38C280.738 447.179 280.738 446.958 280.738 446.758V446.439C280.72 442.544 279.362 438.773 276.892 435.761C274.422 432.749 270.99 430.679 267.173 429.899C267.168 429.893 267.161 429.891 267.153 429.891C267.145 429.891 267.138 429.893 267.132 429.899C266.752 429.801 266.315 429.739 265.914 429.678L266.773 429.621C266.913 429.611 267.054 429.611 267.194 429.621C267.43 429.621 267.651 429.621 267.873 429.621L317.273 429.878L326.366 429.919L334.436 429.96H338.193H338.65C338.712 429.96 338.748 429.96 338.81 429.96C342.976 430.38 346.839 432.33 349.651 435.433C352.463 438.535 354.025 442.571 354.034 446.758C354.034 447.554 353.974 448.35 353.854 449.138C353.272 453.051 351.337 456.636 348.385 459.271C345.434 461.906 341.653 463.424 337.699 463.56C337.52 463.56 337.34 463.56 337.185 463.56H366.535C366.108 463.576 365.831 463.576 365.63 463.596Z" fill="white"/>
<path d="M287.034 484.023C288.144 485.138 289.464 486.024 290.918 486.628C292.372 487.231 293.931 487.54 295.504 487.538H266.834C261.344 487.538 258.363 486.202 256.189 484.023C253.942 481.775 252.679 478.729 252.673 475.552C252.673 468.983 258.065 463.586 266.834 463.586H295.504C293.135 463.582 290.818 464.282 288.847 465.596C286.875 466.911 285.339 468.781 284.431 470.97C283.524 473.159 283.287 475.568 283.75 477.892C284.214 480.215 285.357 482.349 287.034 484.023Z" fill="#D7E8F0"/>
<path d="M365.748 463.634C365.77 463.628 365.793 463.629 365.815 463.637C365.793 463.636 365.77 463.635 365.748 463.634C365.67 463.628 365.593 463.615 365.517 463.596H337.699C341.316 463.402 344.775 462.049 347.563 459.736C347.983 459.393 348.385 459.027 348.766 458.641C349.084 458.331 349.385 458.003 349.665 457.659C349.88 457.42 350.079 457.168 350.261 456.903C350.38 456.759 350.482 456.621 350.58 456.482C350.77 456.227 350.942 455.96 351.094 455.68C351.328 455.354 351.536 455.011 351.716 454.652C351.908 454.31 352.079 453.956 352.23 453.593C352.307 453.434 352.369 453.254 352.472 453.079C352.61 452.72 352.729 452.36 352.847 452C353.011 451.486 353.171 450.942 353.289 450.407C353.361 450.118 353.414 449.824 353.448 449.527C353.471 449.456 353.485 449.382 353.489 449.307C353.512 449.249 353.526 449.189 353.53 449.127C353.53 448.926 353.587 448.746 353.608 448.546V448.428C353.683 447.871 353.717 447.309 353.71 446.747C353.717 446.488 353.704 446.228 353.669 445.971V445.791C353.669 445.536 353.649 445.282 353.608 445.03C353.472 443.643 353.156 442.28 352.667 440.975C352.397 440.192 352.052 439.436 351.639 438.718C351.262 437.995 350.822 437.308 350.323 436.662C350.194 436.474 350.053 436.294 349.902 436.122C349.84 436.061 349.783 435.978 349.701 435.901C349.435 435.551 349.141 435.223 348.822 434.92C348.586 434.684 348.308 434.442 348.067 434.185C347.825 433.928 347.424 433.624 347.085 433.383C346.746 433.141 346.525 432.967 346.226 432.766C345.783 432.444 345.316 432.157 344.828 431.908C344.374 431.643 343.9 431.414 343.41 431.224C342.842 430.981 342.263 430.769 341.672 430.587C341.471 430.512 341.263 430.459 341.051 430.427C340.501 430.271 339.941 430.151 339.375 430.068C339.092 430.006 338.815 429.985 338.516 429.949H338.475C338.437 429.959 338.396 429.959 338.357 429.949H338.475H338.516C338.815 429.985 339.092 430.006 339.375 430.068C339.941 430.151 340.501 430.271 341.051 430.427C341.263 430.459 341.471 430.512 341.672 430.587C342.263 430.769 342.842 430.981 343.41 431.224C343.9 431.414 344.374 431.643 344.828 431.908C345.316 432.157 345.783 432.444 346.226 432.766C346.525 432.967 346.746 433.141 347.085 433.383C347.424 433.624 347.825 433.928 348.067 434.185C348.308 434.442 348.586 434.684 348.822 434.92C349.141 435.223 349.435 435.551 349.701 435.901C349.783 435.978 349.84 436.061 349.902 436.122C350.053 436.294 350.194 436.474 350.323 436.662C350.822 437.308 351.262 437.995 351.639 438.718C352.052 439.436 352.397 440.192 352.667 440.975C353.156 442.28 353.472 443.643 353.608 445.03C353.649 445.282 353.669 445.536 353.669 445.791V445.971C353.704 446.228 353.717 446.488 353.71 446.747C353.717 447.309 353.683 447.871 353.608 448.428V448.546C353.587 448.746 353.53 448.926 353.53 449.127C353.526 449.189 353.512 449.249 353.489 449.307C353.485 449.382 353.471 449.456 353.448 449.527C353.414 449.824 353.361 450.118 353.289 450.407C353.171 450.942 353.011 451.486 352.847 452C352.729 452.36 352.61 452.72 352.472 453.079C352.369 453.254 352.307 453.434 352.23 453.593C352.079 453.956 351.908 454.31 351.716 454.652C351.536 455.011 351.328 455.354 351.094 455.68C350.942 455.96 350.77 456.227 350.58 456.482C350.482 456.621 350.38 456.759 350.261 456.903C350.079 457.168 349.88 457.42 349.665 457.659C349.385 458.003 349.084 458.331 348.766 458.641C348.385 459.027 347.983 459.393 347.563 459.736C344.775 462.049 341.316 463.402 337.699 463.596H365.517C365.583 463.585 365.651 463.585 365.717 463.596H365.517C365.593 463.615 365.67 463.628 365.748 463.634Z" fill="#2F08F1"/>
<path d="M381.811 447C381.811 447.319 381.811 447.658 381.77 447.977C381.729 448.516 381.672 449.035 381.59 449.555C381.549 449.832 381.492 450.115 381.431 450.392C381.312 450.906 381.174 451.472 381.014 451.991C380.834 452.563 380.619 453.125 380.372 453.672C380.292 453.886 380.192 454.093 380.074 454.288C380.074 454.35 380.032 454.391 379.991 454.448C379.873 454.71 379.734 454.962 379.596 455.209C379.375 455.609 379.133 456.005 378.876 456.386C378.573 456.848 378.233 457.265 377.894 457.686C377.549 458.104 377.182 458.504 376.794 458.884C376.388 459.297 375.955 459.685 375.499 460.045L374.985 460.462C374.401 460.903 373.785 461.304 373.145 461.659C372.847 461.819 372.528 461.983 372.209 462.142C372.18 462.164 372.144 462.177 372.107 462.178C371.747 462.358 371.387 462.502 371.027 462.641C370.667 462.78 370.308 462.919 369.932 463.037C369.552 463.14 369.172 463.258 368.791 463.34L368.478 463.397C368.18 463.463 367.881 463.52 367.578 463.566C367.041 463.659 366.498 463.722 365.954 463.756C365.623 463.791 365.29 463.805 364.957 463.797C364.957 463.797 364.895 463.797 364.875 463.797L330.128 463.628L321.94 463.587L267.364 463.309C267.163 463.306 266.962 463.292 266.762 463.268C266.305 463.268 265.863 463.227 265.405 463.191C269.359 462.72 273.022 460.876 275.757 457.981C278.491 455.086 280.123 451.324 280.368 447.349C280.368 447.149 280.368 446.928 280.368 446.707V446.491C280.373 442.575 279.022 438.778 276.546 435.744C274.07 432.711 270.62 430.627 266.783 429.848C266.382 429.766 265.981 429.709 265.565 429.647C265.962 429.601 266.362 429.575 266.762 429.57C266.903 429.56 267.043 429.56 267.184 429.57H267.523L322.099 429.848L334.435 429.909H338.47H338.81L365.024 430.048C365.884 430.051 366.743 430.119 367.594 430.249C369.765 430.605 371.848 431.378 373.726 432.526C373.967 432.664 374.183 432.824 374.404 432.963C375.07 433.419 375.704 433.92 376.301 434.464C376.501 434.643 376.681 434.823 376.882 435.024C378.405 436.567 379.625 438.382 380.48 440.374L380.783 441.156C380.884 441.409 380.97 441.668 381.04 441.932C381.552 443.572 381.812 445.281 381.811 447Z" stroke="black" stroke-width="2.05978" stroke-linecap="square" stroke-linejoin="round"/>
<path d="M353.685 446.697C353.688 447.258 353.661 447.819 353.603 448.377C353.603 448.418 353.603 448.454 353.603 448.496C353.562 448.758 353.526 449.01 353.484 449.256C353.48 449.331 353.466 449.406 353.443 449.477C353.409 449.773 353.356 450.067 353.284 450.356C353.166 450.87 353.006 451.431 352.842 451.95C352.724 452.309 352.605 452.669 352.467 453.029C352.364 453.209 352.302 453.389 352.225 453.543C352.075 453.906 351.903 454.26 351.711 454.602C351.531 454.96 351.323 455.304 351.089 455.63C350.937 455.909 350.765 456.177 350.575 456.432C350.477 456.571 350.375 456.709 350.256 456.853C350.074 457.117 349.875 457.37 349.66 457.609C349.38 457.953 349.079 458.281 348.761 458.591C348.378 458.969 347.977 459.327 347.558 459.665C344.776 461.99 341.319 463.356 337.699 463.561C337.52 463.561 337.34 463.561 337.185 463.561H267.441C266.803 463.561 266.146 463.525 265.482 463.463C265.913 463.412 266.34 463.338 266.762 463.242C266.796 463.254 266.832 463.254 266.865 463.242H266.901C270.142 462.566 273.114 460.959 275.454 458.616L275.495 458.575C278.47 455.569 280.209 451.555 280.368 447.329C280.368 447.128 280.368 446.907 280.368 446.686V446.666C280.336 442.546 278.805 438.579 276.063 435.505C273.319 432.431 269.551 430.46 265.462 429.961C265.904 429.904 266.341 429.884 266.783 429.863C266.895 429.843 267.01 429.843 267.122 429.863C267.128 429.858 267.135 429.855 267.143 429.855C267.15 429.855 267.158 429.858 267.163 429.863C267.249 429.853 267.335 429.853 267.42 429.863H336.8C337.283 429.863 337.741 429.863 338.203 429.925H338.363C338.401 429.935 338.442 429.935 338.481 429.925H338.563L339.38 430.043C339.946 430.126 340.506 430.246 341.056 430.403C341.256 430.444 341.477 430.5 341.678 430.562C342.268 430.744 342.848 430.956 343.415 431.199C343.893 431.4 344.376 431.642 344.834 431.883C345.317 432.14 345.784 432.427 346.232 432.741C346.53 432.942 346.813 433.137 347.09 433.358C347.368 433.579 347.748 433.872 348.072 434.16C348.396 434.448 348.586 434.674 348.828 434.895C349.131 435.219 349.429 435.538 349.706 435.877C349.789 435.954 349.845 436.036 349.907 436.098L350.328 436.638C350.81 437.295 351.249 437.981 351.644 438.694C352.032 439.425 352.376 440.178 352.672 440.95C353.144 442.26 353.46 443.622 353.613 445.006C353.613 445.268 353.654 445.52 353.675 445.766V445.946C353.685 446.177 353.685 446.44 353.685 446.697Z" stroke="black" stroke-width="2.05978" stroke-linecap="square" stroke-linejoin="round"/>
<path d="M366.509 487.529H266.824C264.603 487.588 262.387 487.272 260.271 486.593C259.849 486.434 259.453 486.274 259.073 486.079C258.693 485.879 258.353 485.678 258.014 485.478C257.675 485.277 257.377 485.02 257.074 484.779C256.775 484.517 256.498 484.265 256.236 483.997C254.867 482.631 253.853 480.951 253.28 479.104C252.916 477.954 252.734 476.754 252.741 475.547C252.737 475.08 252.764 474.613 252.823 474.149C252.898 473.498 253.038 472.856 253.239 472.232C253.517 471.245 253.949 470.309 254.519 469.456C254.844 468.9 255.232 468.383 255.676 467.914C255.948 467.611 256.236 467.323 256.539 467.051C258.975 464.877 262.512 463.535 266.886 463.535H366.509C366.108 463.535 365.831 463.535 365.63 463.535C365.564 463.525 365.496 463.525 365.43 463.535C365.229 463.535 365.271 463.535 365.368 463.535C365.374 463.54 365.381 463.543 365.389 463.543C365.396 463.543 365.404 463.54 365.409 463.535C365.455 463.544 365.502 463.544 365.548 463.535C365.589 463.535 365.61 463.535 365.651 463.535C365.43 463.576 365.209 463.597 364.988 463.653H364.942C364.942 463.653 364.88 463.653 364.859 463.653C362.135 464.195 359.682 465.663 357.916 467.807C356.15 469.952 355.18 472.641 355.17 475.419C355.186 478.348 356.267 481.172 358.212 483.363C360.156 485.554 362.832 486.964 365.738 487.328C365.25 487.513 364.793 487.529 366.509 487.529Z" stroke="black" stroke-width="2.05978" stroke-linecap="square" stroke-linejoin="round"/>
<path d="M365.707 487.47C365.25 487.511 364.792 487.527 364.33 487.527H295.49C293.919 487.526 292.364 487.215 290.914 486.612C289.464 486.008 288.147 485.125 287.04 484.011C285.672 482.644 284.657 480.965 284.084 479.118C283.729 477.966 283.556 476.766 283.57 475.561C283.576 472.387 284.837 469.344 287.08 467.098C289.322 464.853 292.362 463.586 295.536 463.574H364.33C364.669 463.574 365.029 463.574 365.358 463.615C365.417 463.625 365.478 463.625 365.538 463.615C365.579 463.615 365.599 463.615 365.641 463.615C365.42 463.656 365.199 463.677 364.977 463.734H364.942C364.942 463.734 364.88 463.734 364.859 463.734C362.135 464.276 359.682 465.743 357.916 467.888C356.15 470.032 355.18 472.721 355.17 475.499C355.186 478.429 356.267 481.253 358.212 483.444C360.156 485.635 362.832 487.044 365.738 487.408L365.707 487.47Z" stroke="black" stroke-width="2.05978" stroke-linecap="square" stroke-linejoin="round"/>
<path d="M283.524 475.561C283.524 478.735 284.785 481.778 287.028 484.022C289.272 486.266 292.316 487.527 295.49 487.527H266.824C261.35 487.527 258.353 486.19 256.174 484.011C255.063 482.902 254.183 481.585 253.583 480.135C252.983 478.685 252.676 477.13 252.679 475.561C252.679 468.971 258.055 463.574 266.824 463.574H295.49C292.316 463.586 289.276 464.853 287.033 467.098C284.791 469.344 283.529 472.387 283.524 475.561Z" stroke="black" stroke-width="2.05978" stroke-linecap="square" stroke-linejoin="round"/>
<path d="M366.509 487.529H364.33C364.793 487.529 365.25 487.529 365.708 487.473C365.25 487.514 364.793 487.529 366.509 487.529Z" stroke="black" stroke-width="2.05978" stroke-linecap="square" stroke-linejoin="round"/>
<path d="M365.548 463.626C365.152 463.626 364.731 463.564 364.33 463.564H366.509C364.988 463.575 365.168 463.626 365.548 463.626Z" stroke="black" stroke-width="2.05978" stroke-linecap="square" stroke-linejoin="round"/>
<path opacity="0.54" d="M66.8212 442.441L31.1394 351.031C30.6973 349.263 30.6641 347.417 31.0422 345.633C31.4204 343.85 32.1999 342.176 33.3217 340.74C34.4435 339.303 35.878 338.14 37.5162 337.341C39.1545 336.541 40.9534 336.126 42.7763 336.125H184.527C187.709 336.124 190.799 337.195 193.299 339.164C195.799 341.133 197.563 343.887 198.308 346.981L237.372 438.38C237.795 440.144 237.813 441.981 237.425 443.753C237.036 445.525 236.25 447.185 235.127 448.61C234.004 450.034 232.572 451.185 230.94 451.977C229.308 452.768 227.518 453.179 225.704 453.178H80.5605C77.4009 453.178 74.3318 452.121 71.842 450.175C69.3527 448.229 67.585 445.507 66.8212 442.441Z" fill="white"/>
<path d="M66.8212 442.441L31.1394 351.031C30.6973 349.263 30.6641 347.417 31.0422 345.633C31.4204 343.85 32.1999 342.176 33.3217 340.74C34.4435 339.303 35.878 338.14 37.5162 337.341C39.1545 336.541 40.9534 336.126 42.7763 336.125H184.527C187.709 336.124 190.799 337.195 193.299 339.164C195.799 341.133 197.563 343.887 198.308 346.981L237.372 438.38C237.795 440.144 237.813 441.981 237.425 443.753C237.036 445.525 236.25 447.185 235.127 448.61C234.004 450.034 232.572 451.185 230.94 451.977C229.308 452.768 227.518 453.179 225.704 453.178H80.5605C77.4009 453.178 74.3318 452.121 71.842 450.175C69.3527 448.229 67.585 445.507 66.8212 442.441Z" fill="#2F08F1"/>
<path d="M66.8212 442.441L31.1394 351.031C30.6973 349.263 30.6641 347.417 31.0422 345.633C31.4204 343.85 32.1999 342.176 33.3217 340.74C34.4435 339.303 35.878 338.14 37.5162 337.341C39.1545 336.541 40.9534 336.126 42.7763 336.125H184.527C187.709 336.124 190.799 337.195 193.299 339.164C195.799 341.133 197.563 343.887 198.308 346.981L237.372 438.38C237.795 440.144 237.813 441.981 237.425 443.753C237.036 445.525 236.25 447.185 235.127 448.61C234.004 450.034 232.572 451.185 230.94 451.977C229.308 452.768 227.518 453.179 225.704 453.178H80.5605C77.4009 453.178 74.3318 452.121 71.842 450.175C69.3527 448.229 67.585 445.507 66.8212 442.441Z" stroke="black" stroke-width="2.05978" stroke-linecap="square" stroke-linejoin="round"/>
<path d="M72.0321 438.739L39.1361 354.407C38.7278 352.777 38.6963 351.074 39.0441 349.429C39.3918 347.785 40.1097 346.241 41.1432 344.915C42.1767 343.589 43.4986 342.517 45.0086 341.778C46.5187 341.039 48.1772 340.654 49.8582 340.652H180.609C183.545 340.653 186.396 341.641 188.701 343.458C191.007 345.276 192.634 347.816 193.321 350.67L229.357 434.966C229.748 436.594 229.765 438.288 229.407 439.923C229.048 441.558 228.324 443.09 227.287 444.405C226.252 445.719 224.931 446.782 223.425 447.512C221.92 448.243 220.268 448.623 218.594 448.623H84.7177C81.8043 448.624 78.9737 447.652 76.6756 445.862C74.3775 444.071 72.7435 441.564 72.0321 438.739Z" fill="#2F08F1"/>
<path d="M171.163 356.159C169.43 353.553 166.598 352.397 164.83 353.589C163.062 354.782 163.036 357.83 164.768 360.436C165.041 360.832 165.348 361.206 165.683 361.551L152.833 388.675C150.777 387.307 148.531 386.968 146.917 388.048C146.396 388.427 145.964 388.915 145.653 389.479C145.341 390.043 145.157 390.668 145.113 391.312L136.334 388.346L128.66 385.776L126.152 384.953C125.837 384.011 125.4 383.114 124.851 382.286C122.415 378.626 118.436 377.002 115.954 378.652C113.471 380.302 113.445 384.522 115.815 388.156L101.212 408.114C98.0255 405.498 94.2681 404.691 91.6673 406.418C88.131 408.777 88.0693 414.92 91.5491 420.142C91.6879 420.347 91.8472 420.522 91.9911 420.717L82.2405 434.04L82.1532 434.169C81.8787 434.539 81.6818 434.962 81.5759 435.411C81.4695 435.859 81.4557 436.325 81.5353 436.779C81.615 437.233 81.7862 437.667 82.0385 438.053C82.2909 438.439 82.6188 438.769 83.0033 439.024C83.3873 439.279 83.8196 439.453 84.2734 439.536C84.7268 439.618 85.1924 439.607 85.6422 439.505C86.0914 439.401 86.5155 439.208 86.8876 438.936C87.2598 438.663 87.5728 438.318 87.8072 437.921L96.4783 424.871C99.2128 426.459 102.132 426.762 104.255 425.343C107.637 423.092 107.797 417.397 104.769 412.339L118.776 391.198C120.832 392.602 123.124 392.961 124.759 391.877C125.673 391.233 126.295 390.254 126.491 389.153L127.519 389.446L135.326 391.579L145.319 394.272C145.622 395.469 146.126 396.605 146.809 397.634C149.24 401.288 153.224 402.918 155.707 401.268C158.189 399.618 158.22 395.316 155.789 391.661C155.43 391.13 155.028 390.63 154.586 390.165L166.814 362.517C168.289 363.545 169.898 363.777 171.085 363C172.879 361.854 172.905 358.77 171.163 356.159Z" fill="white"/>
<path d="M78.1288 357.656H59.1879C58.3166 357.659 57.4634 357.408 56.733 356.933C56.0021 356.458 55.4264 355.78 55.0759 354.983C54.9679 354.738 54.9104 354.474 54.9062 354.207C54.9119 353.69 55.1201 353.197 55.4866 352.833C55.8536 352.47 56.3485 352.265 56.8646 352.264H77.0083C76.0728 353.862 76.5868 356.083 78.1288 357.656Z" fill="#D7E8F0"/>
<path d="M90.3925 355.713C90.3899 356.228 90.1833 356.721 89.8189 357.086C89.4539 357.449 88.96 357.654 88.4444 357.656H78.1285C76.5556 356.083 76.0725 353.862 77.0234 352.264H86.1212C86.9909 352.259 87.8431 352.508 88.5729 352.98C89.3033 353.452 89.8806 354.126 90.2332 354.921C90.3396 355.171 90.3935 355.441 90.3925 355.713Z" fill="#2F08F1"/>
<path d="M85.6549 357.655C85.5994 357.759 85.5377 357.858 85.4698 357.953C84.1129 359.799 81.1831 359.973 78.906 358.308C78.6336 358.112 78.3771 357.893 78.1402 357.655C76.5674 356.082 76.0842 353.862 77.0351 352.263C77.0865 352.158 77.1487 352.058 77.2201 351.965C78.5617 350.11 81.4915 349.95 83.7685 351.6C84.045 351.799 84.3051 352.021 84.5446 352.263C86.1072 353.841 86.5903 356.041 85.6549 357.655Z" fill="white"/>
<path d="M95.1586 367.607C95.1545 368.124 94.9463 368.618 94.5798 368.982C94.2128 369.346 93.7168 369.55 93.2002 369.55H73.3136C74.2748 367.936 73.7967 365.736 72.2188 364.158H90.8975C91.7687 364.155 92.622 364.405 93.3524 364.88C94.0833 365.355 94.659 366.033 95.0095 366.831C95.1103 367.077 95.1611 367.341 95.1586 367.607Z" fill="#2F08F1"/>
<path d="M73.3122 369.566H63.9574C63.0877 369.57 62.2355 369.322 61.5057 368.85C60.7753 368.378 60.198 367.703 59.8454 366.908C59.7375 366.66 59.6799 366.392 59.6758 366.122C59.6743 365.866 59.7236 365.613 59.8208 365.376C59.9179 365.139 60.0608 364.924 60.2417 364.743C60.4221 364.562 60.637 364.418 60.8729 364.321C61.1094 364.223 61.3628 364.173 61.6187 364.174H72.2174C73.7954 365.736 74.2734 367.936 73.3122 369.566Z" fill="#D7E8F0"/>
<path d="M73.313 369.566C73.2703 369.673 73.2133 369.773 73.1434 369.864C71.8018 371.724 68.8669 371.884 66.5899 370.234C66.3082 370.031 66.0419 369.808 65.7932 369.566C64.2512 367.993 63.7372 365.788 64.6881 364.174C64.7384 364.07 64.8006 363.971 64.8731 363.881C66.2249 362.03 69.1547 361.861 71.4369 363.521C71.7067 363.719 71.9612 363.937 72.1976 364.174C73.7961 365.736 74.2742 367.936 73.313 369.566Z" fill="white"/>
<path d="M79.9378 381.387H68.0336C67.1639 381.39 66.3122 381.139 65.5823 380.667C64.8524 380.194 64.2752 379.519 63.9216 378.725C63.8136 378.48 63.7561 378.216 63.752 377.949C63.7535 377.429 63.9601 376.932 64.3271 376.565C64.6941 376.198 65.1912 375.992 65.7103 375.99H78.807C77.8921 377.578 78.3753 379.784 79.9378 381.387Z" fill="#2F08F1"/>
<path d="M99.2347 379.429C99.2321 379.944 99.0255 380.436 98.6601 380.799C98.2951 381.161 97.8012 381.363 97.2867 381.362H79.9392C78.3972 379.784 77.8832 377.579 78.8289 375.965H94.9737C95.8408 375.964 96.6894 376.217 97.4157 376.692C98.1414 377.167 98.713 377.843 99.06 378.638C99.1715 378.887 99.2311 379.156 99.2347 379.429Z" fill="#D7E8F0"/>
<path d="M87.4487 381.387C87.3983 381.492 87.3361 381.59 87.2637 381.68C85.9221 383.541 82.9923 383.7 80.7153 382.05C80.4419 381.847 80.1828 381.625 79.9392 381.387C78.3972 379.809 77.8832 377.604 78.8289 375.99C78.8829 375.888 78.9451 375.79 79.014 375.697C80.3709 373.852 83.3007 373.687 85.5777 375.337C85.8481 375.537 86.1041 375.755 86.3436 375.99C87.8959 377.542 88.4099 379.758 87.4487 381.387Z" fill="white"/>
<path d="M156.909 437.075H145C144.13 437.077 143.278 436.826 142.548 436.354C141.818 435.881 141.241 435.207 140.888 434.412C140.776 434.169 140.716 433.904 140.713 433.636C140.714 433.117 140.921 432.62 141.288 432.253C141.655 431.886 142.152 431.679 142.671 431.678H155.773C154.863 433.302 155.346 435.497 156.909 437.075Z" fill="#2F08F1"/>
<path d="M204.172 435.142C204.172 435.397 204.121 435.648 204.023 435.883C203.925 436.118 203.782 436.331 203.601 436.511C203.421 436.69 203.206 436.832 202.971 436.929C202.736 437.026 202.484 437.075 202.229 437.075H156.91C155.368 435.497 154.854 433.292 155.8 431.678H199.911C200.778 431.677 201.627 431.93 202.353 432.405C203.079 432.879 203.65 433.555 203.997 434.351C204.109 434.6 204.169 434.869 204.172 435.142Z" fill="#D7E8F0"/>
<path d="M164.419 437.075C164.369 437.179 164.307 437.277 164.234 437.368C162.893 439.228 159.963 439.388 157.686 437.738C157.412 437.536 157.152 437.314 156.91 437.075C155.368 435.497 154.854 433.292 155.8 431.678C155.854 431.575 155.916 431.477 155.985 431.385C157.342 429.539 160.271 429.375 162.548 431.025C162.819 431.224 163.075 431.442 163.314 431.678C164.887 433.256 165.37 435.471 164.419 437.075Z" fill="white"/>
</svg>
