<svg width="240" height="64" viewBox="0 0 240 64" fill="none" xmlns="http://www.w3.org/2000/svg">
<path fill-rule="evenodd" clip-rule="evenodd" d="M13.0604 58.7537C13.0576 58.7517 13.0549 58.7497 13.0521 58.7476C12.9861 58.6991 12.9202 58.6502 12.8546 58.6012C7.51128 54.6077 3.5457 49.0412 1.51542 42.6781C-0.540838 36.2336 -0.506397 29.3029 1.61381 22.8792C3.73401 16.4555 7.83113 10.8687 13.3179 6.91945C18.8048 2.9702 25.3996 0.86127 32.1572 0.894928C38.9149 0.928586 45.4884 3.1031 50.9357 7.10681C56.383 11.1105 60.4244 16.7379 62.4807 23.1824C64.5369 29.6269 64.5025 36.5576 62.3823 42.9813C60.2889 49.3238 56.2681 54.8505 50.8854 58.7906C50.8192 58.8391 50.7528 58.8873 50.6862 58.9352C50.6835 58.9372 50.6808 58.9391 50.6781 58.941L43.2061 48.5367C43.2074 48.5358 43.2087 48.5349 43.2099 48.534C46.5001 46.1646 48.957 42.8136 50.2286 38.9609C51.5007 35.1067 51.5214 30.9482 50.2876 27.0815C49.0539 23.2148 46.629 19.8384 43.3607 17.4362C40.0923 15.034 36.1482 13.7292 32.0936 13.7091C28.039 13.6889 24.0821 14.9542 20.79 17.3238C17.4979 19.6933 15.0396 23.0454 13.7675 26.8996C12.4954 30.7538 12.4747 34.9123 13.7085 38.779C14.9418 42.6444 17.3654 46.0198 20.6322 48.4219C20.6333 48.4227 20.6343 48.4235 20.6354 48.4243L13.0604 58.7537ZM20.2786 48.4779L13.0061 58.3946C7.70635 54.4331 3.77311 48.9117 1.75928 42.6001C-0.280526 36.2072 -0.246361 29.3319 1.85688 22.9596C3.96013 16.5873 8.02446 11.0452 13.4674 7.12753C18.9103 3.20988 25.4524 1.11782 32.156 1.15121C38.8596 1.1846 45.3805 3.34172 50.7842 7.3134C56.188 11.2851 60.197 16.8674 62.2368 23.2604C64.2766 29.6533 64.2425 36.5286 62.1392 42.9009C60.0627 49.192 56.0748 54.674 50.736 58.5825L43.5624 48.5938C46.7945 46.2023 49.2094 42.8657 50.4717 39.0413C51.7607 35.1357 51.7817 30.9218 50.5315 27.0035C49.2813 23.0853 46.8241 19.6639 43.5122 17.2296C40.2002 14.7953 36.2035 13.4732 32.0948 13.4528C27.9862 13.4323 23.9765 14.7145 20.6405 17.1157C17.3046 19.5168 14.8135 22.9136 13.5244 26.8192C12.2353 30.7248 12.2144 34.9387 13.4646 38.857C14.6888 42.6938 17.0704 46.0542 20.2786 48.4779Z" fill="#393E46"/>
<path d="M20.2786 48.4779L13.0061 58.3946C7.70635 54.4331 3.77311 48.9117 1.75928 42.6001C-0.280526 36.2072 -0.246361 29.3319 1.85688 22.9596C3.96013 16.5873 8.02446 11.0452 13.4674 7.12753C18.9103 3.20988 25.4524 1.11782 32.156 1.15121C38.8596 1.1846 45.3805 3.34172 50.7842 7.3134C56.188 11.2851 60.197 16.8674 62.2368 23.2604C64.2766 29.6533 64.2425 36.5286 62.1392 42.9009C60.0627 49.192 56.0748 54.674 50.736 58.5825L43.5624 48.5938C46.7945 46.2023 49.2094 42.8657 50.4717 39.0413C51.7607 35.1357 51.7817 30.9218 50.5315 27.0035C49.2813 23.0853 46.8241 19.6639 43.5122 17.2296C40.2002 14.7953 36.2035 13.4732 32.0948 13.4528C27.9862 13.4323 23.9765 14.7145 20.6405 17.1157C17.3046 19.5168 14.8135 22.9136 13.5244 26.8192C12.2353 30.7248 12.2144 34.9387 13.4646 38.857C14.6888 42.6938 17.0704 46.0542 20.2786 48.4779Z" fill="#393E46"/>
<path fill-rule="evenodd" clip-rule="evenodd" d="M40.4881 61.1503C40.5492 61.2903 40.5918 61.4193 40.5918 61.5191C40.5918 61.5934 40.5592 61.6568 40.5161 61.7072C40.4737 61.7568 40.4163 61.7998 40.3517 61.8377C40.2226 61.9136 40.0412 61.983 39.8216 62.0475C39.3806 62.1769 38.756 62.2943 38.0124 62.3962C36.5236 62.6002 34.5388 62.7443 32.5476 62.7927C30.5568 62.8411 28.5539 62.794 27.03 62.614C26.269 62.5241 25.6205 62.4004 25.151 62.2358C24.9165 62.1536 24.7196 62.0588 24.5746 61.948C24.4296 61.8371 24.3253 61.701 24.3029 61.5361C24.2835 61.3938 24.3034 61.226 24.3495 61.0425C24.396 60.8575 24.4713 60.6485 24.5698 60.4206C24.7668 59.9648 25.0612 59.4237 25.4191 58.8327C26.1354 57.6502 27.1134 56.256 28.0977 54.9243C29.0823 53.5921 30.0749 52.32 30.8212 51.3812C31.1944 50.9117 31.5061 50.5255 31.7245 50.2565C31.8337 50.1221 31.9196 50.0169 31.9783 49.9454C32.0076 49.9096 32.0301 49.8822 32.0453 49.8638L32.0682 49.8359C32.0683 49.8358 32.0683 49.8358 32.1678 49.9162C32.2688 49.8377 32.2688 49.8378 32.2689 49.8378L32.3621 49.9556C32.4229 50.0326 32.512 50.1456 32.6255 50.2898C32.8525 50.5782 33.1766 50.9915 33.5656 51.491C34.3436 52.4899 35.381 53.8338 36.4186 55.2135C37.4559 56.593 38.4942 58.0096 39.2736 59.1533C39.6632 59.725 39.9893 60.2304 40.2186 60.6299C40.3331 60.8295 40.4247 61.0049 40.4881 61.1503ZM32.1678 49.9162L32.2689 49.8378L32.1698 49.7129L32.0682 49.8359L32.1678 49.9162ZM32.1659 50.1201C32.108 50.1908 32.0265 50.2906 31.9247 50.4159C31.7067 50.6843 31.3956 51.0698 31.023 51.5385C30.2779 52.4759 29.2872 53.7455 28.3049 55.0745C27.3222 56.4041 26.3496 57.7909 25.6394 58.9635C25.2842 59.5501 24.9964 60.08 24.8059 60.5207C24.7106 60.741 24.6408 60.9365 24.5987 61.1039C24.5563 61.2727 24.5442 61.4051 24.5574 61.5022C24.5675 61.5767 24.6169 61.659 24.7316 61.7467C24.8463 61.8344 25.0149 61.9183 25.2367 61.996C25.6795 62.1513 26.306 62.2724 27.0604 62.3615C28.5671 62.5395 30.5563 62.5868 32.5413 62.5385C34.5257 62.4902 36.5005 62.3466 37.9772 62.1443C38.7164 62.043 39.3261 61.9276 39.7486 61.8036C39.9609 61.7414 40.1186 61.679 40.2206 61.619C40.2717 61.589 40.3029 61.563 40.3201 61.5429C40.3324 61.5286 40.3346 61.5209 40.335 61.519C40.3349 61.476 40.3127 61.3895 40.2523 61.2511C40.1942 61.1177 40.1076 60.9513 39.9953 60.7555C39.7708 60.3644 39.4489 59.8652 39.0607 59.2956C38.2847 58.1568 37.2492 56.7439 36.2126 55.3654C35.1762 53.9872 34.1397 52.6445 33.3623 51.6463C32.9736 51.1472 32.6496 50.7342 32.4229 50.4461C32.3133 50.3068 32.2264 50.1967 32.1659 50.1201ZM40.335 61.5185C40.335 61.5185 40.335 61.5187 40.335 61.519Z" fill="#393E46"/>
<path d="M32.1659 50.1201C32.108 50.1908 32.0265 50.2906 31.9247 50.4159C31.7067 50.6843 31.3956 51.0698 31.023 51.5385C30.2779 52.4759 29.2872 53.7455 28.3049 55.0745C27.3222 56.4041 26.3496 57.7909 25.6394 58.9635C25.2842 59.5501 24.9964 60.08 24.8059 60.5207C24.7106 60.741 24.6408 60.9365 24.5987 61.1039C24.5563 61.2727 24.5442 61.4051 24.5574 61.5022C24.5675 61.5767 24.6169 61.659 24.7316 61.7467C24.8463 61.8344 25.0149 61.9183 25.2367 61.996C25.6795 62.1513 26.306 62.2724 27.0604 62.3615C28.5671 62.5395 30.5563 62.5868 32.5413 62.5385C34.5257 62.4902 36.5005 62.3466 37.9772 62.1443C38.7164 62.043 39.3261 61.9276 39.7486 61.8036C39.9609 61.7414 40.1186 61.679 40.2206 61.619C40.2717 61.589 40.3029 61.563 40.3201 61.5429C40.3324 61.5286 40.3346 61.5209 40.335 61.519C40.3349 61.476 40.3127 61.3895 40.2523 61.2511C40.1942 61.1177 40.1076 60.9513 39.9953 60.7555C39.7708 60.3644 39.4489 59.8652 39.0607 59.2956C38.2847 58.1568 37.2492 56.7439 36.2126 55.3654C35.1762 53.9872 34.1397 52.6445 33.3623 51.6463C32.9736 51.1472 32.6496 50.7342 32.4229 50.4461C32.3133 50.3068 32.2264 50.1967 32.1659 50.1201Z" fill="#393E46"/>
<path fill-rule="evenodd" clip-rule="evenodd" d="M25.1415 32.7457C25.1415 36.5502 28.2114 39.6344 31.9983 39.6344C35.7851 39.6344 38.855 36.5502 38.855 32.7457C38.855 28.9413 35.7851 25.8571 31.9983 25.8571C28.2114 25.8571 25.1415 28.9413 25.1415 32.7457ZM24.8872 32.7457C24.8872 36.6914 28.0709 39.8899 31.9983 39.8899C35.9256 39.8899 39.1094 36.6914 39.1094 32.7457C39.1094 28.8001 35.9256 25.6016 31.9983 25.6016C28.0709 25.6016 24.8872 28.8001 24.8872 32.7457Z" fill="#0092CA"/>
<path d="M31.9983 39.6344C28.2114 39.6344 25.1415 36.5502 25.1415 32.7457C25.1415 28.9413 28.2114 25.8571 31.9983 25.8571C35.7851 25.8571 38.855 28.9413 38.855 32.7457C38.855 36.5502 35.7851 39.6344 31.9983 39.6344Z" fill="#0092CA"/>
<path d="M90.9331 17.2409V37.2095H88.0761V28.6594H76.6343V37.2095H73.7773V17.2409H76.6343V25.8048H88.0761V17.2409H90.9331Z" fill="#0092CA"/>
<path fill-rule="evenodd" clip-rule="evenodd" d="M162.232 24.3705C162.232 27.1555 161.043 28.743 158.664 29.1329L162.427 37.2095H159.263L155.556 29.2304H149.299V37.2095H146.442V17.2409H157.382C160.615 17.2409 162.232 18.8608 162.232 22.1007V24.3705ZM157.229 26.3757H149.299V20.0955H157.229C157.991 20.0955 158.539 20.2626 158.873 20.5968C159.208 20.931 159.375 21.4787 159.375 22.24V24.2313C159.375 24.9925 159.208 25.5402 158.873 25.8744C158.539 26.2086 157.991 26.3757 157.229 26.3757Z" fill="#0092CA"/>
<path d="M95.7969 22.3792H98.5285V34.4662H106.18V22.3792H108.925V37.2095H106.18V34.7029C106.152 35.0464 106.059 35.3713 105.901 35.6777C105.743 35.984 105.538 36.2533 105.288 36.4854C105.046 36.7082 104.767 36.8845 104.451 37.0145C104.136 37.1445 103.801 37.2095 103.448 37.2095H98.5285C98.1568 37.2095 97.8038 37.1398 97.4693 37.0006C97.1348 36.852 96.8422 36.6571 96.5913 36.4157C96.3497 36.1651 96.1546 35.8726 96.006 35.5384C95.8666 35.2042 95.7969 34.8468 95.7969 34.4662V22.3792Z" fill="#393E46"/>
<path d="M126.624 37.2095H123.879V25.1225H116.228V37.2095H113.496V22.3792H116.228V24.9971C116.246 24.6351 116.33 24.2962 116.479 23.9806C116.627 23.6557 116.822 23.3772 117.064 23.1451C117.315 22.9037 117.603 22.7181 117.928 22.5881C118.253 22.4488 118.602 22.3792 118.973 22.3792H123.879C124.26 22.3792 124.617 22.4535 124.952 22.602C125.286 22.7413 125.574 22.9362 125.816 23.1869C126.067 23.4282 126.262 23.716 126.401 24.0502C126.55 24.3844 126.624 24.7418 126.624 25.1225V37.2095Z" fill="#393E46"/>
<path d="M130.331 22.3792H133.955V17.8118H136.7V22.3792H141.578V25.1225H136.7V34.4662H141.578V37.2095H136.7C136.329 37.2095 135.976 37.1398 135.641 37.0006C135.307 36.852 135.014 36.6571 134.763 36.4157C134.512 36.1651 134.313 35.8726 134.164 35.5384C134.025 35.2042 133.955 34.8468 133.955 34.4662V25.1225H130.331V22.3792Z" fill="#393E46"/>
<path fill-rule="evenodd" clip-rule="evenodd" d="M179.29 31.1938H169.465V34.4662H179.29V37.2095H169.465C169.093 37.2095 168.74 37.1398 168.406 37.0006C168.071 36.852 167.779 36.6571 167.528 36.4157C167.286 36.1651 167.091 35.8726 166.942 35.5384C166.803 35.2042 166.733 34.8468 166.733 34.4662V25.1225C166.733 24.7418 166.803 24.3844 166.942 24.0502C167.091 23.716 167.286 23.4282 167.528 23.1869C167.779 22.9362 168.071 22.7413 168.406 22.602C168.74 22.4535 169.093 22.3792 169.465 22.3792H176.545C176.926 22.3792 177.283 22.4535 177.618 22.602C177.952 22.7413 178.24 22.9362 178.482 23.1869C178.733 23.4282 178.928 23.716 179.067 24.0502C179.216 24.3844 179.29 24.7418 179.29 25.1225V31.1938ZM169.465 28.4506V25.1225H176.545V28.4506H169.465Z" fill="#393E46"/>
<path d="M192.836 34.4662V31.0267H186.328C185.947 31.0267 185.589 30.9571 185.255 30.8178C184.92 30.6693 184.628 30.4743 184.377 30.233C184.135 29.9823 183.94 29.6899 183.792 29.3557C183.652 29.0215 183.583 28.6641 183.583 28.2835V25.1225C183.583 24.7418 183.652 24.3844 183.792 24.0502C183.94 23.716 184.135 23.4282 184.377 23.1869C184.628 22.9362 184.92 22.7413 185.255 22.602C185.589 22.4535 185.947 22.3792 186.328 22.3792H195.01V25.1225H186.328V28.2835H192.836C193.217 28.2835 193.57 28.3577 193.896 28.5063C194.23 28.6455 194.523 28.8405 194.774 29.0911C195.024 29.3325 195.219 29.6203 195.359 29.9545C195.507 30.2887 195.582 30.6461 195.582 31.0267V34.4662C195.582 34.8468 195.507 35.2042 195.359 35.5384C195.219 35.8726 195.024 36.1651 194.774 36.4157C194.523 36.6571 194.23 36.852 193.896 37.0006C193.57 37.1398 193.217 37.2095 192.836 37.2095H183.583V34.4662H192.836Z" fill="#393E46"/>
<path d="M199.874 22.3792H202.606V34.4662H210.257V22.3792H213.002V37.2095H210.257V34.7029C210.229 35.0464 210.136 35.3713 209.978 35.6777C209.82 35.984 209.616 36.2533 209.365 36.4854C209.123 36.7082 208.845 36.8845 208.529 37.0145C208.213 37.1445 207.878 37.2095 207.525 37.2095H202.606C202.234 37.2095 201.881 37.1398 201.547 37.0006C201.212 36.852 200.919 36.6571 200.669 36.4157C200.427 36.1651 200.232 35.8726 200.083 35.5384C199.944 35.2042 199.874 34.8468 199.874 34.4662V22.3792Z" fill="#393E46"/>
<path d="M220.305 16.6699V37.2095H217.574V16.6699H220.305Z" fill="#393E46"/>
<path d="M224.012 22.3792H227.636V17.8118H230.381V22.3792H235.259V25.1225H230.381V34.4662H235.259V37.2095H230.381C230.009 37.2095 229.656 37.1398 229.322 37.0006C228.987 36.852 228.695 36.6571 228.444 36.4157C228.193 36.1651 227.993 35.8726 227.845 35.5384C227.705 35.2042 227.636 34.8468 227.636 34.4662V25.1225H224.012V22.3792Z" fill="#393E46"/>
<path d="M73.7773 49.712V42.014H75.3661C76.5121 42.014 77.3438 42.1064 77.8612 42.2913C78.6043 42.553 79.1843 43.0065 79.601 43.652C80.0212 44.2974 80.2313 45.0667 80.2313 45.9598C80.2313 46.7308 80.0646 47.4094 79.7312 47.9955C79.4013 48.5816 78.9707 49.0142 78.4394 49.2933C77.9115 49.5724 77.1701 49.712 76.2151 49.712H73.7773ZM74.5118 48.9846H75.3973C76.4565 48.9846 77.191 48.9183 77.6007 48.7857C78.1772 48.5973 78.6304 48.2589 78.9603 47.7705C79.2902 47.2785 79.4551 46.6785 79.4551 45.9703C79.4551 45.2271 79.2763 44.5922 78.9186 44.0654C78.5609 43.5386 78.0626 43.1775 77.4236 42.9821C76.9444 42.8356 76.1544 42.7623 75.0535 42.7623H74.5118V48.9846Z" fill="#393E46"/>
<path d="M86.3674 47.8228L86.9821 48.1472C86.7807 48.545 86.548 48.8659 86.2841 49.1101C86.0202 49.3544 85.7233 49.541 85.3934 49.6701C85.0635 49.7957 84.6902 49.8585 84.2734 49.8585C83.3497 49.8585 82.6274 49.555 82.1065 48.9479C81.5856 48.3374 81.3252 47.6484 81.3252 46.8808C81.3252 46.1586 81.5457 45.515 81.9867 44.9498C82.5458 44.2311 83.2942 43.8718 84.2318 43.8718C85.1972 43.8718 85.9681 44.2398 86.5446 44.976C86.9543 45.4958 87.1627 46.1447 87.1696 46.9227H82.0752C82.0891 47.5856 82.2992 48.1298 82.7055 48.5554C83.1118 48.9776 83.6136 49.1886 84.2109 49.1886C84.4992 49.1886 84.7787 49.1381 85.0496 49.0369C85.3239 48.9357 85.5566 48.8014 85.7476 48.6339C85.9386 48.4665 86.1452 48.1961 86.3674 47.8228ZM86.3674 46.2895C86.2702 45.8987 86.1278 45.5865 85.9403 45.3527C85.7563 45.119 85.5114 44.9306 85.2058 44.7876C84.9003 44.6445 84.579 44.573 84.2422 44.573C83.6866 44.573 83.2091 44.7527 82.8097 45.112C82.518 45.3737 82.2975 45.7662 82.1482 46.2895H86.3674Z" fill="#393E46"/>
<path d="M94.0351 45.201L93.4569 45.5621C92.9568 44.8957 92.2744 44.5625 91.4097 44.5625C90.7187 44.5625 90.144 44.7858 89.6856 45.2324C89.2307 45.6789 89.0032 46.2214 89.0032 46.8599C89.0032 47.2751 89.1074 47.6658 89.3157 48.0321C89.5276 48.3984 89.8158 48.6828 90.1804 48.8851C90.5485 49.0875 90.96 49.1886 91.415 49.1886C92.2484 49.1886 92.929 48.8555 93.4569 48.1891L94.0351 48.5711C93.7642 48.9793 93.3996 49.2968 92.9412 49.5236C92.4863 49.7468 91.9671 49.8585 91.3837 49.8585C90.4878 49.8585 89.7446 49.5724 89.1543 49.0003C88.5639 48.4281 88.2687 47.7321 88.2687 46.9122C88.2687 46.361 88.4059 45.8499 88.6802 45.3789C88.958 44.9044 89.3383 44.5346 89.821 44.2695C90.3037 44.0043 90.8437 43.8718 91.441 43.8718C91.816 43.8718 92.1772 43.9293 92.5245 44.0444C92.8752 44.1596 93.1721 44.3096 93.4152 44.4945C93.6583 44.6794 93.8649 44.9149 94.0351 45.201Z" fill="#393E46"/>
<path d="M100.213 47.8228L100.828 48.1472C100.626 48.545 100.393 48.8659 100.13 49.1101C99.8657 49.3544 99.5687 49.541 99.2388 49.6701C98.9089 49.7957 98.5356 49.8585 98.1189 49.8585C97.1952 49.8585 96.4729 49.555 95.952 48.9479C95.4311 48.3374 95.1706 47.6484 95.1706 46.8808C95.1706 46.1586 95.3911 45.515 95.8322 44.9498C96.3913 44.2311 97.1396 43.8718 98.0772 43.8718C99.0426 43.8718 99.8136 44.2398 100.39 44.976C100.8 45.4958 101.008 46.1447 101.015 46.9227H95.9207C95.9346 47.5856 96.1447 48.1298 96.551 48.5554C96.9573 48.9776 97.4591 49.1886 98.0564 49.1886C98.3446 49.1886 98.6242 49.1381 98.895 49.0369C99.1694 48.9357 99.4021 48.8014 99.5931 48.6339C99.784 48.4665 99.9907 48.1961 100.213 47.8228ZM100.213 46.2895C100.116 45.8987 99.9733 45.5865 99.7858 45.3527C99.6017 45.119 99.3569 44.9306 99.0513 44.7876C98.7457 44.6445 98.4245 44.573 98.0877 44.573C97.532 44.573 97.0545 44.7527 96.6552 45.112C96.3635 45.3737 96.143 45.7662 95.9936 46.2895H100.213Z" fill="#393E46"/>
<path d="M102.38 44.0183H103.109V45.0387C103.401 44.648 103.724 44.3567 104.078 44.1648C104.432 43.9694 104.818 43.8718 105.234 43.8718C105.658 43.8718 106.033 43.9799 106.36 44.1962C106.689 44.4125 106.933 44.7038 107.089 45.0701C107.245 45.4365 107.323 46.0069 107.323 46.7814V49.712H106.599V46.996C106.599 46.3401 106.571 45.9022 106.516 45.6824C106.429 45.3056 106.266 45.0231 106.026 44.8347C105.787 44.6428 105.474 44.5468 105.089 44.5468C104.647 44.5468 104.252 44.6934 103.901 44.9864C103.554 45.2795 103.324 45.6423 103.213 46.0749C103.144 46.3575 103.109 46.8738 103.109 47.6239V49.712H102.38V44.0183Z" fill="#393E46"/>
<path d="M109.527 41.9041H110.261V44.0183H111.417V44.6463H110.261V49.712H109.527V44.6463H108.532V44.0183H109.527V41.9041Z" fill="#393E46"/>
<path d="M114.699 44.0183H115.449L117.184 48.1525L119.002 44.0183H119.132L120.945 48.1525L122.711 44.0183H123.471L121.012 49.712H120.872L119.069 45.6353L117.251 49.712H117.116L114.699 44.0183Z" fill="#393E46"/>
<path d="M127.013 43.8718C127.885 43.8718 128.607 44.1892 129.18 44.8242C129.701 45.4033 129.961 46.0889 129.961 46.8808C129.961 47.6763 129.685 48.3723 129.133 48.9689C128.584 49.5619 127.878 49.8585 127.013 49.8585C126.145 49.8585 125.435 49.5619 124.883 48.9689C124.334 48.3723 124.06 47.6763 124.06 46.8808C124.06 46.0924 124.32 45.4086 124.841 44.8294C125.414 44.191 126.138 43.8718 127.013 43.8718ZM127.013 44.5887C126.409 44.5887 125.89 44.8137 125.456 45.2638C125.022 45.7138 124.805 46.2581 124.805 46.8965C124.805 47.3082 124.903 47.692 125.101 48.0478C125.299 48.4037 125.567 48.6793 125.904 48.8747C126.24 49.0665 126.61 49.1625 127.013 49.1625C127.416 49.1625 127.786 49.0665 128.123 48.8747C128.459 48.6793 128.727 48.4037 128.925 48.0478C129.123 47.692 129.222 47.3082 129.222 46.8965C129.222 46.2581 129.003 45.7138 128.565 45.2638C128.131 44.8137 127.614 44.5887 127.013 44.5887Z" fill="#393E46"/>
<path d="M131.045 44.0183H131.79V44.8504C132.012 44.5224 132.246 44.2782 132.493 44.1177C132.74 43.9537 132.997 43.8718 133.264 43.8718C133.465 43.8718 133.681 43.9363 133.91 44.0654L133.53 44.6829C133.377 44.6166 133.248 44.5835 133.144 44.5835C132.901 44.5835 132.667 44.6846 132.441 44.887C132.215 45.0858 132.043 45.3963 131.925 45.8185C131.835 46.1429 131.79 46.7988 131.79 47.7862V49.712H131.045V44.0183Z" fill="#393E46"/>
<path d="M134.524 41.8204H135.259V46.3104L137.879 44.0183H138.952L135.842 46.7343L139.134 49.712H138.103L135.259 47.1529V49.712H134.524V41.8204Z" fill="#393E46"/>
<path d="M145.177 41.8204V42.5373C144.909 42.4222 144.68 42.3646 144.489 42.3646C144.347 42.3646 144.229 42.3943 144.135 42.4536C144.041 42.5094 143.982 42.5757 143.958 42.6524C143.934 42.7257 143.921 42.9246 143.921 43.249V44.0183H145.104V44.6463H143.916V49.712H143.187V44.6463H142.442V44.0183H143.187V43.1286C143.187 42.7205 143.223 42.4291 143.296 42.2547C143.373 42.0803 143.5 41.9407 143.677 41.8361C143.857 41.7279 144.074 41.6738 144.328 41.6738C144.564 41.6738 144.847 41.7227 145.177 41.8204Z" fill="#393E46"/>
<path d="M148.88 43.8718C149.752 43.8718 150.474 44.1892 151.047 44.8242C151.568 45.4033 151.829 46.0889 151.829 46.8808C151.829 47.6763 151.553 48.3723 151 48.9689C150.452 49.5619 149.745 49.8585 148.88 49.8585C148.012 49.8585 147.302 49.5619 146.75 48.9689C146.201 48.3723 145.927 47.6763 145.927 46.8808C145.927 46.0924 146.187 45.4086 146.708 44.8294C147.281 44.191 148.005 43.8718 148.88 43.8718ZM148.88 44.5887C148.276 44.5887 147.757 44.8137 147.323 45.2638C146.889 45.7138 146.672 46.2581 146.672 46.8965C146.672 47.3082 146.771 47.692 146.969 48.0478C147.167 48.4037 147.434 48.6793 147.771 48.8747C148.108 49.0665 148.478 49.1625 148.88 49.1625C149.283 49.1625 149.653 49.0665 149.99 48.8747C150.327 48.6793 150.594 48.4037 150.792 48.0478C150.99 47.692 151.089 47.3082 151.089 46.8965C151.089 46.2581 150.87 45.7138 150.433 45.2638C149.999 44.8137 149.481 44.5887 148.88 44.5887Z" fill="#393E46"/>
<path d="M152.912 44.0183H153.657V44.8504C153.879 44.5224 154.114 44.2782 154.36 44.1177C154.607 43.9537 154.864 43.8718 155.131 43.8718C155.333 43.8718 155.548 43.9363 155.777 44.0654L155.397 44.6829C155.244 44.6166 155.116 44.5835 155.011 44.5835C154.768 44.5835 154.534 44.6846 154.308 44.887C154.082 45.0858 153.911 45.3963 153.792 45.8185C153.702 46.1429 153.657 46.7988 153.657 47.7862V49.712H152.912V44.0183Z" fill="#393E46"/>
<path d="M165.013 41.8204V49.712H164.294V48.7334C163.988 49.1067 163.644 49.3875 163.262 49.5759C162.884 49.7643 162.469 49.8585 162.017 49.8585C161.215 49.8585 160.529 49.5672 159.96 48.9846C159.394 48.3984 159.111 47.6867 159.111 46.8494C159.111 46.0296 159.397 45.3283 159.97 44.7457C160.543 44.1631 161.233 43.8718 162.038 43.8718C162.504 43.8718 162.924 43.9712 163.299 44.17C163.677 44.3689 164.009 44.6672 164.294 45.0649V41.8204H165.013ZM162.096 44.5782C161.689 44.5782 161.314 44.6794 160.97 44.8818C160.627 45.0806 160.352 45.3615 160.147 45.7243C159.946 46.0871 159.845 46.4709 159.845 46.8756C159.845 47.2768 159.948 47.6606 160.153 48.0269C160.358 48.3932 160.632 48.6793 160.976 48.8851C161.323 49.0875 161.695 49.1886 162.09 49.1886C162.49 49.1886 162.868 49.0875 163.226 48.8851C163.584 48.6828 163.858 48.4089 164.049 48.0635C164.243 47.7181 164.341 47.3291 164.341 46.8965C164.341 46.2371 164.124 45.6859 163.69 45.2428C163.259 44.7998 162.728 44.5782 162.096 44.5782Z" fill="#393E46"/>
<path d="M171.441 47.8228L172.055 48.1472C171.854 48.545 171.621 48.8659 171.357 49.1101C171.093 49.3544 170.796 49.541 170.466 49.6701C170.137 49.7957 169.763 49.8585 169.347 49.8585C168.423 49.8585 167.7 49.555 167.18 48.9479C166.659 48.3374 166.398 47.6484 166.398 46.8808C166.398 46.1586 166.619 45.515 167.06 44.9498C167.619 44.2311 168.367 43.8718 169.305 43.8718C170.27 43.8718 171.041 44.2398 171.618 44.976C172.027 45.4958 172.236 46.1447 172.243 46.9227H167.148C167.162 47.5856 167.372 48.1298 167.779 48.5554C168.185 48.9776 168.687 49.1886 169.284 49.1886C169.572 49.1886 169.852 49.1381 170.123 49.0369C170.397 48.9357 170.63 48.8014 170.821 48.6339C171.012 48.4665 171.218 48.1961 171.441 47.8228ZM171.441 46.2895C171.343 45.8987 171.201 45.5865 171.013 45.3527C170.829 45.119 170.585 44.9306 170.279 44.7876C169.973 44.6445 169.652 44.573 169.315 44.573C168.76 44.573 168.282 44.7527 167.883 45.112C167.591 45.3737 167.371 45.7662 167.221 46.2895H171.441Z" fill="#393E46"/>
<path d="M179.108 45.201L178.53 45.5621C178.03 44.8957 177.348 44.5625 176.483 44.5625C175.792 44.5625 175.217 44.7858 174.759 45.2324C174.304 45.6789 174.076 46.2214 174.076 46.8599C174.076 47.2751 174.18 47.6658 174.389 48.0321C174.601 48.3984 174.889 48.6828 175.253 48.8851C175.622 49.0875 176.033 49.1886 176.488 49.1886C177.321 49.1886 178.002 48.8555 178.53 48.1891L179.108 48.5711C178.837 48.9793 178.473 49.2968 178.014 49.5236C177.559 49.7468 177.04 49.8585 176.457 49.8585C175.561 49.8585 174.818 49.5724 174.227 49.0003C173.637 48.4281 173.342 47.7321 173.342 46.9122C173.342 46.361 173.479 45.8499 173.753 45.3789C174.031 44.9044 174.411 44.5346 174.894 44.2695C175.377 44.0043 175.917 43.8718 176.514 43.8718C176.889 43.8718 177.25 43.9293 177.598 44.0444C177.948 44.1596 178.245 44.3096 178.488 44.4945C178.731 44.6794 178.938 44.9149 179.108 45.201Z" fill="#393E46"/>
<path d="M185.286 47.8228L185.901 48.1472C185.699 48.545 185.467 48.8659 185.203 49.1101C184.939 49.3544 184.642 49.541 184.312 49.6701C183.982 49.7957 183.609 49.8585 183.192 49.8585C182.268 49.8585 181.546 49.555 181.025 48.9479C180.504 48.3374 180.244 47.6484 180.244 46.8808C180.244 46.1586 180.464 45.515 180.905 44.9498C181.464 44.2311 182.213 43.8718 183.15 43.8718C184.116 43.8718 184.887 44.2398 185.463 44.976C185.873 45.4958 186.081 46.1447 186.088 46.9227H180.994C181.008 47.5856 181.218 48.1298 181.624 48.5554C182.03 48.9776 182.532 49.1886 183.129 49.1886C183.418 49.1886 183.697 49.1381 183.968 49.0369C184.242 48.9357 184.475 48.8014 184.666 48.6339C184.857 48.4665 185.064 48.1961 185.286 47.8228ZM185.286 46.2895C185.189 45.8987 185.046 45.5865 184.859 45.3527C184.675 45.119 184.43 44.9306 184.124 44.7876C183.819 44.6445 183.498 44.573 183.161 44.573C182.605 44.573 182.128 44.7527 181.728 45.112C181.437 45.3737 181.216 45.7662 181.067 46.2895H185.286Z" fill="#393E46"/>
<path d="M187.453 44.0183H188.182V45.0387C188.474 44.648 188.797 44.3567 189.151 44.1648C189.505 43.9694 189.891 43.8718 190.307 43.8718C190.731 43.8718 191.106 43.9799 191.433 44.1962C191.762 44.4125 192.006 44.7038 192.162 45.0701C192.318 45.4365 192.396 46.0069 192.396 46.7814V49.712H191.672V46.996C191.672 46.3401 191.644 45.9022 191.589 45.6824C191.502 45.3056 191.339 45.0231 191.099 44.8347C190.86 44.6428 190.547 44.5468 190.162 44.5468C189.721 44.5468 189.325 44.6934 188.974 44.9864C188.627 45.2795 188.397 45.6423 188.286 46.0749C188.217 46.3575 188.182 46.8738 188.182 47.6239V49.712H187.453V44.0183Z" fill="#393E46"/>
<path d="M194.6 41.9041H195.334V44.0183H196.491V44.6463H195.334V49.712H194.6V44.6463H193.605V44.0183H194.6V41.9041Z" fill="#393E46"/>
<path d="M200.548 44.0183H201.272V45.0649C201.561 44.6672 201.892 44.3689 202.267 44.17C202.642 43.9712 203.061 43.8718 203.523 43.8718C204.328 43.8718 205.018 44.1631 205.591 44.7457C206.164 45.3283 206.45 46.0296 206.45 46.8494C206.45 47.6867 206.165 48.3984 205.596 48.9846C205.03 49.5672 204.346 49.8585 203.543 49.8585C203.092 49.8585 202.677 49.7643 202.299 49.5759C201.92 49.3875 201.578 49.1067 201.272 48.7334V51.7948H200.548V44.0183ZM203.465 44.5782C202.833 44.5782 202.3 44.7998 201.866 45.2428C201.436 45.6859 201.22 46.2371 201.22 46.8965C201.22 47.3291 201.316 47.7181 201.507 48.0635C201.701 48.4089 201.977 48.6828 202.335 48.8851C202.696 49.0875 203.076 49.1886 203.476 49.1886C203.868 49.1886 204.236 49.0875 204.58 48.8851C204.927 48.6793 205.203 48.3932 205.408 48.0269C205.613 47.6606 205.716 47.2768 205.716 46.8756C205.716 46.4709 205.613 46.0871 205.408 45.7243C205.207 45.3615 204.934 45.0806 204.59 44.8818C204.247 44.6794 203.872 44.5782 203.465 44.5782Z" fill="#393E46"/>
<path d="M212.591 47.8228L213.206 48.1472C213.005 48.545 212.772 48.8659 212.508 49.1101C212.244 49.3544 211.947 49.541 211.617 49.6701C211.287 49.7957 210.914 49.8585 210.497 49.8585C209.574 49.8585 208.851 49.555 208.331 48.9479C207.81 48.3374 207.549 47.6484 207.549 46.8808C207.549 46.1586 207.77 45.515 208.211 44.9498C208.77 44.2311 209.518 43.8718 210.456 43.8718C211.421 43.8718 212.192 44.2398 212.769 44.976C213.178 45.4958 213.387 46.1447 213.394 46.9227H208.299C208.313 47.5856 208.523 48.1298 208.93 48.5554C209.336 48.9776 209.838 49.1886 210.435 49.1886C210.723 49.1886 211.003 49.1381 211.274 49.0369C211.548 48.9357 211.781 48.8014 211.972 48.6339C212.163 48.4665 212.369 48.1961 212.591 47.8228ZM212.591 46.2895C212.494 45.8987 212.352 45.5865 212.164 45.3527C211.98 45.119 211.735 44.9306 211.43 44.7876C211.124 44.6445 210.803 44.573 210.466 44.573C209.911 44.573 209.433 44.7527 209.034 45.112C208.742 45.3737 208.522 45.7662 208.372 46.2895H212.591Z" fill="#393E46"/>
<path d="M217.441 43.8718C218.313 43.8718 219.035 44.1892 219.608 44.8242C220.129 45.4033 220.389 46.0889 220.389 46.8808C220.389 47.6763 220.113 48.3723 219.561 48.9689C219.012 49.5619 218.306 49.8585 217.441 49.8585C216.573 49.8585 215.863 49.5619 215.311 48.9689C214.762 48.3723 214.488 47.6763 214.488 46.8808C214.488 46.0924 214.748 45.4086 215.269 44.8294C215.842 44.191 216.566 43.8718 217.441 43.8718ZM217.441 44.5887C216.837 44.5887 216.318 44.8137 215.884 45.2638C215.449 45.7138 215.232 46.2581 215.232 46.8965C215.232 47.3082 215.331 47.692 215.529 48.0478C215.727 48.4037 215.995 48.6793 216.332 48.8747C216.668 49.0665 217.038 49.1625 217.441 49.1625C217.844 49.1625 218.214 49.0665 218.551 48.8747C218.887 48.6793 219.155 48.4037 219.353 48.0478C219.551 47.692 219.65 47.3082 219.65 46.8965C219.65 46.2581 219.431 45.7138 218.993 45.2638C218.559 44.8137 218.042 44.5887 217.441 44.5887Z" fill="#393E46"/>
<path d="M221.759 44.0183H222.483V45.0649C222.772 44.6672 223.103 44.3689 223.478 44.17C223.853 43.9712 224.272 43.8718 224.734 43.8718C225.539 43.8718 226.229 44.1631 226.802 44.7457C227.375 45.3283 227.661 46.0296 227.661 46.8494C227.661 47.6867 227.376 48.3984 226.807 48.9846C226.241 49.5672 225.557 49.8585 224.754 49.8585C224.303 49.8585 223.888 49.7643 223.509 49.5759C223.131 49.3875 222.789 49.1067 222.483 48.7334V51.7948H221.759V44.0183ZM224.676 44.5782C224.044 44.5782 223.511 44.7998 223.077 45.2428C222.647 45.6859 222.431 46.2371 222.431 46.8965C222.431 47.3291 222.527 47.7181 222.718 48.0635C222.912 48.4089 223.188 48.6828 223.546 48.8851C223.907 49.0875 224.287 49.1886 224.687 49.1886C225.079 49.1886 225.447 49.0875 225.791 48.8851C226.138 48.6793 226.414 48.3932 226.619 48.0269C226.824 47.6606 226.927 47.2768 226.927 46.8756C226.927 46.4709 226.824 46.0871 226.619 45.7243C226.418 45.3615 226.145 45.0806 225.801 44.8818C225.458 44.6794 225.083 44.5782 224.676 44.5782Z" fill="#393E46"/>
<path d="M228.922 41.8204H229.651V49.712H228.922V41.8204Z" fill="#393E46"/>
<path d="M235.938 47.8228L236.553 48.1472C236.351 48.545 236.119 48.8659 235.855 49.1101C235.591 49.3544 235.294 49.541 234.964 49.6701C234.634 49.7957 234.261 49.8585 233.844 49.8585C232.92 49.8585 232.198 49.555 231.677 48.9479C231.156 48.3374 230.896 47.6484 230.896 46.8808C230.896 46.1586 231.116 45.515 231.557 44.9498C232.116 44.2311 232.865 43.8718 233.802 43.8718C234.768 43.8718 235.539 44.2398 236.115 44.976C236.525 45.4958 236.733 46.1447 236.74 46.9227H231.646C231.66 47.5856 231.87 48.1298 232.276 48.5554C232.682 48.9776 233.184 49.1886 233.782 49.1886C234.07 49.1886 234.349 49.1381 234.62 49.0369C234.895 48.9357 235.127 48.8014 235.318 48.6339C235.509 48.4665 235.716 48.1961 235.938 47.8228ZM235.938 46.2895C235.841 45.8987 235.698 45.5865 235.511 45.3527C235.327 45.119 235.082 44.9306 234.777 44.7876C234.471 44.6445 234.15 44.573 233.813 44.573C233.257 44.573 232.78 44.7527 232.38 45.112C232.089 45.3737 231.868 45.7662 231.719 46.2895H235.938Z" fill="#393E46"/>
</svg>
